<svg width="82" height="82" viewBox="0 0 82 82" fill="none" xmlns="http://www.w3.org/2000/svg">
<rect width="82" height="82" rx="9" fill="#F4FCFD"/>
<path d="M60.5 20H21.5C21.1022 20 20.7206 20.158 20.4393 20.4393C20.158 20.7206 20 21.1022 20 21.5V47.975C20 48.9099 20.3714 49.8065 21.0324 50.4676C21.6935 51.1286 22.5901 51.5 23.525 51.5H36.5V59H27.995C27.5972 59 27.2156 59.158 26.9343 59.4393C26.653 59.7206 26.495 60.1022 26.495 60.5C26.495 60.8978 26.653 61.2794 26.9343 61.5607C27.2156 61.842 27.5972 62 27.995 62H54.005C54.4028 62 54.7844 61.842 55.0657 61.5607C55.347 61.2794 55.505 60.8978 55.505 60.5C55.505 60.1022 55.347 59.7206 55.0657 59.4393C54.7844 59.158 54.4028 59 54.005 59H45.5V51.5H58.475C59.4099 51.5 60.3065 51.1286 60.9676 50.4676C61.6286 49.8065 62 48.9099 62 47.975V21.5C62 21.1022 61.842 20.7206 61.5607 20.4393C61.2794 20.158 60.8978 20 60.5 20ZM59 23V41.345C58.4361 41.1226 57.8361 41.0057 57.23 41H24.77C24.1639 41.0057 23.5639 41.1226 23 41.345V23H59ZM42.5 59H39.5V51.5H42.5V59ZM44 48.5H24.77C24.3006 48.5 23.8504 48.3135 23.5184 47.9816C23.1865 47.6496 23 47.1994 23 46.73V45.77C23 45.3006 23.1865 44.8504 23.5184 44.5184C23.8504 44.1865 24.3006 44 24.77 44H57.23C57.6994 44 58.1496 44.1865 58.4816 44.5184C58.8135 44.8504 59 45.3006 59 45.77V46.73C59 47.1994 58.8135 47.6496 58.4816 47.9816C58.1496 48.3135 57.6994 48.5 57.23 48.5H44Z" fill="#EC923B"/>
<path d="M30.8444 34.49L39.4994 29.285V34.79C39.4988 35.0711 39.5773 35.3467 39.7258 35.5854C39.8743 35.8241 40.0869 36.0163 40.3394 36.14C40.5451 36.2396 40.7708 36.2909 40.9994 36.29C41.324 36.29 41.6398 36.1847 41.8994 35.99L51.2744 28.88C51.4968 28.7096 51.6671 28.4804 51.7659 28.2182C51.8647 27.956 51.8881 27.6714 51.8335 27.3966C51.7788 27.1218 51.6483 26.8678 51.4567 26.6634C51.2651 26.459 51.0201 26.3123 50.7494 26.24L48.4994 25.655C48.1746 25.5715 47.8313 25.5992 47.5241 25.7337C47.217 25.8682 46.9637 26.1017 46.8049 26.397C46.646 26.6923 46.5906 27.0323 46.6477 27.3628C46.7047 27.6932 46.8708 27.995 47.1194 28.22L42.4994 31.775V26.63C42.4989 26.3642 42.4279 26.1033 42.2934 25.874C42.159 25.6447 41.9661 25.4552 41.7344 25.325C41.5064 25.1933 41.2477 25.124 40.9844 25.124C40.7211 25.124 40.4624 25.1933 40.2344 25.325L29.2994 31.91C28.9991 32.1284 28.7905 32.4504 28.7139 32.8138C28.6373 33.1772 28.6982 33.556 28.8849 33.877C29.0715 34.1981 29.3706 34.4384 29.7243 34.5517C30.0779 34.6649 30.461 34.6429 30.7994 34.49H30.8444Z" fill="#EC923B"/>
</svg>
