<svg width="82" height="82" viewBox="0 0 82 82" fill="none" xmlns="http://www.w3.org/2000/svg">
<rect width="82" height="82" rx="9" fill="white"/>
<g clip-path="url(#clip0_386_844)">
<path d="M53.462 28.8533C53.3546 28.7447 53.2342 28.6453 53.1018 28.5571L52.9662 28.5288C52.8952 28.4979 52.8386 28.4472 52.8016 28.3859C52.5896 28.2858 52.3677 28.2213 52.142 28.1891C51.9471 28.162 51.8102 27.9811 51.8385 27.7848C51.8648 27.5886 52.0471 27.4517 52.242 27.4787C52.4652 27.5116 52.689 27.5683 52.9036 27.6525C52.9385 27.4958 52.9582 27.3358 52.9582 27.1746C52.9576 26.8217 52.8747 26.4655 52.6982 26.1304C52.4967 25.7472 52.2012 25.4483 51.8555 25.2443C51.5527 25.0653 51.2103 24.9586 50.8588 24.9336C50.8332 25.2542 50.7568 25.5735 50.6238 25.8829C50.5448 26.0645 50.3348 26.1482 50.1525 26.0698C49.9707 25.9921 49.8865 25.7815 49.9649 25.5998C50.0925 25.3016 50.1525 24.9948 50.1538 24.6906L50.1492 24.561C50.1248 24.1396 49.9853 23.7328 49.7476 23.3858C49.5099 23.0395 49.1768 22.7558 48.7621 22.5761C48.4646 22.449 48.1564 22.3891 47.8529 22.3891C47.2716 22.3891 46.7087 22.613 46.2835 23.0079C46.3631 23.2785 46.4085 23.5636 46.4085 23.8599C46.4085 24.0574 46.2466 24.218 46.0491 24.218C45.8516 24.218 45.6903 24.0574 45.6903 23.8599C45.6903 23.5695 45.637 23.2943 45.5396 23.0382H45.5402C45.3749 22.6071 45.0827 22.2358 44.7081 21.9737C44.3348 21.7118 43.8825 21.5583 43.3901 21.5583C42.9629 21.5583 42.5646 21.6749 42.2223 21.8763C41.9484 22.0382 41.7121 22.2568 41.5264 22.5136C41.8892 23.0106 42.1038 23.6249 42.1038 24.2872C42.1038 24.4846 41.9425 24.6446 41.7443 24.6446C41.5468 24.6446 41.3855 24.4846 41.3855 24.2872C41.3855 23.7052 41.1715 23.1759 40.8154 22.771C40.3928 22.2884 39.776 21.9863 39.0847 21.9863C38.6048 21.9863 38.163 22.1318 37.7937 22.382C37.4257 22.6322 37.1327 22.9863 36.9595 23.4024C36.8477 23.6743 36.7838 23.9738 36.7838 24.2872C36.7838 24.4846 36.6238 24.6446 36.4257 24.6446C36.2275 24.6446 36.0675 24.4846 36.0675 24.2872C36.0675 23.9962 36.1097 23.7157 36.186 23.4484C35.9161 23.3392 35.6239 23.2786 35.3237 23.2786C35.1532 23.2786 34.982 23.2983 34.8082 23.3372C34.2973 23.4551 33.8701 23.7303 33.5573 24.1028C33.3322 24.3715 33.1715 24.6907 33.0879 25.0337C33.8286 25.0468 34.5685 25.3332 35.14 25.8928C35.2809 26.0317 35.2836 26.2582 35.1453 26.399C35.0064 26.5412 34.7799 26.5426 34.6384 26.4049C34.1894 25.9672 33.6108 25.7479 33.0287 25.7472C32.9248 25.7472 32.8207 25.7545 32.7167 25.7676H32.7154H32.7147C32.2269 25.8354 31.7569 26.0579 31.3836 26.4385C30.9451 26.8861 30.7278 27.4642 30.7272 28.0475C30.7272 28.38 30.7996 28.715 30.9444 29.0231C31.057 29.266 31.215 29.4925 31.4191 29.6913V29.6919C31.6495 29.9184 31.9155 30.0856 32.1993 30.1949C32.3829 30.2667 32.4758 30.474 32.4034 30.6583C32.3317 30.844 32.1249 30.9362 31.94 30.8637C31.5693 30.7202 31.2191 30.5004 30.9162 30.2034C30.7839 30.0731 30.666 29.9342 30.5614 29.7868C30.2908 30.1746 30.144 30.6386 30.144 31.1113C30.144 31.4774 30.2316 31.8467 30.4166 32.1936C30.6246 32.5821 30.9255 32.8849 31.2797 33.0916C31.5594 33.2555 31.8722 33.3589 32.1948 33.3951L32.1941 33.3734C32.1941 33.1837 32.2119 32.9981 32.2442 32.8177C32.281 32.6229 32.4686 32.4957 32.6622 32.5307C32.8571 32.5669 32.9855 32.7538 32.9505 32.9486C32.9248 33.0862 32.9111 33.2291 32.9111 33.3733L32.917 33.5399L32.936 33.7078V33.7097L32.9367 33.713C33.1013 34.8375 34.073 35.6781 35.2106 35.6781L35.3758 35.6715H35.3765C35.8808 35.6353 36.3337 35.4404 36.6931 35.1369C36.9453 34.9243 37.152 34.6577 37.2935 34.3574C37.3771 34.1777 37.5924 34.1014 37.7708 34.1862C37.9499 34.2706 38.0263 34.4838 37.942 34.6629C37.7886 34.9862 37.5793 35.2778 37.3278 35.526C37.4687 35.9592 37.7333 36.3311 38.079 36.6076C38.474 36.9243 38.9723 37.1112 39.5108 37.1112L39.6768 37.1047H39.6774C40.0184 37.0803 40.3338 36.9822 40.6136 36.8295C40.5701 36.6235 40.5452 36.4128 40.5452 36.1995C40.5452 35.7597 40.6433 35.3114 40.846 34.89C40.9323 34.7116 41.1462 34.6372 41.324 34.7235C41.5023 34.8084 41.5781 35.0231 41.4918 35.2014C41.3358 35.5247 41.2627 35.8644 41.2627 36.1995C41.2627 36.4338 41.2989 36.6676 41.3687 36.8894H41.3694C41.5531 37.4746 41.9679 37.9862 42.5649 38.2732C42.8875 38.4292 43.2272 38.5023 43.5616 38.5023C44.0929 38.5023 44.6124 38.3166 45.0245 37.9802L45.0258 37.9796C45.276 37.7735 45.4854 37.5128 45.6361 37.2014L45.6367 37.2C45.777 36.9091 45.8507 36.6043 45.8631 36.3001C45.8724 36.1026 46.0389 35.9486 46.2377 35.9578C46.4352 35.9664 46.5879 36.1335 46.5794 36.331C46.5622 36.73 46.4655 37.1328 46.2818 37.5127V37.512C46.1343 37.8195 45.9402 38.0901 45.7124 38.3211C46.135 38.9281 46.8381 39.3106 47.5985 39.31C47.7394 39.31 47.8829 39.2969 48.0271 39.2691C48.5807 39.1652 49.0475 38.8721 49.3793 38.4693C49.7105 38.0656 49.9034 37.5528 49.9034 37.0116L49.9027 36.963V36.9603C49.9001 36.8385 49.8876 36.7109 49.8639 36.5824C49.8066 36.2776 49.6901 36.0011 49.5302 35.7568C49.2984 35.5527 49.041 35.2862 48.7981 34.9899C48.5394 34.6739 48.3011 34.3283 48.1411 33.9801C48.0358 33.747 47.9607 33.5113 47.9594 33.2632C47.9594 33.1532 47.9745 33.0393 48.016 32.9301C48.0561 32.8188 48.122 32.7135 48.2102 32.6266C48.3498 32.4877 48.5762 32.4877 48.7164 32.6266C48.856 32.7674 48.856 32.9952 48.7164 33.1342L48.6894 33.177L48.6756 33.2633C48.6743 33.3534 48.7118 33.5062 48.7928 33.6819C48.8731 33.8571 48.9922 34.0539 49.1325 34.2481C49.4103 34.6372 49.7704 35.019 50.0416 35.252L50.0785 35.2837L50.1055 35.3238C50.3274 35.6543 50.49 36.0348 50.5683 36.4502V36.4509L50.594 36.6286L50.7013 36.6332C51.1556 36.6325 51.6131 36.4982 52.0153 36.2158C52.3353 35.9906 52.5789 35.7017 52.7435 35.3771C52.9087 35.0519 52.9949 34.6924 52.9949 34.3304C52.9949 33.9913 52.9185 33.6509 52.7658 33.3343C52.6242 33.3797 52.4807 33.4159 52.3352 33.441C52.1404 33.4758 51.9554 33.3435 51.9205 33.1487C51.8875 32.9532 52.0193 32.7688 52.2141 32.7346C52.8487 32.6253 53.4301 32.2554 53.7895 31.6615C54.0173 31.2883 54.1246 30.8774 54.1246 30.4713C54.1246 29.8728 53.8935 29.2876 53.463 28.8537L53.462 28.8533ZM37.0387 26.1186C37.381 25.7137 37.8352 25.426 38.3237 25.2377C38.8142 25.0494 39.3395 24.9592 39.8438 24.9592C40.3343 24.9599 40.8056 25.0429 41.2059 25.2286C41.3849 25.3101 41.4633 25.5241 41.3803 25.7038C41.298 25.883 41.0854 25.9619 40.9044 25.879C40.6279 25.7493 40.2493 25.6749 39.8438 25.6749C39.4264 25.6749 38.9815 25.7519 38.5818 25.9073C38.1822 26.0607 37.8313 26.2898 37.5844 26.5808C37.458 26.7322 37.2309 26.7519 37.0795 26.6229C36.9287 26.4952 36.9097 26.2694 37.0387 26.1186ZM45.1966 34.5939C44.7799 34.5939 44.402 34.5465 44.0571 34.4669C44.0663 34.5656 44.0729 34.6755 44.0729 34.7921C44.0729 35.0258 44.0472 35.293 43.9741 35.5735C43.9003 35.8532 43.776 36.1475 43.5798 36.43C43.4672 36.5932 43.244 36.6334 43.0814 36.5208C42.9182 36.4081 42.8787 36.1857 42.9899 36.0217C43.1347 35.813 43.2249 35.5997 43.2802 35.3897C43.3356 35.1798 43.356 34.9756 43.356 34.792C43.3566 34.5386 43.3177 34.3299 43.2901 34.2107C43.115 34.1316 42.9537 34.0428 42.803 33.9434C42.2026 33.5549 41.8011 33.0421 41.5489 32.5543C41.3797 32.2271 41.2769 31.9111 41.2217 31.6366C41.1901 31.4798 41.1743 31.3377 41.1743 31.2086C41.1743 31.0098 41.335 30.8491 41.5331 30.8491C41.7312 30.8491 41.8919 31.0098 41.8919 31.2086C41.8912 31.3125 41.9136 31.4871 41.9702 31.6853C42.0268 31.8841 42.117 32.1099 42.2474 32.337C42.5087 32.7939 42.9241 33.2514 43.5653 33.5484C43.9939 33.7472 44.5271 33.8762 45.1966 33.8762C45.3948 33.8762 45.5554 34.0368 45.5554 34.235C45.5554 34.4333 45.3948 34.5939 45.1966 34.5939ZM47.7207 31.9764C47.647 32.1594 47.4383 32.249 47.2539 32.1758C47.0703 32.1021 46.9821 31.8947 47.0545 31.7111V31.7104L47.0565 31.7051L47.0671 31.6735L47.1039 31.5445C47.131 31.4313 47.1586 31.2713 47.1586 31.0955L47.1579 31.0705C46.6655 31.2377 46.2087 31.3127 45.788 31.3127C45.1521 31.3141 44.6017 31.1396 44.154 30.875C43.7057 30.6104 43.3568 30.2601 43.096 29.904C42.7998 29.5004 42.4114 29.1384 41.9664 28.8823C41.5201 28.6255 41.021 28.4728 40.4911 28.4714C40.027 28.4728 39.5332 28.5886 39.0177 28.8717C38.5286 29.1403 38.2139 29.4977 38.0105 29.8901C37.8085 30.2831 37.7229 30.7123 37.7235 31.1034C37.7221 31.4655 37.7985 31.7933 37.8979 32C37.9828 32.1791 37.9058 32.3924 37.7274 32.4773C37.549 32.5623 37.335 32.4852 37.2501 32.3068C37.0941 31.9763 37.0072 31.5602 37.0059 31.1034C37.0066 30.6492 37.0968 30.1527 37.3187 29.6781C36.8737 29.7789 36.4603 29.8237 36.0837 29.8237C35.8803 29.8237 35.6886 29.8105 35.5063 29.7868L35.4398 29.9211L35.4391 29.9224L35.4338 29.9277L35.4147 29.9521L35.3383 30.0561C35.2731 30.1496 35.1829 30.2858 35.0848 30.4596C34.8893 30.8039 34.6655 31.2898 34.5568 31.8354C34.518 32.0297 34.3297 32.1568 34.1355 32.1172C33.9413 32.0784 33.8148 31.8901 33.8551 31.6946C33.9841 31.0474 34.239 30.4971 34.4608 30.1054C34.5766 29.9026 34.6826 29.742 34.7602 29.6327C34.468 29.5452 34.2152 29.4378 34.0085 29.3285C33.5365 29.0776 33.2909 28.8262 33.2699 28.8058C33.1329 28.6629 33.1368 28.4364 33.279 28.2989C33.4219 28.162 33.6477 28.1659 33.7853 28.3067L33.7893 28.3107L33.8103 28.3311L33.913 28.4173C34.0064 28.491 34.1507 28.5925 34.3435 28.6951C34.7306 28.8992 35.3087 29.1059 36.0835 29.1073C36.6279 29.1073 37.2698 29.0033 38.0156 28.7163C38.2046 28.5405 38.4225 28.3799 38.6727 28.2429C39.2862 27.9066 39.9044 27.7551 40.4909 27.7551C41.1611 27.7551 41.7845 27.9501 42.3244 28.2607C42.8642 28.5728 43.3218 29 43.6739 29.4806C43.8879 29.7708 44.169 30.052 44.5173 30.2567C44.8675 30.4621 45.2816 30.5958 45.7878 30.5964C46.1348 30.5964 46.5258 30.5319 46.9682 30.3765C46.8603 30.2034 46.6996 30.0362 46.435 29.8847C46.2625 29.7866 46.2013 29.5681 46.2987 29.3963C46.3968 29.2231 46.6147 29.1638 46.7871 29.26C47.2111 29.499 47.4949 29.8156 47.6594 30.1468C47.8259 30.4766 47.8753 30.811 47.8753 31.0954C47.8734 31.592 47.7305 31.9507 47.7207 31.9764ZM47.5864 27.5847C46.749 27.5847 46.0163 27.3589 45.4238 27.0172C45.3403 27.1331 45.2283 27.2786 45.0841 27.4366C44.7596 27.7928 44.2829 28.2108 43.645 28.4399C43.4574 28.5057 43.2533 28.4096 43.1868 28.2227C43.1203 28.0356 43.2184 27.831 43.4034 27.7651C43.8741 27.5972 44.2678 27.2674 44.5404 26.9692C44.6668 26.8329 44.7649 26.7039 44.836 26.6051C44.4824 26.3063 44.2034 25.9659 44.0118 25.6157C43.8301 25.2799 43.7247 24.9337 43.7235 24.5972C43.7235 24.3998 43.8841 24.2391 44.0823 24.2391C44.2798 24.2391 44.4404 24.3998 44.4404 24.5972C44.439 24.7783 44.5023 25.0199 44.6418 25.2734C44.7793 25.5275 44.9887 25.7921 45.2626 26.0292C45.8103 26.5039 46.601 26.8672 47.5865 26.8672C47.7846 26.8672 47.9446 27.0285 47.9446 27.2266C47.9445 27.4241 47.7845 27.5847 47.5864 27.5847ZM50.4119 32.6321C50.2862 32.7835 50.0597 32.8059 49.907 32.6788C49.7543 32.5531 49.7332 32.3267 49.8583 32.1746C50.2493 31.6999 50.3935 31.2219 50.3948 30.7645C50.3961 30.3477 50.2684 29.9454 50.0682 29.6065C49.8707 29.268 49.5976 28.9968 49.3349 28.8461C49.1584 28.7447 48.9926 28.6993 48.8609 28.6993C48.6627 28.6993 48.5028 28.5394 48.5028 28.3412C48.5028 28.1431 48.6628 27.9824 48.8609 27.9824C49.0787 27.9824 49.2921 28.0357 49.4949 28.1253C49.6969 28.2135 49.8879 28.3392 50.0656 28.4927C50.4205 28.7994 50.722 29.2168 50.9116 29.706C51.0367 30.0325 51.113 30.3906 51.113 30.7645C51.1137 31.3793 50.9037 32.0376 50.4119 32.6321Z" fill="#EC923B"/>
<path d="M33.4834 50.5898L33.5084 50.6121C33.5077 50.6114 33.5077 50.6114 33.507 50.6107L33.4834 50.5898Z" fill="#EC923B"/>
<path d="M55.004 21.5912C52.337 18.4727 48.3259 16.349 43.1863 16.0388C42.7682 16.0131 42.3522 16 41.9401 16C37.6175 16 33.6412 17.4035 30.7261 19.9803C27.8091 22.5504 25.9928 26.3134 25.9993 30.8203C25.9993 30.9223 26 31.0244 26.0019 31.1271L25.9974 31.6708L22.2871 38.2231C22.0876 38.5766 21.9868 38.971 21.9868 39.3654C21.9868 39.6944 22.0567 40.025 22.1981 40.333C22.4977 40.9868 23.0868 41.4568 23.7847 41.6188L23.7833 41.6246L25.4897 42.0947L26.1639 48.597L26.1692 48.5964C26.2166 49.5437 26.6392 50.4331 27.3569 51.0572C27.9948 51.6128 28.8091 51.9143 29.6465 51.9143C29.7314 51.9143 29.815 51.9064 29.8993 51.9006L31.8328 52.0539L31.9296 52.0434L31.9605 52.0421C32.0349 52.0421 32.1041 52.0684 32.1574 52.1165L32.1606 52.1198C32.2219 52.1751 32.2581 52.2561 32.2581 52.339V59H50.3114V57.9888C50.3114 57.9888 50.3114 55.2496 50.3114 54.1568C50.3094 53.717 50.397 52.8474 50.5695 52.0086C50.6551 51.588 50.761 51.1686 50.8809 50.806C50.9994 50.4439 51.1364 50.1358 51.2508 49.9561C52.4516 48.0206 54.1495 46.4327 55.7044 44.1872C57.2574 41.9436 58.5812 39.0331 58.944 34.6171C58.9901 34.0634 59.0132 33.5097 59.0132 32.9588C59.0132 28.7723 57.6755 24.707 55.004 21.5912ZM56.9283 34.4483C56.5774 38.5531 55.4292 41.0092 54.0388 43.0402C52.6504 45.0692 50.9335 46.6643 49.5359 48.8836C49.2923 49.276 49.1139 49.7105 48.9605 50.1726C48.7327 50.8645 48.5701 51.6189 48.4589 52.3214C48.3483 53.0258 48.2897 53.6644 48.289 54.1568C48.289 54.8586 48.289 55.9198 48.289 56.9777H34.2804V52.3391C34.2804 51.6801 34 51.0527 33.5088 50.6124C33.0802 50.2272 32.5273 50.0192 31.9605 50.0192C31.919 50.0192 31.8788 50.0238 31.838 50.0264L29.9065 49.8724L29.8117 49.8829L29.6465 49.8921C29.295 49.8921 28.9526 49.7651 28.6847 49.532C28.3753 49.2628 28.1922 48.8757 28.1803 48.4642L28.1797 48.4261L27.3595 40.513L24.285 39.6651L24.2482 39.6579C24.1547 39.6394 24.0764 39.5775 24.0362 39.4906L24.0092 39.3655L24.0474 39.2194L28.0157 32.2115L28.0243 31.1167V31.1022C28.0224 31.0074 28.0217 30.9139 28.0217 30.8205C28.0283 26.8521 29.5707 23.7105 32.0658 21.4953C34.5635 19.2852 38.0513 18.0225 41.9401 18.0225C42.3107 18.0225 42.6847 18.0344 43.0613 18.0574L43.1238 17.0482L43.0619 18.0574C47.7182 18.3504 51.1455 20.2082 53.4687 22.908C55.788 25.6097 56.9908 29.1982 56.9908 32.9587C56.9908 33.453 56.9704 33.95 56.9283 34.4483Z" fill="#EC923B"/>
</g>
<defs>
<clipPath id="clip0_386_844">
<rect width="43" height="43" fill="white" transform="translate(19 16)"/>
</clipPath>
</defs>
</svg>
