<svg width="82" height="82" viewBox="0 0 82 82" fill="none" xmlns="http://www.w3.org/2000/svg">
<rect width="82" height="82" rx="9" fill="#F4FCFD"/>
<path d="M41.5 21.9766C41.7271 21.9766 41.9492 21.9092 42.138 21.783C42.3269 21.6568 42.4741 21.4775 42.561 21.2676C42.6479 21.0578 42.6707 20.8269 42.6264 20.6041C42.5821 20.3813 42.4727 20.1767 42.3121 20.0161C42.1515 19.8554 41.9468 19.7461 41.7241 19.7018C41.5013 19.6574 41.2704 19.6802 41.0605 19.7671C40.8507 19.854 40.6713 20.0012 40.5451 20.1901C40.4189 20.3789 40.3516 20.601 40.3516 20.8281C40.3516 21.1327 40.4726 21.4248 40.6879 21.6402C40.9033 21.8556 41.1954 21.9766 41.5 21.9766ZM41.5 20.4453C41.5757 20.4453 41.6497 20.4678 41.7127 20.5098C41.7756 20.5519 41.8247 20.6117 41.8537 20.6816C41.8826 20.7516 41.8902 20.8286 41.8755 20.9028C41.8607 20.9771 41.8242 21.0453 41.7707 21.0988C41.7172 21.1524 41.6489 21.1888 41.5747 21.2036C41.5004 21.2184 41.4235 21.2108 41.3535 21.1818C41.2836 21.1528 41.2238 21.1038 41.1817 21.0408C41.1396 20.9779 41.1172 20.9038 41.1172 20.8281C41.1172 20.7266 41.1575 20.6292 41.2293 20.5574C41.3011 20.4856 41.3985 20.4453 41.5 20.4453Z" fill="#BE9CF4"/>
<path d="M44.5625 21.5938C44.9853 21.5938 45.3281 21.251 45.3281 20.8281C45.3281 20.4053 44.9853 20.0625 44.5625 20.0625C44.1397 20.0625 43.7969 20.4053 43.7969 20.8281C43.7969 21.251 44.1397 21.5938 44.5625 21.5938Z" fill="#BE9CF4"/>
<path d="M38.4375 21.5938C38.8603 21.5938 39.2031 21.251 39.2031 20.8281C39.2031 20.4053 38.8603 20.0625 38.4375 20.0625C38.0147 20.0625 37.6719 20.4053 37.6719 20.8281C37.6719 21.251 38.0147 21.5938 38.4375 21.5938Z" fill="#BE9CF4"/>
<path d="M50.6873 17H32.3123C31.297 17 30.3233 17.4033 29.6054 18.1212C28.8875 18.8391 28.4842 19.8128 28.4842 20.8281V26.6392L22.5812 32.5345C22.5232 32.6018 22.4743 32.6765 22.4357 32.7566V32.8255C22.4132 32.8926 22.3978 32.9619 22.3898 33.0322L22.3592 33.0781V36.7761C22.3413 37.5788 22.6325 38.3577 23.1725 38.9519C23.7125 39.546 24.4601 39.9101 25.2609 39.9688C25.7226 39.9919 26.1835 39.9103 26.6091 39.73C27.0348 39.5496 27.414 39.2753 27.7185 38.9275C27.9392 39.1715 28.1977 39.3783 28.4842 39.54V49.9219C28.0781 49.9219 27.6886 50.0832 27.4014 50.3704C27.1143 50.6575 26.9529 51.047 26.9529 51.4531V64.4688C26.9529 64.8749 27.1143 65.2643 27.4014 65.5515C27.6886 65.8387 28.0781 66 28.4842 66H54.5154C54.9215 66 55.311 65.8387 55.5982 65.5515C55.8853 65.2643 56.0467 64.8749 56.0467 64.4688V51.4531C56.0467 51.047 55.8853 50.6575 55.5982 50.3704C55.311 50.0832 54.9215 49.9219 54.5154 49.9219V39.5477C54.7968 39.3878 55.0545 39.1893 55.2811 38.9581C55.5885 39.3004 55.9691 39.5689 56.3946 39.7439C56.82 39.9188 57.2795 39.9957 57.7387 39.9688C58.5395 39.9101 59.2871 39.546 59.8271 38.9519C60.3671 38.3577 60.6583 37.5788 60.6404 36.7761V33.0781C60.6404 33.0781 60.6404 33.0781 60.6404 33.0322C60.6325 32.9619 60.6171 32.8926 60.5945 32.8255V32.7566C60.556 32.6765 60.5071 32.6018 60.449 32.5345L54.5154 26.6392V20.8281C54.5154 19.8128 54.1121 18.8391 53.3942 18.1212C52.6763 17.4033 51.7026 17 50.6873 17ZM54.8982 37.4575C54.6031 37.5312 54.3365 37.6911 54.1326 37.9169C53.9846 38.0725 53.8064 38.1965 53.609 38.2812C53.4116 38.3659 53.199 38.4096 52.9842 38.4096C52.7694 38.4096 52.5568 38.3659 52.3593 38.2812C52.1619 38.1965 51.9838 38.0725 51.8357 37.9169C51.6329 37.6883 51.3662 37.5256 51.0701 37.4498V33.8438H54.8982V37.4575ZM45.7107 49.9219V47.625C45.6914 47.14 45.5554 46.6668 45.3141 46.2456C45.0729 45.8244 44.7336 45.4677 44.325 45.2056C44.2785 45.1712 44.241 45.1261 44.2157 45.0741C44.1904 45.0221 44.178 44.9648 44.1795 44.907V44.5625C44.1795 44.2579 44.0585 43.9658 43.8431 43.7504C43.6277 43.5351 43.3356 43.4141 43.031 43.4141H39.9685C39.664 43.4141 39.3719 43.5351 39.1565 43.7504C38.9411 43.9658 38.8201 44.2579 38.8201 44.5625V44.907C38.8216 44.9648 38.8092 45.0221 38.7839 45.0741C38.7586 45.1261 38.7211 45.1712 38.6746 45.2056C38.324 45.4371 38.0233 45.7366 37.7905 46.0865C37.5577 46.4363 37.3976 46.8293 37.3195 47.2422V45.642C37.5749 45.5517 37.7902 45.374 37.9273 45.1404C38.0643 44.9067 38.1144 44.6321 38.0686 44.3651C38.0228 44.0981 37.884 43.8558 37.6769 43.6812C37.4698 43.5066 37.2076 43.4108 36.9367 43.4108C36.6658 43.4108 36.4036 43.5066 36.1964 43.6812C35.9893 43.8558 35.8506 44.0981 35.8048 44.3651C35.759 44.6321 35.809 44.9067 35.9461 45.1404C36.0832 45.374 36.2984 45.5517 36.5539 45.642V47.3111C36.3311 47.391 36.1382 47.5374 36.0013 47.7305C35.8644 47.9235 35.79 48.1539 35.7882 48.3906V49.9219H33.0779V39.54C33.6863 39.904 34.4034 40.0421 35.1034 39.9301C35.8034 39.8181 36.4417 39.4631 36.906 38.9275C37.1934 39.2534 37.5469 39.5144 37.9429 39.6931C38.3389 39.8719 38.7684 39.9643 39.2029 39.9643C39.6374 39.9643 40.0669 39.8719 40.463 39.6931C40.859 39.5144 41.2124 39.2534 41.4998 38.9275C41.7872 39.2534 42.1406 39.5144 42.5366 39.6931C42.9327 39.8719 43.3622 39.9643 43.7967 39.9643C44.2312 39.9643 44.6607 39.8719 45.0567 39.6931C45.4527 39.5144 45.8062 39.2534 46.0936 38.9275C46.5579 39.4631 47.1962 39.8181 47.8962 39.9301C48.5962 40.0421 49.3133 39.904 49.9217 39.54V49.9219H45.7107ZM36.906 44.9453C36.8303 44.9453 36.7563 44.9229 36.6934 44.8808C36.6304 44.8387 36.5814 44.7789 36.5524 44.709C36.5234 44.639 36.5158 44.5621 36.5306 44.4878C36.5454 44.4136 36.5818 44.3453 36.6354 44.2918C36.6889 44.2383 36.7571 44.2018 36.8314 44.187C36.9056 44.1723 36.9826 44.1799 37.0525 44.2088C37.1225 44.2378 37.1823 44.2869 37.2243 44.3498C37.2664 44.4128 37.2889 44.4868 37.2889 44.5625C37.2889 44.664 37.2485 44.7614 37.1767 44.8332C37.1049 44.905 37.0076 44.9453 36.906 44.9453ZM43.8885 45.8334C44.3883 46.1633 44.7503 46.6642 44.9068 47.2422H38.0928C38.2493 46.6642 38.6113 46.1633 39.111 45.8334C39.2589 45.7286 39.3793 45.5897 39.4619 45.4284C39.5446 45.2671 39.587 45.0883 39.5857 44.907V44.5625C39.5857 44.461 39.6261 44.3636 39.6979 44.2918C39.7697 44.22 39.867 44.1797 39.9685 44.1797H43.031C43.1326 44.1797 43.2299 44.22 43.3017 44.2918C43.3735 44.3636 43.4139 44.461 43.4139 44.5625V44.907C43.4126 45.0883 43.455 45.2671 43.5377 45.4284C43.6203 45.5897 43.7407 45.7286 43.8885 45.8334ZM38.0545 49.9219V48.0078H44.9451V49.9219H38.0545ZM36.906 48.0078H37.2889V49.9219H36.5232V48.3906C36.5232 48.2891 36.5636 48.1917 36.6354 48.1199C36.7072 48.0481 36.8045 48.0078 36.906 48.0078ZM28.867 37.9169C28.6631 37.6911 28.3965 37.5312 28.1014 37.4575V33.8438H31.9295V37.4498C31.6334 37.5256 31.3667 37.6883 31.1639 37.9169C31.0158 38.0725 30.8377 38.1965 30.6403 38.2812C30.4428 38.3659 30.2302 38.4096 30.0154 38.4096C29.8006 38.4096 29.588 38.3659 29.3906 38.2812C29.1932 38.1965 29.015 38.0725 28.867 37.9169ZM34.5632 27.7188L32.2664 32.3125H28.7675L32.2128 27.7188H34.5632ZM47.5789 27.7188L49.8757 32.3125H46.3003L45.1518 27.7188H47.5789ZM50.3045 37.4498C50.0084 37.5256 49.7417 37.6883 49.5389 37.9169C49.3908 38.0725 49.2127 38.1965 49.0153 38.2812C48.8178 38.3659 48.6052 38.4096 48.3904 38.4096C48.1756 38.4096 47.963 38.3659 47.7656 38.2812C47.5682 38.1965 47.39 38.0725 47.242 37.9169C47.0381 37.6941 46.7709 37.5391 46.4764 37.4728V33.8438H50.3045V37.4498ZM32.6951 37.4498V33.8438H36.5232V37.4728C36.2287 37.5391 35.9615 37.6941 35.7576 37.9169C35.6096 38.0725 35.4314 38.1965 35.234 38.2812C35.0366 38.3659 34.824 38.4096 34.6092 38.4096C34.3944 38.4096 34.1818 38.3659 33.9843 38.2812C33.7869 38.1965 33.6088 38.0725 33.4607 37.9169C33.2569 37.6941 32.9897 37.5391 32.6951 37.4728V37.4498ZM37.2889 33.8208H41.117V37.4498C40.8224 37.5162 40.5552 37.6711 40.3514 37.8939C40.2033 38.0496 40.0252 38.1735 39.8278 38.2582C39.6303 38.3429 39.4177 38.3866 39.2029 38.3866C38.9881 38.3866 38.7755 38.3429 38.5781 38.2582C38.3807 38.1735 38.2025 38.0496 38.0545 37.8939C37.8506 37.6711 37.5834 37.5162 37.2889 37.4498V33.8208ZM41.8826 33.8208H45.7107V37.4498C45.4162 37.5162 45.149 37.6711 44.9451 37.8939C44.7971 38.0496 44.6189 38.1735 44.4215 38.2582C44.2241 38.3429 44.0115 38.3866 43.7967 38.3866C43.5819 38.3866 43.3693 38.3429 43.1718 38.2582C42.9744 38.1735 42.7963 38.0496 42.6482 37.8939C42.4444 37.6711 42.1772 37.5162 41.8826 37.4498V33.8208ZM44.3556 27.6958L45.504 32.2895H41.8826V27.7188L44.3556 27.6958ZM41.117 32.3125H37.4956L38.644 27.7188H41.117V32.3125ZM36.6993 32.3125H33.1239L35.4207 27.7188H37.8478L36.6993 32.3125ZM50.7332 32.3125L48.4364 27.7188H50.7868L54.2321 32.3125H50.7332ZM30.0154 26.1875V21.2109H32.3123C32.7062 21.221 33.0928 21.319 33.4438 21.4979C33.7949 21.6767 34.1015 21.9318 34.3412 22.2445C34.6477 22.6327 35.0371 22.9476 35.4808 23.1661C35.9245 23.3847 36.4115 23.5014 36.906 23.5078H46.0936C46.5881 23.5014 47.0751 23.3847 47.5188 23.1661C47.9625 22.9476 48.3519 22.6327 48.6584 22.2445C48.8981 21.9318 49.2047 21.6767 49.5558 21.4979C49.9068 21.319 50.2934 21.221 50.6873 21.2109H52.9842V26.1875H30.0154ZM32.3123 18.5312H50.6873C51.2356 18.5236 51.7686 18.7123 52.1898 19.0634C52.6111 19.4144 52.8928 19.9046 52.9842 20.4453H50.6873C50.1927 20.4517 49.7058 20.5684 49.2621 20.787C48.8183 21.0055 48.429 21.3204 48.1225 21.7086C47.8828 22.0213 47.5762 22.2764 47.2251 22.4552C46.874 22.6341 46.4874 22.7321 46.0936 22.7422H36.906C36.5122 22.7321 36.1256 22.6341 35.7745 22.4552C35.4234 22.2764 35.1168 22.0213 34.8771 21.7086C34.5706 21.3204 34.1813 21.0055 33.7375 20.787C33.2938 20.5684 32.8069 20.4517 32.3123 20.4453H30.0537C30.144 19.9111 30.4202 19.4261 30.8335 19.0758C31.2468 18.7256 31.7706 18.5327 32.3123 18.5312ZM29.5637 27.7188H31.2634L27.8181 32.3125H24.97L29.5637 27.7188ZM25.3375 38.4375C24.9322 38.3917 24.5588 38.1957 24.2909 37.8881C24.0231 37.5806 23.8802 37.1838 23.8904 36.7761V33.8438H27.3357V37.4575C27.0387 37.5354 26.772 37.7008 26.5701 37.9322C26.416 38.1038 26.2251 38.2384 26.0116 38.3259C25.7982 38.4134 25.5677 38.4516 25.3375 38.4375ZM30.0154 39.9688C30.2109 39.9677 30.4059 39.9472 30.5973 39.9075H30.7121C30.8954 39.8639 31.0747 39.805 31.2481 39.7314L31.3246 39.6855C31.4022 39.6575 31.4766 39.6216 31.5467 39.5783V49.9219H30.0154V39.9688ZM54.5154 64.4688H51.8357V57.5781C51.8357 57.4766 51.7954 57.3792 51.7236 57.3074C51.6518 57.2356 51.5545 57.1953 51.4529 57.1953C51.3514 57.1953 51.254 57.2356 51.1822 57.3074C51.1104 57.3792 51.0701 57.4766 51.0701 57.5781V64.4688H31.9295V62.1719C31.9295 62.0703 31.8892 61.973 31.8174 61.9012C31.7456 61.8294 31.6482 61.7891 31.5467 61.7891C31.4451 61.7891 31.3478 61.8294 31.276 61.9012C31.2042 61.973 31.1639 62.0703 31.1639 62.1719V64.4688H28.4842V51.4531H31.1639V59.875C31.1639 59.9765 31.2042 60.0739 31.276 60.1457C31.3478 60.2175 31.4451 60.2578 31.5467 60.2578C31.6482 60.2578 31.7456 60.2175 31.8174 60.1457C31.8892 60.0739 31.9295 59.9765 31.9295 59.875V51.4531H51.0701V55.2812C51.0701 55.3828 51.1104 55.4801 51.1822 55.5519C51.254 55.6237 51.3514 55.6641 51.4529 55.6641C51.5545 55.6641 51.6518 55.6237 51.7236 55.5519C51.7954 55.4801 51.8357 55.3828 51.8357 55.2812V51.4531H54.5154V64.4688ZM52.9842 49.9219H51.4529V39.5553C51.5204 39.5986 51.5922 39.6345 51.6673 39.6625L51.7515 39.7084C51.9249 39.782 52.1042 39.8409 52.2875 39.8845H52.4023C52.593 39.932 52.7879 39.9602 52.9842 39.9688V49.9219ZM59.1092 36.7761C59.1194 37.1838 58.9765 37.5806 58.7086 37.8881C58.4408 38.1957 58.0674 38.3917 57.6621 38.4375C57.4331 38.4504 57.2042 38.4117 56.9922 38.3242C56.7801 38.2368 56.5905 38.1028 56.4371 37.9322C56.2343 37.7036 55.9676 37.5409 55.6715 37.4652V33.8438H59.1092V36.7761ZM55.1815 32.3125L51.7362 27.7188H53.4359L58.0296 32.3125H55.1815Z" fill="#BE9CF4"/>
<path d="M46.8594 56.8124H45.1061L41.768 53.482C41.7336 53.4454 41.6921 53.4162 41.646 53.3962C41.5999 53.3763 41.5502 53.366 41.5 53.366C41.4498 53.366 41.4001 53.3763 41.354 53.3962C41.3079 53.4162 41.2664 53.4454 41.232 53.482L37.8939 56.8124H36.1406C35.7345 56.8124 35.345 56.9738 35.0579 57.2609C34.7707 57.5481 34.6094 57.9376 34.6094 58.3437V61.4062C34.6094 61.8123 34.7707 62.2018 35.0579 62.489C35.345 62.7761 35.7345 62.9374 36.1406 62.9374H46.8594C47.2655 62.9374 47.655 62.7761 47.9421 62.489C48.2293 62.2018 48.3906 61.8123 48.3906 61.4062V58.3437C48.3906 57.9376 48.2293 57.5481 47.9421 57.2609C47.655 56.9738 47.2655 56.8124 46.8594 56.8124ZM41.5 54.2935L44.0189 56.8124H38.9811L41.5 54.2935ZM36.1406 61.4062V58.3437H46.8594V61.4062H36.1406Z" fill="#BE9CF4"/>
</svg>
