<svg width="82" height="82" viewBox="0 0 82 82" fill="none" xmlns="http://www.w3.org/2000/svg">
<rect width="82" height="82" rx="9" fill="white"/>
<path d="M61 50H48V48.25C47.9989 47.3884 47.6562 46.5623 47.0469 45.9531C46.4377 45.3438 45.6116 45.0011 44.75 45H38.25C37.9185 45 37.6005 44.8683 37.3661 44.6339C37.1317 44.3995 37 44.0815 37 43.75C37 43.4185 37.1317 43.1005 37.3661 42.8661C37.6005 42.6317 37.9185 42.5 38.25 42.5H54.75C55.612 42.5 56.4386 42.1576 57.0481 41.5481C57.6576 40.9386 58 40.112 58 39.25C58 38.388 57.6576 37.5614 57.0481 36.9519C56.4386 36.3424 55.612 36 54.75 36H43V38H54.75C55.0815 38 55.3995 38.1317 55.6339 38.3661C55.8683 38.6005 56 38.9185 56 39.25C56 39.5815 55.8683 39.8995 55.6339 40.1339C55.3995 40.3683 55.0815 40.5 54.75 40.5H38.25C37.388 40.5 36.5614 40.8424 35.9519 41.4519C35.3424 42.0614 35 42.888 35 43.75C35 44.612 35.3424 45.4386 35.9519 46.0481C36.5614 46.6576 37.388 47 38.25 47H44.75C45.0815 47 45.3995 47.1317 45.6339 47.3661C45.8683 47.6005 46 47.9185 46 48.25V50H33C32.7348 50 32.4804 50.1054 32.2929 50.2929C32.1054 50.4804 32 50.7348 32 51V63C32 63.2652 32.1054 63.5196 32.2929 63.7071C32.4804 63.8946 32.7348 64 33 64H61C61.2652 64 61.5196 63.8946 61.7071 63.7071C61.8946 63.5196 62 63.2652 62 63V51C62 50.7348 61.8946 50.4804 61.7071 50.2929C61.5196 50.1054 61.2652 50 61 50ZM60 62H34V52H60V62Z" fill="#B9C11B"/>
<path d="M38 58H36V60H38V58Z" fill="#B9C11B"/>
<path d="M38 54H36V56H38V54Z" fill="#B9C11B"/>
<path d="M42 54H40V56H42V54Z" fill="#B9C11B"/>
<path d="M46 54H44V56H46V54Z" fill="#B9C11B"/>
<path d="M50 54H48V56H50V54Z" fill="#B9C11B"/>
<path d="M54 54H52V56H54V54Z" fill="#B9C11B"/>
<path d="M58 54H56V56H58V54Z" fill="#B9C11B"/>
<path d="M42 58H40V60H42V58Z" fill="#B9C11B"/>
<path d="M54 58H52V60H54V58Z" fill="#B9C11B"/>
<path d="M58 58H56V60H58V58Z" fill="#B9C11B"/>
<path d="M50 58H44V60H50V58Z" fill="#B9C11B"/>
<path d="M41 36H39V38H41V36Z" fill="#B9C11B"/>
<path d="M28.3605 30.3653C28.2093 30.5165 28.2093 30.7609 28.3605 30.9121C28.7089 31.2605 28.9011 31.7238 28.9011 32.2156C28.9011 32.7075 28.7089 33.1707 28.3605 33.5191C28.2093 33.6703 28.2093 33.9147 28.3605 34.0659C28.4359 34.1413 28.5349 34.1792 28.6339 34.1792C28.7328 34.1792 28.8318 34.1413 28.9072 34.0659C29.4018 33.5714 29.6744 32.914 29.6744 32.2156C29.6744 31.5173 29.4018 30.8599 28.9072 30.3653C28.756 30.2142 28.5117 30.2142 28.3605 30.3653Z" fill="#B9C11B"/>
<path d="M33.3887 26.6874C32.3868 26.8638 31.4297 26.1925 31.2538 25.191C31.0044 23.7699 29.6452 22.8202 28.2237 23.0658C28.0134 23.1029 27.8726 23.3032 27.9097 23.5135C27.9465 23.7235 28.146 23.8616 28.3575 23.8279C29.3598 23.6527 30.3165 24.3236 30.4924 25.3248C30.7155 26.5935 31.8226 27.4894 33.0685 27.4894C33.2182 27.4894 33.3701 27.4767 33.5225 27.4496C33.7328 27.4125 33.8736 27.2122 33.8365 27.0018C33.7993 26.7915 33.5979 26.6519 33.3887 26.6874Z" fill="#B9C11B"/>
<path d="M36.3834 26.7714C36.0842 26.3062 35.9171 25.2978 35.9542 24.6841C36.0412 23.2506 35.2795 21.8273 34.1024 21.2233C33.8754 21.1065 33.6712 21.0477 33.491 20.9959C33.1813 20.9066 33.0533 20.8694 32.9362 20.6262C32.319 19.344 31.6384 19.1638 30.3411 19.2481C30.2205 19.2504 30.0581 19.0702 29.8914 18.8923C29.6049 18.5857 29.222 18.1762 28.615 18.1066L28.4197 18.0872C27.7693 18.0872 27.1401 18.281 26.6939 18.6186C26.5678 18.7137 26.4112 18.7144 26.3045 18.6209C25.7744 18.1557 24.9751 17.8112 24.426 18.1151C23.8235 18.2338 23.4376 18.6158 23.1526 18.8981C22.9272 19.1212 22.7853 19.2632 22.6573 19.2477C21.3631 19.1646 20.6798 19.344 20.0623 20.6258C19.9455 20.8691 19.8175 20.9062 19.5078 20.9955C19.3279 21.0473 19.1238 21.1061 18.8964 21.2229C17.7193 21.8273 16.958 23.2503 17.0446 24.6837C17.0817 25.2978 16.9147 26.3058 16.6154 26.771C15.8776 27.9191 15.8776 29.5219 16.6154 30.6696C16.7294 30.8467 16.8965 31.0528 17.0898 31.2918C17.4347 31.7179 18.0124 32.4305 17.9927 32.7569C17.905 34.2016 18.7866 35.8662 19.9579 36.4675C20.1686 36.5758 20.2042 36.6852 20.2838 37.0166C20.3279 37.1999 20.3828 37.4277 20.5012 37.6728C20.8194 38.3344 21.3186 38.5239 21.6829 38.6631C22.0448 38.8004 22.1944 38.8576 22.2494 39.2544C22.3766 40.1758 22.8696 40.7972 23.6016 40.9593C23.7242 40.9859 23.8506 40.9995 23.9786 40.9995C24.803 40.9995 25.7024 40.4523 26.272 39.5683C26.3405 39.4624 26.4542 39.4504 26.4994 39.4504C26.5446 39.4504 26.6583 39.462 26.7268 39.5683C27.3849 40.5896 28.4831 41.1592 29.3972 40.9596C30.1296 40.7976 30.6222 40.1762 30.7495 39.2547C30.8044 38.858 30.954 38.8008 31.3159 38.6635C31.6802 38.5247 32.1794 38.3348 32.498 37.6732C32.616 37.428 32.6709 37.1999 32.715 37.017C32.795 36.686 32.8302 36.5762 33.0409 36.4679C34.2118 35.8666 35.0935 34.2023 35.0061 32.7573C34.9864 32.4309 35.5641 31.7179 35.909 31.2921C36.1023 31.0532 36.2694 30.8471 36.3834 30.67C37.1212 29.5223 37.1212 27.9195 36.3834 26.7714ZM35.7327 30.2516C35.6418 30.3931 35.4798 30.5934 35.3081 30.8053C35.1259 31.03 34.9369 31.2651 34.7679 31.5025C34.3004 30.3861 33.1972 29.5996 31.9134 29.5996C30.6338 29.5996 29.5933 28.5591 29.5933 27.2795C29.5933 27.0657 29.42 26.8928 29.2066 26.8928C28.9931 26.8928 28.8199 27.0657 28.8199 27.2795C28.8199 28.9852 30.2077 30.373 31.9134 30.373C33.1929 30.373 34.2335 31.4136 34.2335 32.6931C34.2335 32.7028 34.2385 32.7113 34.2389 32.7209C34.2381 32.7488 34.2323 32.777 34.2339 32.8045C34.3019 33.9316 33.5796 35.3226 32.6875 35.78C32.6082 35.8206 32.541 35.8651 32.4795 35.9115C32.0719 34.9316 31.1052 34.2402 29.9796 34.2402C29.7661 34.2402 29.5929 34.4131 29.5929 34.6269C29.5929 34.8407 29.7661 35.0136 29.9796 35.0136C31.0457 35.0136 31.913 35.8809 31.913 36.947C31.913 36.9629 31.9203 36.9764 31.9219 36.9919C31.8917 37.1059 31.8569 37.2212 31.8005 37.3383C31.6156 37.7219 31.362 37.8186 31.0406 37.9412C30.6439 38.092 30.1002 38.2989 29.983 39.1496C29.9254 39.568 29.7479 40.0908 29.2302 40.2048C28.6351 40.3367 27.8555 39.8928 27.3768 39.1496C27.1862 38.8541 26.8582 38.6774 26.4994 38.6774C26.4143 38.6774 26.3312 38.689 26.2508 38.708C26.2075 38.6913 26.1614 38.6801 26.1127 38.6801C25.9182 38.6801 25.7643 38.8259 25.7369 39.0127C25.6963 39.0564 25.6545 39.0985 25.6216 39.1492C25.5493 39.2617 25.4681 39.3646 25.3838 39.4624C25.3683 39.4605 25.3552 39.4535 25.3393 39.4535C25.1259 39.4535 24.9527 39.6267 24.9527 39.8402C24.9527 39.8475 24.9565 39.8537 24.9569 39.8611C24.5969 40.1252 24.2037 40.2563 23.8587 40.2133C24.0393 40.1809 24.1793 40.0301 24.1793 39.8402C24.1793 39.6267 24.0061 39.4535 23.7926 39.4535C23.5792 39.4535 23.4059 39.6267 23.4059 39.8402C23.4059 39.9361 23.4446 40.0212 23.5026 40.0888C23.2772 39.9411 23.1476 39.6952 23.0769 39.4419C23.2621 39.4133 23.4063 39.2602 23.4063 39.0668C23.4063 38.8534 23.2331 38.6801 23.0196 38.6801C22.974 38.6801 22.9315 38.6917 22.8909 38.706C22.8201 38.5456 22.7304 38.4187 22.6275 38.3197C22.6283 38.3105 22.6329 38.3027 22.6329 38.2934C22.6329 38.08 22.4597 37.9068 22.2463 37.9068C22.1697 37.9068 22.102 37.935 22.0421 37.9733C22.0139 37.9624 21.9852 37.9508 21.9586 37.9408C21.8634 37.9044 21.7753 37.87 21.6921 37.8302C21.7911 37.7602 21.8596 37.6504 21.8596 37.5201C21.8596 37.3066 21.6863 37.1334 21.4729 37.1334C21.3515 37.1334 21.2475 37.1929 21.1767 37.2807C21.1117 37.1295 21.0711 36.9803 21.0363 36.8356C20.9482 36.4702 20.848 36.0553 20.3117 35.7804C19.7158 35.4745 19.2019 34.7514 18.9424 33.9695C19.0039 34.0105 19.0735 34.0403 19.1528 34.0403C19.3662 34.0403 19.5395 33.8671 19.5395 33.6536C19.5395 33.4402 19.3662 33.2669 19.1528 33.2669C19.0055 33.2669 18.8821 33.352 18.8168 33.473C18.7762 33.2464 18.7526 33.0202 18.7653 32.8045C18.7858 32.463 18.6176 32.0914 18.3779 31.7198C18.3779 31.7198 18.3786 31.7202 18.3794 31.7202C18.5929 31.7202 18.7661 31.547 18.7661 31.3335C18.7661 31.1201 18.5929 30.9468 18.3794 30.9468C18.2081 30.9468 18.0674 31.0601 18.0167 31.2144C17.9359 31.11 17.8539 31.0072 17.7723 30.9058C17.9019 30.8432 17.9927 30.7133 17.9927 30.5601C17.9927 30.3467 17.8195 30.1735 17.606 30.1735C17.4858 30.1735 17.3829 30.2315 17.3122 30.3173C17.2967 30.2953 17.2797 30.2717 17.2669 30.252C16.6873 29.351 16.6873 28.0916 17.2669 27.1902C17.6702 26.563 17.8636 25.3998 17.8172 24.6373C17.7495 23.5186 18.352 22.3725 19.2502 21.9112C19.4049 21.8319 19.5576 21.787 19.7054 21.7441C19.6075 21.8145 19.5395 21.9235 19.5395 22.0531C19.5395 22.2665 19.7127 22.4398 19.9262 22.4398C20.1396 22.4398 20.3128 22.2665 20.3128 22.0531C20.3128 21.8458 20.1489 21.6799 19.9439 21.6699C20.0855 21.6215 20.2278 21.5577 20.3619 21.458C20.4269 21.5802 20.5514 21.6664 20.6995 21.6664C20.913 21.6664 21.0862 21.4932 21.0862 21.2797C21.0862 21.0968 20.9567 20.9506 20.7861 20.9104C20.8956 20.6889 21 20.5199 21.1098 20.3896C21.0978 20.4267 21.0862 20.4646 21.0862 20.506C21.0862 20.7194 21.2594 20.8926 21.4729 20.8926C21.6863 20.8926 21.8596 20.7194 21.8596 20.506C21.8596 20.2925 21.6863 20.1193 21.4729 20.1193C21.459 20.1193 21.447 20.1258 21.4334 20.1274C21.5827 20.0535 21.7579 20.0176 21.9736 20.0067C22.0436 20.0764 22.1399 20.1193 22.2463 20.1193C22.348 20.1193 22.4388 20.0783 22.5077 20.0141C22.5413 20.016 22.5722 20.0172 22.6078 20.0195C22.9361 20.04 23.1905 19.8962 23.4102 19.7136C23.4098 19.7202 23.4063 19.726 23.4063 19.7326C23.4063 19.946 23.5795 20.1193 23.793 20.1193C24.0064 20.1193 24.1797 19.946 24.1797 19.7326C24.1797 19.5218 24.0107 19.3521 23.8007 19.3475C23.9245 19.2272 24.0528 19.1185 24.1944 19.0315C24.2292 19.209 24.3784 19.3459 24.5664 19.3459C24.7798 19.3459 24.953 19.1727 24.953 18.9592C24.953 18.89 24.9298 18.8281 24.8978 18.7721C25.0907 18.7697 25.4642 18.9117 25.7949 19.2021C26.1792 19.5389 26.7411 19.5524 27.1606 19.2353C27.4344 19.0281 27.8335 18.8946 28.2519 18.866L28.4328 18.8695C28.7859 18.8695 29.0059 19.0775 29.3265 19.4205C29.6025 19.7156 29.9189 20.0419 30.391 20.0199C31.4706 19.9515 31.7927 20.0338 32.2393 20.9619C32.2687 21.0233 32.3008 21.0775 32.3337 21.1289C31.4358 21.2956 30.7529 22.0813 30.7529 23.0268C30.7529 23.2406 30.9262 23.4134 31.1396 23.4134C31.3531 23.4134 31.5263 23.2406 31.5263 23.0268C31.5263 22.3872 32.0468 21.8667 32.6864 21.8667C32.8341 21.8667 32.9578 21.7812 33.0232 21.6594C33.1086 21.69 33.1941 21.7151 33.2764 21.7391C33.4296 21.7836 33.5885 21.8292 33.749 21.9116C34.6468 22.3725 35.2497 23.519 35.182 24.6377C35.1356 25.4002 35.329 26.563 35.7323 27.1906C36.3123 28.0912 36.3123 29.3506 35.7327 30.2516Z" fill="#B9C11B"/>
<path d="M23.7929 38.6801C24.0065 38.6801 24.1796 38.507 24.1796 38.2934C24.1796 38.0799 24.0065 37.9067 23.7929 37.9067C23.5794 37.9067 23.4062 38.0799 23.4062 38.2934C23.4062 38.507 23.5794 38.6801 23.7929 38.6801Z" fill="#B9C11B"/>
<path d="M25.3398 38.6801C25.5534 38.6801 25.7265 38.507 25.7265 38.2934C25.7265 38.0799 25.5534 37.9067 25.3398 37.9067C25.1262 37.9067 24.9531 38.0799 24.9531 38.2934C24.9531 38.507 25.1262 38.6801 25.3398 38.6801Z" fill="#B9C11B"/>
<path d="M24.5664 37.9067C24.7799 37.9067 24.9531 37.7335 24.9531 37.52C24.9531 37.3064 24.7799 37.1333 24.5664 37.1333C24.3528 37.1333 24.1797 37.3064 24.1797 37.52C24.1797 37.7335 24.3528 37.9067 24.5664 37.9067Z" fill="#B9C11B"/>
<path d="M23.0195 37.9067C23.2331 37.9067 23.4062 37.7335 23.4062 37.52C23.4062 37.3064 23.2331 37.1333 23.0195 37.1333C22.8059 37.1333 22.6328 37.3064 22.6328 37.52C22.6328 37.7335 22.8059 37.9067 23.0195 37.9067Z" fill="#B9C11B"/>
<path d="M26.1132 37.9067C26.3268 37.9067 26.4999 37.7335 26.4999 37.52C26.4999 37.3064 26.3268 37.1333 26.1132 37.1333C25.8997 37.1333 25.7266 37.3064 25.7266 37.52C25.7266 37.7335 25.8997 37.9067 26.1132 37.9067Z" fill="#B9C11B"/>
<path d="M23.0195 36.36C23.2331 36.36 23.4062 36.1869 23.4062 35.9734C23.4062 35.7598 23.2331 35.5867 23.0195 35.5867C22.8059 35.5867 22.6328 35.7598 22.6328 35.9734C22.6328 36.1869 22.8059 36.36 23.0195 36.36Z" fill="#B9C11B"/>
<path d="M26.1132 36.36C26.3268 36.36 26.4999 36.1869 26.4999 35.9734C26.4999 35.7598 26.3268 35.5867 26.1132 35.5867C25.8997 35.5867 25.7266 35.7598 25.7266 35.9734C25.7266 36.1869 25.8997 36.36 26.1132 36.36Z" fill="#B9C11B"/>
<path d="M25.3398 35.5866C25.5534 35.5866 25.7265 35.4135 25.7265 35.1999C25.7265 34.9864 25.5534 34.8132 25.3398 34.8132C25.1262 34.8132 24.9531 34.9864 24.9531 35.1999C24.9531 35.4135 25.1262 35.5866 25.3398 35.5866Z" fill="#B9C11B"/>
<path d="M24.5664 34.8134C24.7799 34.8134 24.9531 34.6403 24.9531 34.4267C24.9531 34.2132 24.7799 34.04 24.5664 34.04C24.3528 34.04 24.1797 34.2132 24.1797 34.4267C24.1797 34.6403 24.3528 34.8134 24.5664 34.8134Z" fill="#B9C11B"/>
<path d="M23.0195 34.8134C23.2331 34.8134 23.4062 34.6403 23.4062 34.4267C23.4062 34.2132 23.2331 34.04 23.0195 34.04C22.8059 34.04 22.6328 34.2132 22.6328 34.4267C22.6328 34.6403 22.8059 34.8134 23.0195 34.8134Z" fill="#B9C11B"/>
<path d="M26.1132 34.8134C26.3268 34.8134 26.4999 34.6403 26.4999 34.4267C26.4999 34.2132 26.3268 34.04 26.1132 34.04C25.8997 34.04 25.7266 34.2132 25.7266 34.4267C25.7266 34.6403 25.8997 34.8134 26.1132 34.8134Z" fill="#B9C11B"/>
<path d="M23.7929 34.04C24.0065 34.04 24.1796 33.8668 24.1796 33.6533C24.1796 33.4397 24.0065 33.2666 23.7929 33.2666C23.5794 33.2666 23.4062 33.4397 23.4062 33.6533C23.4062 33.8668 23.5794 34.04 23.7929 34.04Z" fill="#B9C11B"/>
<path d="M26.1132 33.2665C26.3268 33.2665 26.4999 33.0934 26.4999 32.8798C26.4999 32.6663 26.3268 32.4932 26.1132 32.4932C25.8997 32.4932 25.7266 32.6663 25.7266 32.8798C25.7266 33.0934 25.8997 33.2665 26.1132 33.2665Z" fill="#B9C11B"/>
<path d="M23.7929 32.4931C24.0065 32.4931 24.1796 32.32 24.1796 32.1064C24.1796 31.8929 24.0065 31.7197 23.7929 31.7197C23.5794 31.7197 23.4062 31.8929 23.4062 32.1064C23.4062 32.32 23.5794 32.4931 23.7929 32.4931Z" fill="#B9C11B"/>
<path d="M25.3398 32.4931C25.5534 32.4931 25.7265 32.32 25.7265 32.1064C25.7265 31.8929 25.5534 31.7197 25.3398 31.7197C25.1262 31.7197 24.9531 31.8929 24.9531 32.1064C24.9531 32.32 25.1262 32.4931 25.3398 32.4931Z" fill="#B9C11B"/>
<path d="M26.1132 31.7197C26.3268 31.7197 26.4999 31.5465 26.4999 31.333C26.4999 31.1194 26.3268 30.9463 26.1132 30.9463C25.8997 30.9463 25.7266 31.1194 25.7266 31.333C25.7266 31.5465 25.8997 31.7197 26.1132 31.7197Z" fill="#B9C11B"/>
<path d="M25.3398 30.9465C25.5534 30.9465 25.7265 30.7733 25.7265 30.5598C25.7265 30.3462 25.5534 30.1731 25.3398 30.1731C25.1262 30.1731 24.9531 30.3462 24.9531 30.5598C24.9531 30.7733 25.1262 30.9465 25.3398 30.9465Z" fill="#B9C11B"/>
<path d="M24.5664 30.173C24.7799 30.173 24.9531 29.9999 24.9531 29.7863C24.9531 29.5728 24.7799 29.3997 24.5664 29.3997C24.3528 29.3997 24.1797 29.5728 24.1797 29.7863C24.1797 29.9999 24.3528 30.173 24.5664 30.173Z" fill="#B9C11B"/>
<path d="M23.0195 30.173C23.2331 30.173 23.4062 29.9999 23.4062 29.7863C23.4062 29.5728 23.2331 29.3997 23.0195 29.3997C22.8059 29.3997 22.6328 29.5728 22.6328 29.7863C22.6328 29.9999 22.8059 30.173 23.0195 30.173Z" fill="#B9C11B"/>
<path d="M26.1132 30.173C26.3268 30.173 26.4999 29.9999 26.4999 29.7863C26.4999 29.5728 26.3268 29.3997 26.1132 29.3997C25.8997 29.3997 25.7266 29.5728 25.7266 29.7863C25.7266 29.9999 25.8997 30.173 26.1132 30.173Z" fill="#B9C11B"/>
<path d="M23.7929 29.3998C24.0065 29.3998 24.1796 29.2267 24.1796 29.0131C24.1796 28.7996 24.0065 28.6265 23.7929 28.6265C23.5794 28.6265 23.4062 28.7996 23.4062 29.0131C23.4062 29.2267 23.5794 29.3998 23.7929 29.3998Z" fill="#B9C11B"/>
<path d="M24.5664 28.6264C24.7799 28.6264 24.9531 28.4533 24.9531 28.2397C24.9531 28.0262 24.7799 27.853 24.5664 27.853C24.3528 27.853 24.1797 28.0262 24.1797 28.2397C24.1797 28.4533 24.3528 28.6264 24.5664 28.6264Z" fill="#B9C11B"/>
<path d="M23.0195 28.6264C23.2331 28.6264 23.4062 28.4533 23.4062 28.2397C23.4062 28.0262 23.2331 27.853 23.0195 27.853C22.8059 27.853 22.6328 28.0262 22.6328 28.2397C22.6328 28.4533 22.8059 28.6264 23.0195 28.6264Z" fill="#B9C11B"/>
<path d="M26.1132 28.6264C26.3268 28.6264 26.4999 28.4533 26.4999 28.2397C26.4999 28.0262 26.3268 27.853 26.1132 27.853C25.8997 27.853 25.7266 28.0262 25.7266 28.2397C25.7266 28.4533 25.8997 28.6264 26.1132 28.6264Z" fill="#B9C11B"/>
<path d="M25.3398 27.853C25.5534 27.853 25.7265 27.6798 25.7265 27.4663C25.7265 27.2527 25.5534 27.0796 25.3398 27.0796C25.1262 27.0796 24.9531 27.2527 24.9531 27.4663C24.9531 27.6798 25.1262 27.853 25.3398 27.853Z" fill="#B9C11B"/>
<path d="M24.5664 27.0795C24.7799 27.0795 24.9531 26.9064 24.9531 26.6928C24.9531 26.4793 24.7799 26.3062 24.5664 26.3062C24.3528 26.3062 24.1797 26.4793 24.1797 26.6928C24.1797 26.9064 24.3528 27.0795 24.5664 27.0795Z" fill="#B9C11B"/>
<path d="M23.7929 26.3061C24.0065 26.3061 24.1796 26.133 24.1796 25.9194C24.1796 25.7058 24.0065 25.5327 23.7929 25.5327C23.5794 25.5327 23.4062 25.7058 23.4062 25.9194C23.4062 26.133 23.5794 26.3061 23.7929 26.3061Z" fill="#B9C11B"/>
<path d="M25.3398 26.3061C25.5534 26.3061 25.7265 26.133 25.7265 25.9194C25.7265 25.7058 25.5534 25.5327 25.3398 25.5327C25.1262 25.5327 24.9531 25.7058 24.9531 25.9194C24.9531 26.133 25.1262 26.3061 25.3398 26.3061Z" fill="#B9C11B"/>
<path d="M26.1132 25.5329C26.3268 25.5329 26.4999 25.3598 26.4999 25.1462C26.4999 24.9326 26.3268 24.7595 26.1132 24.7595C25.8997 24.7595 25.7266 24.9326 25.7266 25.1462C25.7266 25.3598 25.8997 25.5329 26.1132 25.5329Z" fill="#B9C11B"/>
<path d="M23.7929 24.7595C24.0065 24.7595 24.1796 24.5863 24.1796 24.3728C24.1796 24.1592 24.0065 23.9861 23.7929 23.9861C23.5794 23.9861 23.4062 24.1592 23.4062 24.3728C23.4062 24.5863 23.5794 24.7595 23.7929 24.7595Z" fill="#B9C11B"/>
<path d="M25.3398 24.7595C25.5534 24.7595 25.7265 24.5863 25.7265 24.3728C25.7265 24.1592 25.5534 23.9861 25.3398 23.9861C25.1262 23.9861 24.9531 24.1592 24.9531 24.3728C24.9531 24.5863 25.1262 24.7595 25.3398 24.7595Z" fill="#B9C11B"/>
<path d="M24.5664 23.9863C24.7799 23.9863 24.9531 23.8131 24.9531 23.5996C24.9531 23.386 24.7799 23.2129 24.5664 23.2129C24.3528 23.2129 24.1797 23.386 24.1797 23.5996C24.1797 23.8131 24.3528 23.9863 24.5664 23.9863Z" fill="#B9C11B"/>
<path d="M23.0195 23.9863C23.2331 23.9863 23.4062 23.8131 23.4062 23.5996C23.4062 23.386 23.2331 23.2129 23.0195 23.2129C22.8059 23.2129 22.6328 23.386 22.6328 23.5996C22.6328 23.8131 22.8059 23.9863 23.0195 23.9863Z" fill="#B9C11B"/>
<path d="M23.7929 23.2128C24.0065 23.2128 24.1796 23.0397 24.1796 22.8261C24.1796 22.6126 24.0065 22.4395 23.7929 22.4395C23.5794 22.4395 23.4062 22.6126 23.4062 22.8261C23.4062 23.0397 23.5794 23.2128 23.7929 23.2128Z" fill="#B9C11B"/>
<path d="M25.3398 23.2128C25.5534 23.2128 25.7265 23.0397 25.7265 22.8261C25.7265 22.6126 25.5534 22.4395 25.3398 22.4395C25.1262 22.4395 24.9531 22.6126 24.9531 22.8261C24.9531 23.0397 25.1262 23.2128 25.3398 23.2128Z" fill="#B9C11B"/>
<path d="M26.1132 22.4394C26.3268 22.4394 26.4999 22.2663 26.4999 22.0527C26.4999 21.8391 26.3268 21.666 26.1132 21.666C25.8997 21.666 25.7266 21.8391 25.7266 22.0527C25.7266 22.2663 25.8997 22.4394 26.1132 22.4394Z" fill="#B9C11B"/>
<path d="M23.7929 21.6659C24.0065 21.6659 24.1796 21.4928 24.1796 21.2793C24.1796 21.0657 24.0065 20.8926 23.7929 20.8926C23.5794 20.8926 23.4062 21.0657 23.4062 21.2793C23.4062 21.4928 23.5794 21.6659 23.7929 21.6659Z" fill="#B9C11B"/>
<path d="M23.0195 20.8925C23.2331 20.8925 23.4062 20.7194 23.4062 20.5058C23.4062 20.2923 23.2331 20.1191 23.0195 20.1191C22.8059 20.1191 22.6328 20.2923 22.6328 20.5058C22.6328 20.7194 22.8059 20.8925 23.0195 20.8925Z" fill="#B9C11B"/>
<path d="M26.1132 20.8925C26.3268 20.8925 26.4999 20.7194 26.4999 20.5058C26.4999 20.2923 26.3268 20.1191 26.1132 20.1191C25.8997 20.1191 25.7266 20.2923 25.7266 20.5058C25.7266 20.7194 25.8997 20.8925 26.1132 20.8925Z" fill="#B9C11B"/>
<path d="M25.3398 20.1193C25.5534 20.1193 25.7265 19.9462 25.7265 19.7326C25.7265 19.5191 25.5534 19.3459 25.3398 19.3459C25.1262 19.3459 24.9531 19.5191 24.9531 19.7326C24.9531 19.9462 25.1262 20.1193 25.3398 20.1193Z" fill="#B9C11B"/>
<path d="M22.2461 37.1332C22.4596 37.1332 22.6327 36.9601 22.6327 36.7465C22.6327 36.533 22.4596 36.3599 22.2461 36.3599C22.0325 36.3599 21.8594 36.533 21.8594 36.7465C21.8594 36.9601 22.0325 37.1332 22.2461 37.1332Z" fill="#B9C11B"/>
<path d="M21.4726 36.36C21.6862 36.36 21.8593 36.1869 21.8593 35.9734C21.8593 35.7598 21.6862 35.5867 21.4726 35.5867C21.2591 35.5867 21.0859 35.7598 21.0859 35.9734C21.0859 36.1869 21.2591 36.36 21.4726 36.36Z" fill="#B9C11B"/>
<path d="M20.6992 35.5866C20.9127 35.5866 21.0859 35.4135 21.0859 35.1999C21.0859 34.9864 20.9127 34.8132 20.6992 34.8132C20.4856 34.8132 20.3125 34.9864 20.3125 35.1999C20.3125 35.4135 20.4856 35.5866 20.6992 35.5866Z" fill="#B9C11B"/>
<path d="M19.9262 34.8134C20.1398 34.8134 20.3129 34.6403 20.3129 34.4267C20.3129 34.2132 20.1398 34.04 19.9262 34.04C19.7127 34.04 19.5396 34.2132 19.5396 34.4267C19.5396 34.6403 19.7127 34.8134 19.9262 34.8134Z" fill="#B9C11B"/>
<path d="M21.4726 34.8134C21.6862 34.8134 21.8593 34.6403 21.8593 34.4267C21.8593 34.2132 21.6862 34.04 21.4726 34.04C21.2591 34.04 21.0859 34.2132 21.0859 34.4267C21.0859 34.6403 21.2591 34.8134 21.4726 34.8134Z" fill="#B9C11B"/>
<path d="M20.6992 34.04C20.9127 34.04 21.0859 33.8668 21.0859 33.6533C21.0859 33.4397 20.9127 33.2666 20.6992 33.2666C20.4856 33.2666 20.3125 33.4397 20.3125 33.6533C20.3125 33.8668 20.4856 34.04 20.6992 34.04Z" fill="#B9C11B"/>
<path d="M19.9262 33.2665C20.1398 33.2665 20.3129 33.0934 20.3129 32.8798C20.3129 32.6663 20.1398 32.4932 19.9262 32.4932C19.7127 32.4932 19.5396 32.6663 19.5396 32.8798C19.5396 33.0934 19.7127 33.2665 19.9262 33.2665Z" fill="#B9C11B"/>
<path d="M20.6992 32.4931C20.9127 32.4931 21.0859 32.32 21.0859 32.1064C21.0859 31.8929 20.9127 31.7197 20.6992 31.7197C20.4856 31.7197 20.3125 31.8929 20.3125 32.1064C20.3125 32.32 20.4856 32.4931 20.6992 32.4931Z" fill="#B9C11B"/>
<path d="M19.1528 32.4931C19.3664 32.4931 19.5395 32.32 19.5395 32.1064C19.5395 31.8929 19.3664 31.7197 19.1528 31.7197C18.9392 31.7197 18.7661 31.8929 18.7661 32.1064C18.7661 32.32 18.9392 32.4931 19.1528 32.4931Z" fill="#B9C11B"/>
<path d="M22.2461 32.4931C22.4596 32.4931 22.6327 32.32 22.6327 32.1064C22.6327 31.8929 22.4596 31.7197 22.2461 31.7197C22.0325 31.7197 21.8594 31.8929 21.8594 32.1064C21.8594 32.32 22.0325 32.4931 22.2461 32.4931Z" fill="#B9C11B"/>
<path d="M20.6992 30.9465C20.9127 30.9465 21.0859 30.7733 21.0859 30.5598C21.0859 30.3462 20.9127 30.1731 20.6992 30.1731C20.4856 30.1731 20.3125 30.3462 20.3125 30.5598C20.3125 30.7733 20.4856 30.9465 20.6992 30.9465Z" fill="#B9C11B"/>
<path d="M19.1528 30.9465C19.3664 30.9465 19.5395 30.7733 19.5395 30.5598C19.5395 30.3462 19.3664 30.1731 19.1528 30.1731C18.9392 30.1731 18.7661 30.3462 18.7661 30.5598C18.7661 30.7733 18.9392 30.9465 19.1528 30.9465Z" fill="#B9C11B"/>
<path d="M22.2461 30.9465C22.4596 30.9465 22.6327 30.7733 22.6327 30.5598C22.6327 30.3462 22.4596 30.1731 22.2461 30.1731C22.0325 30.1731 21.8594 30.3462 21.8594 30.5598C21.8594 30.7733 22.0325 30.9465 22.2461 30.9465Z" fill="#B9C11B"/>
<path d="M20.6992 29.3998C20.9127 29.3998 21.0859 29.2267 21.0859 29.0131C21.0859 28.7996 20.9127 28.6265 20.6992 28.6265C20.4856 28.6265 20.3125 28.7996 20.3125 29.0131C20.3125 29.2267 20.4856 29.3998 20.6992 29.3998Z" fill="#B9C11B"/>
<path d="M19.1528 29.3998C19.3664 29.3998 19.5395 29.2267 19.5395 29.0131C19.5395 28.7996 19.3664 28.6265 19.1528 28.6265C18.9392 28.6265 18.7661 28.7996 18.7661 29.0131C18.7661 29.2267 18.9392 29.3998 19.1528 29.3998Z" fill="#B9C11B"/>
<path d="M21.4726 28.6264C21.6862 28.6264 21.8593 28.4533 21.8593 28.2397C21.8593 28.0262 21.6862 27.853 21.4726 27.853C21.2591 27.853 21.0859 28.0262 21.0859 28.2397C21.0859 28.4533 21.2591 28.6264 21.4726 28.6264Z" fill="#B9C11B"/>
<path d="M20.6992 27.853C20.9127 27.853 21.0859 27.6798 21.0859 27.4663C21.0859 27.2527 20.9127 27.0796 20.6992 27.0796C20.4856 27.0796 20.3125 27.2527 20.3125 27.4663C20.3125 27.6798 20.4856 27.853 20.6992 27.853Z" fill="#B9C11B"/>
<path d="M19.9262 27.0795C20.1398 27.0795 20.3129 26.9064 20.3129 26.6928C20.3129 26.4793 20.1398 26.3062 19.9262 26.3062C19.7127 26.3062 19.5396 26.4793 19.5396 26.6928C19.5396 26.9064 19.7127 27.0795 19.9262 27.0795Z" fill="#B9C11B"/>
<path d="M21.4726 27.0795C21.6862 27.0795 21.8593 26.9064 21.8593 26.6928C21.8593 26.4793 21.6862 26.3062 21.4726 26.3062C21.2591 26.3062 21.0859 26.4793 21.0859 26.6928C21.0859 26.9064 21.2591 27.0795 21.4726 27.0795Z" fill="#B9C11B"/>
<path d="M20.6992 26.3061C20.9127 26.3061 21.0859 26.133 21.0859 25.9194C21.0859 25.7058 20.9127 25.5327 20.6992 25.5327C20.4856 25.5327 20.3125 25.7058 20.3125 25.9194C20.3125 26.133 20.4856 26.3061 20.6992 26.3061Z" fill="#B9C11B"/>
<path d="M22.2461 26.3061C22.4596 26.3061 22.6327 26.133 22.6327 25.9194C22.6327 25.7058 22.4596 25.5327 22.2461 25.5327C22.0325 25.5327 21.8594 25.7058 21.8594 25.9194C21.8594 26.133 22.0325 26.3061 22.2461 26.3061Z" fill="#B9C11B"/>
<path d="M19.9262 25.5329C20.1398 25.5329 20.3129 25.3598 20.3129 25.1462C20.3129 24.9326 20.1398 24.7595 19.9262 24.7595C19.7127 24.7595 19.5396 24.9326 19.5396 25.1462C19.5396 25.3598 19.7127 25.5329 19.9262 25.5329Z" fill="#B9C11B"/>
<path d="M19.1528 24.7595C19.3664 24.7595 19.5395 24.5863 19.5395 24.3728C19.5395 24.1592 19.3664 23.9861 19.1528 23.9861C18.9392 23.9861 18.7661 24.1592 18.7661 24.3728C18.7661 24.5863 18.9392 24.7595 19.1528 24.7595Z" fill="#B9C11B"/>
<path d="M19.9262 23.9863C20.1398 23.9863 20.3129 23.8131 20.3129 23.5996C20.3129 23.386 20.1398 23.2129 19.9262 23.2129C19.7127 23.2129 19.5396 23.386 19.5396 23.5996C19.5396 23.8131 19.7127 23.9863 19.9262 23.9863Z" fill="#B9C11B"/>
<path d="M21.4726 23.9863C21.6862 23.9863 21.8593 23.8131 21.8593 23.5996C21.8593 23.386 21.6862 23.2129 21.4726 23.2129C21.2591 23.2129 21.0859 23.386 21.0859 23.5996C21.0859 23.8131 21.2591 23.9863 21.4726 23.9863Z" fill="#B9C11B"/>
<path d="M19.1528 23.2128C19.3664 23.2128 19.5395 23.0397 19.5395 22.8261C19.5395 22.6126 19.3664 22.4395 19.1528 22.4395C18.9392 22.4395 18.7661 22.6126 18.7661 22.8261C18.7661 23.0397 18.9392 23.2128 19.1528 23.2128Z" fill="#B9C11B"/>
<path d="M22.2461 23.2128C22.4596 23.2128 22.6327 23.0397 22.6327 22.8261C22.6327 22.6126 22.4596 22.4395 22.2461 22.4395C22.0325 22.4395 21.8594 22.6126 21.8594 22.8261C21.8594 23.0397 22.0325 23.2128 22.2461 23.2128Z" fill="#B9C11B"/>
<path d="M21.4726 22.4394C21.6862 22.4394 21.8593 22.2663 21.8593 22.0527C21.8593 21.8391 21.6862 21.666 21.4726 21.666C21.2591 21.666 21.0859 21.8391 21.0859 22.0527C21.0859 22.2663 21.2591 22.4394 21.4726 22.4394Z" fill="#B9C11B"/>
<path d="M17.6059 29.3998C17.8195 29.3998 17.9926 29.2267 17.9926 29.0131C17.9926 28.7996 17.8195 28.6265 17.6059 28.6265C17.3924 28.6265 17.2192 28.7996 17.2192 29.0131C17.2192 29.2267 17.3924 29.3998 17.6059 29.3998Z" fill="#B9C11B"/>
<path d="M18.3794 28.6264C18.5929 28.6264 18.766 28.4533 18.766 28.2397C18.766 28.0262 18.5929 27.853 18.3794 27.853C18.1658 27.853 17.9927 28.0262 17.9927 28.2397C17.9927 28.4533 18.1658 28.6264 18.3794 28.6264Z" fill="#B9C11B"/>
<path d="M17.6059 27.853C17.8195 27.853 17.9926 27.6798 17.9926 27.4663C17.9926 27.2527 17.8195 27.0796 17.6059 27.0796C17.3924 27.0796 17.2192 27.2527 17.2192 27.4663C17.2192 27.6798 17.3924 27.853 17.6059 27.853Z" fill="#B9C11B"/>
<path d="M18.3794 27.0795C18.5929 27.0795 18.766 26.9064 18.766 26.6928C18.766 26.4793 18.5929 26.3062 18.3794 26.3062C18.1658 26.3062 17.9927 26.4793 17.9927 26.6928C17.9927 26.9064 18.1658 27.0795 18.3794 27.0795Z" fill="#B9C11B"/>
<path d="M18.3794 25.5329C18.5929 25.5329 18.766 25.3598 18.766 25.1462C18.766 24.9326 18.5929 24.7595 18.3794 24.7595C18.1658 24.7595 17.9927 24.9326 17.9927 25.1462C17.9927 25.3598 18.1658 25.5329 18.3794 25.5329Z" fill="#B9C11B"/>
<path d="M18.3794 23.9863C18.5929 23.9863 18.766 23.8131 18.766 23.5996C18.766 23.386 18.5929 23.2129 18.3794 23.2129C18.1658 23.2129 17.9927 23.386 17.9927 23.5996C17.9927 23.8131 18.1658 23.9863 18.3794 23.9863Z" fill="#B9C11B"/>
</svg>
