<svg width="82" height="82" viewBox="0 0 82 82" fill="none" xmlns="http://www.w3.org/2000/svg">
<rect width="82" height="82" rx="9" fill="white"/>
<g clip-path="url(#clip0_386_717)">
<path d="M66.195 31.6629L63.843 29.0305C63.5983 28.7567 63.1921 28.6985 62.8804 28.8929L56.4875 32.879C56.1951 33.0613 56.0633 33.4185 56.167 33.7472L56.308 34.1937H52.5629L52.6023 33.3285C52.6212 32.9119 52.2989 32.5589 51.8823 32.5399C51.4644 32.5191 51.1126 32.8434 51.0937 33.2599L51.0291 34.682L50.5479 35.3235L45.0806 34.2984L39.3953 31.7498L40.537 29.847C40.7458 29.4989 40.6422 29.0482 40.3024 28.8262L36.9119 26.612L36.8216 25.8589L37.8463 25.7736C38.0942 25.7529 38.3161 25.6114 38.4393 25.3953C38.5626 25.1792 38.5717 24.9161 38.4633 24.6922L37.6271 22.9642L38.9427 22.1222C39.1278 22.0037 39.2521 21.8105 39.2832 21.5929L39.5088 20.0135C39.5571 19.6755 39.3725 19.3471 39.0588 19.2126L37.4793 18.5356C37.3197 18.4673 37.1415 18.456 36.9744 18.5037L34.7423 19.1415L31.4425 16.1921C31.2185 15.9919 30.8971 15.9435 30.624 16.069L26.713 17.8669C26.4767 17.9755 26.313 18.1979 26.2795 18.4557C26.2461 18.7136 26.3476 18.9705 26.5482 19.1358L28.3711 20.6368L27.8482 21.0367C27.6553 21.1842 27.5452 21.4154 27.5521 21.6581L27.6272 24.2905C27.6356 24.583 27.8122 24.8443 28.0803 24.9612L30.1438 25.8607L25.1681 32.5812L22.956 32.3916C22.7336 32.3722 22.515 32.4524 22.3576 32.61L20.703 34.2646C20.4523 34.5153 20.4098 34.9065 20.6007 35.2053L22.8377 38.7042L18.7132 38.9333C18.4207 38.9495 18.1639 39.1334 18.0546 39.4053C17.9453 39.677 18.0028 39.9874 18.2024 40.2018L20.2331 42.3829C20.3758 42.5364 20.5761 42.6235 20.7857 42.6235H21.1866L20.2427 43.6C19.9563 43.8962 19.9603 44.3674 20.2517 44.6587L22.132 46.539C22.3565 46.7635 22.6975 46.8237 22.9853 46.6893L25.2415 45.6364C25.4156 45.5552 25.5521 45.4108 25.6234 45.2326L25.6272 45.223L25.8998 46.0017L24.7207 48.0323C24.6265 48.1945 24.5961 48.3858 24.6352 48.5692L26.0643 55.2629C26.0746 55.3115 26.0898 55.359 26.1096 55.4046L28.9593 62.004L30.8324 67.0986C30.8594 67.1723 30.8978 67.2412 30.9461 67.303L32.8264 69.7097C32.9638 69.8854 33.1717 69.9914 33.3945 69.9994C33.4036 69.9996 33.4125 69.9999 33.4215 69.9999C33.6345 69.9999 33.8383 69.9097 33.9818 69.7509L38.1935 65.0878C38.3049 64.9643 38.3727 64.8076 38.3859 64.642L39.11 55.5907L44.6154 51.6583C44.6211 51.6542 44.6268 51.6501 44.6324 51.6458L49.897 47.6597C50.0856 47.5169 50.1963 47.2942 50.1963 47.0577V45.9293L53.7102 44.0372C54.054 43.8522 54.1999 43.4355 54.0468 43.0763L52.1669 38.6661L52.4573 35.7038H52.8414L53.448 38.0695C53.5312 38.3941 53.8184 38.6252 54.1534 38.6367L56.9215 38.732L55.7933 40.0159C55.6014 40.2344 55.5519 40.5437 55.6662 40.8113C55.7805 41.0788 56.0384 41.2567 56.3291 41.2688L57.6993 41.3259L59.0764 43.949C59.2179 44.2186 59.5071 44.3769 59.8108 44.3503C60.114 44.3237 60.3718 44.1176 60.4643 43.8275L63.1829 35.3041L66.1282 32.7352C66.2804 32.6025 66.373 32.4145 66.3855 32.213C66.3982 32.0116 66.3295 31.8135 66.195 31.6629ZM22.2004 34.9032L23.1774 33.9262L25.4597 34.1218C25.7212 34.1442 25.9752 34.0296 26.1311 33.8188L31.9223 25.9969C32.0591 25.8121 32.1043 25.5749 32.0448 25.3527C31.9855 25.1304 31.828 24.9473 31.6171 24.8555L29.1233 23.7684L29.0728 22.0017L30.0443 21.2588C30.2272 21.1188 30.3364 20.903 30.3405 20.6726C30.3446 20.4422 30.2434 20.2226 30.0655 20.0761L28.4383 18.7358L30.8051 17.6479L34.0462 20.5449C34.2394 20.7176 34.5074 20.7791 34.7568 20.708L37.131 20.0297L37.9318 20.3729L37.837 21.0368L36.2482 22.0536C35.9261 22.2597 35.809 22.6742 35.9756 23.0186L36.6246 24.36L35.9157 24.4191C35.7114 24.4361 35.5228 24.5355 35.3931 24.6944C35.2636 24.8534 35.2042 25.0581 35.2286 25.2616L35.4542 27.1418C35.4808 27.3635 35.6042 27.562 35.791 27.6841L38.8677 29.6934L37.6623 31.7024C37.5512 31.8876 37.5246 32.1114 37.5894 32.3173C37.6543 32.5233 37.804 32.6918 38.0009 32.7799L44.5441 35.7131C44.5985 35.7374 44.6554 35.7553 44.7138 35.7663L50.7307 36.8945C50.7611 36.9002 50.7914 36.904 50.8219 36.9058L50.7626 37.5106H23.8673L22.2004 34.9032ZM37.9463 54.5661C37.7651 54.6955 37.6502 54.8984 37.6324 55.1204L36.9008 64.2661L33.4631 68.0721L32.2088 66.4667L30.3694 61.4634C30.3647 61.4503 30.3596 61.4374 30.354 61.4246L27.5256 54.8748L27.1492 53.1115H39.9828L37.9463 54.5661ZM52.3873 43.0343L49.0831 44.8134C48.8387 44.9451 48.6861 45.2004 48.6861 45.4782V46.6822L43.7291 50.4353L42.0758 51.6162V51.601H26.8268L26.173 48.5386L27.3806 46.459C27.4914 46.2683 27.5131 46.0386 27.4403 45.8303L26.3873 42.822C26.2832 42.5248 26.0058 42.3234 25.6911 42.3165C25.3735 42.3116 25.0904 42.4987 24.9734 42.7909L24.3323 44.3937L22.826 45.0966L21.8447 44.1153L23.5098 42.3927C23.7204 42.1748 23.7805 41.852 23.6621 41.573C23.5437 41.294 23.27 41.1127 22.9669 41.1127H21.1146L20.4056 40.3512L24.2121 40.1398C24.4802 40.1249 24.7202 39.9689 24.8424 39.73C24.9575 39.5052 24.9506 39.2394 24.8291 39.0203H50.6806C50.6872 39.0404 50.6935 39.0606 50.7017 39.0802L52.3873 43.0343ZM62.0314 34.3046C61.9273 34.3953 61.8502 34.5127 61.8084 34.6441L59.5743 41.6483L58.8342 40.2386C58.709 40.0001 58.4661 39.8464 58.1971 39.8351L57.9711 39.8257L59.109 38.5308C59.3016 38.3115 59.3508 38.0009 59.235 37.733C59.1193 37.465 58.8596 37.2877 58.5678 37.2777L54.7705 37.1468L54.4005 35.7038H57.3382C57.5788 35.7038 57.8051 35.5892 57.9472 35.395C58.0895 35.201 58.1308 34.9508 58.0583 34.7214L57.7834 33.8507L63.1403 30.5105L64.5598 32.0992L62.0314 34.3046Z" fill="#B99EF3"/>
<path d="M35.666 42.2343C36.2686 42.2343 36.7572 41.7457 36.7572 41.143C36.7572 40.5403 36.2686 40.0518 35.666 40.0518C35.0633 40.0518 34.5747 40.5403 34.5747 41.143C34.5747 41.7457 35.0633 42.2343 35.666 42.2343Z" stroke="#BA9EF3" stroke-width="0.7"/>
<path d="M39.2499 46.0165C39.8526 46.0165 40.3412 45.5279 40.3412 44.9252C40.3412 44.3226 39.8526 43.834 39.2499 43.834C38.6473 43.834 38.1587 44.3226 38.1587 44.9252C38.1587 45.5279 38.6473 46.0165 39.2499 46.0165Z" stroke="#BA9EF3" stroke-width="0.7"/>
<path d="M35.666 49.5731C36.2686 49.5731 36.7572 49.0846 36.7572 48.4819C36.7572 47.8792 36.2686 47.3906 35.666 47.3906C35.0633 47.3906 34.5747 47.8792 34.5747 48.4819C34.5747 49.0846 35.0633 49.5731 35.666 49.5731Z" stroke="#BA9EF3" stroke-width="0.7"/>
<path d="M32.0361 47.9721C32.6388 47.9721 33.1273 47.4835 33.1273 46.8808C33.1273 46.2781 32.6388 45.7896 32.0361 45.7896C31.4334 45.7896 30.9448 46.2781 30.9448 46.8808C30.9448 47.4835 31.4334 47.9721 32.0361 47.9721Z" stroke="#BA9EF3" stroke-width="0.7"/>
<path d="M32.0361 43.7045C32.6388 43.7045 33.1273 43.2159 33.1273 42.6132C33.1273 42.0105 32.6388 41.522 32.0361 41.522C31.4334 41.522 30.9448 42.0105 30.9448 42.6132C30.9448 43.2159 31.4334 43.7045 32.0361 43.7045Z" stroke="#BA9EF3" stroke-width="0.7"/>
<path d="M35.6649 45.3694C36.1516 45.3694 36.5462 44.9749 36.5462 44.4882C36.5462 44.0015 36.1516 43.6069 35.6649 43.6069C35.1782 43.6069 34.7837 44.0015 34.7837 44.4882C34.7837 44.9749 35.1782 45.3694 35.6649 45.3694Z" stroke="#BA9EF3" stroke-width="0.7"/>
<path d="M32.9761 42.0562L34.6129 41.4243" stroke="#BA9EF3" stroke-width="0.7"/>
<path d="M36.4312 41.9233L38.4712 44.1602" stroke="#BA9EF3" stroke-width="0.7"/>
<path d="M38.5823 45.7876L36.4448 47.717" stroke="#BA9EF3" stroke-width="0.7"/>
<path d="M32.6362 43.5244L34.9894 47.6269" stroke="#BA9EF3" stroke-width="0.7"/>
<path d="M33.0024 47.3887L34.5756 48.118" stroke="#BA9EF3" stroke-width="0.7"/>
<path d="M32.4448 45.8682L35.0754 42.0601" stroke="#BA9EF3" stroke-width="0.7"/>
<path d="M33.0415 43.0405L34.8828 44.0812" stroke="#BA9EF3" stroke-width="0.7"/>
<path d="M36.5474 44.5874L38.158 44.7093" stroke="#BA9EF3" stroke-width="0.7"/>
<path d="M35.6646 45.3711L35.6664 47.3886" stroke="#BA9EF3" stroke-width="0.7"/>
</g>
<defs>
<clipPath id="clip0_386_717">
<rect width="54" height="54" fill="white" transform="translate(20 16)"/>
</clipPath>
</defs>
</svg>
