<svg width="82" height="82" viewBox="0 0 82 82" fill="none" xmlns="http://www.w3.org/2000/svg">
<rect width="82" height="82" rx="9" fill="#F4FCFD"/>
<path fill-rule="evenodd" clip-rule="evenodd" d="M23.125 30C23.125 29.2406 23.7406 28.625 24.5 28.625H57.5C58.2594 28.625 58.875 29.2406 58.875 30C58.875 30.7594 58.2594 31.375 57.5 31.375H24.5C23.7406 31.375 23.125 30.7594 23.125 30ZM23.125 37.3333C23.125 36.5739 23.7406 35.9583 24.5 35.9583H57.5C58.2594 35.9583 58.875 36.5739 58.875 37.3333C58.875 38.0927 58.2594 38.7083 57.5 38.7083H24.5C23.7406 38.7083 23.125 38.0927 23.125 37.3333ZM23.125 44.6667C23.125 43.9073 23.7406 43.2917 24.5 43.2917H39.1667C39.926 43.2917 40.5417 43.9073 40.5417 44.6667C40.5417 45.426 39.926 46.0417 39.1667 46.0417H24.5C23.7406 46.0417 23.125 45.426 23.125 44.6667ZM23.125 52C23.125 51.2406 23.7406 50.625 24.5 50.625H39.1667C39.926 50.625 40.5417 51.2406 40.5417 52C40.5417 52.7594 39.926 53.375 39.1667 53.375H24.5C23.7406 53.375 23.125 52.7594 23.125 52Z" fill="#B9C11B"/>
<path d="M53.6045 44.8837C56.6365 46.6343 58.1526 47.5096 58.3752 48.7724C58.4309 49.0882 58.4309 49.4116 58.3752 49.7275C58.1526 50.9903 56.6365 51.8656 53.6045 53.6162C50.5725 55.3667 49.0564 56.2419 47.8515 55.8034C47.5499 55.6937 47.2701 55.532 47.0243 55.3258C46.042 54.5015 46.042 52.7511 46.042 49.2499C46.042 45.7488 46.042 43.9984 47.0243 43.1741C47.2701 42.9678 47.5499 42.8061 47.8515 42.6965C49.0564 42.258 50.5725 43.1332 53.6045 44.8837Z" fill="#B9C11B"/>
</svg>
