<svg width="32" height="32" viewBox="0 0 32 32" fill="none" xmlns="http://www.w3.org/2000/svg">
<path fill-rule="evenodd" clip-rule="evenodd" d="M26.3895 7.21961C27.5362 7.52769 28.4434 8.43485 28.7515 9.58161C29.3163 11.6698 29.3334 16.0001 29.3334 16.0001C29.3334 16.0001 29.3334 20.3476 28.7686 22.4186C28.4605 23.5654 27.5534 24.4725 26.4066 24.7806C24.3356 25.3454 16.0001 25.3454 16.0001 25.3454C16.0001 25.3454 7.66461 25.3454 5.59358 24.7806C4.44681 24.4725 3.53966 23.5654 3.23158 22.4186C2.66675 20.3304 2.66675 16.0001 2.66675 16.0001C2.66675 16.0001 2.66675 11.6698 3.21446 9.59873C3.52255 8.45196 4.42969 7.54482 5.57646 7.23673C7.64749 6.6719 15.983 6.65479 15.983 6.65479C15.983 6.65479 24.3184 6.65479 26.3895 7.21961ZM20.2448 16.0001L13.33 20.0052V11.995L20.2448 16.0001Z" fill="#8A8A8A"/>
</svg>
