<svg width="18" height="18" viewBox="0 0 18 18" fill="none" xmlns="http://www.w3.org/2000/svg">
<path d="M9.98553 9.05324L6.27303 5.34074C6.13642 5.19928 6.06082 5.00983 6.06253 4.81319C6.06424 4.61654 6.14311 4.42843 6.28217 4.28937C6.42123 4.15032 6.60934 4.07144 6.80598 4.06973C7.00263 4.06802 7.19208 4.14362 7.33353 4.28024L11.5763 8.52299C11.7169 8.66363 11.7959 8.85436 11.7959 9.05324C11.7959 9.25211 11.7169 9.44284 11.5763 9.58349L7.33353 13.8262C7.19208 13.9629 7.00263 14.0385 6.80598 14.0367C6.60934 14.035 6.42123 13.9562 6.28217 13.8171C6.14311 13.678 6.06424 13.4899 6.06253 13.2933C6.06082 13.0966 6.13642 12.9072 6.27303 12.7657L9.98553 9.05324Z" fill="#0F172A"/>
</svg>
