<svg width="81" height="80" viewBox="0 0 81 80" fill="none" xmlns="http://www.w3.org/2000/svg">
<path d="M56.0809 38.5792H50.6361C50.454 38.5792 50.2768 38.65 50.1481 38.7819C50.0195 38.9112 49.9467 39.0895 49.9467 39.2726V44.7511C49.9467 45.1344 50.2549 45.4445 50.6361 45.4445H56.0809C56.462 45.4445 56.7728 45.1344 56.7728 44.7511V39.2726C56.7728 39.0895 56.6999 38.9112 56.5689 38.7819C56.4402 38.6525 56.2654 38.5792 56.0809 38.5792ZM55.3915 44.0553H51.3278V39.9683H55.3915V44.0553ZM60.4625 28.0103L56.1392 23.6621V15.6934C56.1392 15.5103 56.0688 15.3345 55.9377 15.2026C55.8091 15.0732 55.6343 15 55.4498 15H21.3583C21.1763 15 20.9991 15.0732 20.8704 15.2026C20.7393 15.3345 20.6665 15.5103 20.6665 15.6934V60.2978C20.6665 60.4834 20.7393 60.6591 20.8704 60.791C20.9991 60.9204 21.1763 60.9936 21.3583 60.9936H25.1938V64.3066C25.1938 64.6899 25.5021 65 25.8832 65H59.9747C60.1567 65 60.3339 64.9268 60.4626 64.7974C60.5937 64.6655 60.6665 64.4897 60.6665 64.3066V28.5009C60.6641 28.3154 60.5912 28.1397 60.4625 28.0103ZM51.9153 21.3746L58.3068 27.8053H51.9153V21.3746ZM22.0477 59.6047V16.389H54.7609V22.2728L51.7168 19.2113H51.7144C51.5857 19.0819 51.4109 19.0087 51.2264 19.0087H25.8836C25.5025 19.0087 25.1942 19.3187 25.1942 19.702V59.6046L22.0477 59.6047ZM26.5726 63.6111V20.3954H50.5346V28.501C50.5346 28.8843 50.8453 29.1944 51.2264 29.1944H59.2859V63.6107L26.5726 63.6111ZM47.1844 32.4266C47.1844 32.6122 47.1116 32.788 46.9829 32.9174C46.8518 33.0492 46.6771 33.1224 46.495 33.12H29.449C29.0678 33.12 28.7595 32.8099 28.7595 32.4266C28.7595 32.0433 29.0678 31.7333 29.449 31.7333H46.495C46.8761 31.7333 47.1844 32.0433 47.1844 32.4266ZM47.1844 35.5223C47.1844 35.9056 46.8761 36.2157 46.495 36.2157H29.4489C29.0751 36.2059 28.779 35.8983 28.779 35.5223C28.779 35.1464 29.0751 34.8387 29.4489 34.8265H46.495C46.8761 34.8265 47.1844 35.139 47.1844 35.5223ZM47.1844 40.4588C47.1844 40.8446 46.8761 41.1547 46.495 41.1547H29.4489C29.0751 41.1424 28.779 40.8348 28.779 40.4613C28.779 40.0853 29.0751 39.7777 29.4489 39.7655H46.495C46.6771 39.7655 46.8543 39.8387 46.9829 39.9705C47.1116 40.0999 47.1844 40.2782 47.1844 40.4613L47.1844 40.4588ZM47.1844 43.5545C47.1844 43.7401 47.1116 43.9159 46.9829 44.0477C46.8518 44.1771 46.6771 44.2503 46.495 44.2503H29.449C29.0678 44.2503 28.7595 43.9378 28.7595 43.5545C28.7595 43.1712 29.0678 42.8611 29.449 42.8611H46.495C46.6771 42.8611 46.8543 42.9344 46.9829 43.0662C47.114 43.1956 47.1844 43.3738 47.1844 43.5569V43.5545ZM47.1844 48.4959C47.1844 48.8792 46.8761 49.1893 46.495 49.1893H29.4489C29.0678 49.1893 28.7595 48.8792 28.7595 48.4959C28.7595 48.1126 29.0678 47.8025 29.4489 47.8025H46.495C46.6771 47.8025 46.8543 47.8758 46.9829 48.0052C47.114 48.137 47.1868 48.3152 47.1844 48.5008L47.1844 48.4959ZM47.1844 51.5916C47.1844 51.7747 47.1116 51.9529 46.9829 52.0823C46.8518 52.2117 46.6771 52.285 46.495 52.285H29.449C29.0678 52.285 28.7595 51.9749 28.7595 51.5916C28.7595 51.2083 29.0678 50.8958 29.449 50.8958H46.495C46.6771 50.8958 46.8543 50.969 46.9829 51.1009C47.1116 51.2327 47.1844 51.4085 47.1844 51.594V51.5916ZM47.1844 56.533V56.5306C47.1844 56.7161 47.1116 56.8919 46.9829 57.0237C46.8518 57.1531 46.6771 57.2264 46.495 57.2264H29.449C29.0678 57.2264 28.7595 56.9163 28.7595 56.5305C28.7595 56.1472 29.0678 55.8372 29.449 55.8372H46.495C46.6771 55.8372 46.8543 55.9104 46.9829 56.0422C47.114 56.1716 47.1844 56.3499 47.1844 56.533ZM47.1844 59.6287V59.6262C47.1844 59.8118 47.1116 59.9876 46.9829 60.117C46.8518 60.2488 46.6771 60.322 46.495 60.322H29.449C29.0678 60.322 28.7595 60.0095 28.7595 59.6262C28.7595 59.2429 29.0678 58.9329 29.449 58.9329H46.495C46.6771 58.9329 46.8543 59.0061 46.9829 59.1355C47.1116 59.2673 47.1844 59.4456 47.1844 59.6287ZM47.1844 23.2593C47.1844 23.6426 46.8761 23.9526 46.495 23.9526H29.4489C29.0678 23.9526 28.7595 23.6426 28.7595 23.2593C28.7595 22.8735 29.0678 22.5634 29.4489 22.5634H46.495C46.6771 22.5634 46.8543 22.6367 46.9829 22.7685C47.114 22.8979 47.1844 23.0761 47.1844 23.2617L47.1844 23.2593ZM47.1844 26.3549V26.3525C47.1844 26.5381 47.1116 26.7138 46.9829 26.8432C46.8518 26.9751 46.6771 27.0483 46.495 27.0483H29.449C29.0678 27.0483 28.7595 26.7358 28.7595 26.3525C28.7595 25.9692 29.0678 25.6591 29.449 25.6591H46.495C46.6771 25.6591 46.8543 25.7324 46.9829 25.8618C47.114 25.9936 47.1844 26.1718 47.1844 26.3549ZM56.0809 30.542L50.6361 30.5395C50.454 30.5395 50.2768 30.6128 50.1481 30.7446C50.0195 30.874 49.9467 31.0522 49.9467 31.2353V36.7114C49.9467 37.0947 50.2549 37.4072 50.6361 37.4072H56.0809C56.462 37.4048 56.7728 37.0947 56.7728 36.7114V31.2377C56.7728 30.8544 56.462 30.542 56.0809 30.542ZM55.3915 36.018H51.3278V31.9311H55.3915V36.018ZM56.0809 46.6137L50.6361 46.6112C50.454 46.6112 50.2768 46.6845 50.1481 46.8163C50.0195 46.9457 49.9467 47.1215 49.9467 47.307V52.7831C49.9467 52.9662 50.0195 53.1444 50.1481 53.2738C50.2768 53.4057 50.454 53.4765 50.6361 53.4765H56.0809C56.462 53.4765 56.7728 53.1664 56.7728 52.7831V47.307C56.7728 47.1239 56.6999 46.9481 56.5689 46.8163C56.4402 46.6869 56.2654 46.6137 56.0809 46.6137ZM55.3915 52.0897H51.3278V48.0004H55.3915V52.0897ZM56.0809 54.6484H50.6361C50.454 54.6484 50.2768 54.7216 50.1481 54.851C50.0195 54.9804 49.9467 55.1586 49.9467 55.3417V60.8178C49.9467 61.0034 50.0195 61.1791 50.1481 61.311C50.2768 61.4404 50.454 61.5136 50.6361 61.5136H56.0809C56.462 61.5136 56.7728 61.2011 56.7728 60.8178V55.3442C56.7728 55.1586 56.6999 54.9828 56.5689 54.8534C56.4402 54.7216 56.2654 54.6484 56.0809 54.6484ZM55.3915 60.1244H51.3278V56.0375H55.3915V60.1244Z" fill="#B9C11B"/>
</svg>
