<svg width="40" height="40" viewBox="0 0 40 40" fill="none" xmlns="http://www.w3.org/2000/svg">
<path d="M36.9906 25.0462L30.1866 25.5418C29.9682 25.5586 29.796 25.7392 29.796 25.9618V26.0836H19.6026C18.5484 26.0836 17.6538 26.7682 17.3556 27.7426L5.52 24.8068C4.9488 24.5884 4.3314 24.6556 3.8232 25C3.3108 25.3444 3 25.9198 3 26.5372C3 26.6758 3.0126 26.7934 3.0336 26.8942C3.1176 27.3226 3.3486 27.7132 3.6888 27.9904C3.7056 28.003 3.7266 28.0198 3.7434 28.0282L18.1536 36.2812C18.2166 36.319 18.288 36.3358 18.3636 36.3358C18.372 36.3358 18.3846 36.3358 18.393 36.3358L29.796 35.5V35.794C29.796 36.0124 29.964 36.1972 30.1866 36.214L36.9906 36.7096C36.999 36.7096 37.0116 36.7096 37.02 36.7096C37.125 36.7096 37.23 36.6718 37.3056 36.5962C37.3896 36.5164 37.44 36.403 37.44 36.2896V25.4662C37.44 25.3486 37.3896 25.2394 37.3056 25.1596C37.2216 25.0798 37.104 25.0378 36.9906 25.0462ZM18.4602 35.4916L4.197 27.3184C4.0206 27.1672 3.903 26.9614 3.8568 26.7262C3.8442 26.6758 3.84 26.617 3.84 26.5372C3.84 26.2012 4.0122 25.8862 4.2936 25.693C4.575 25.504 4.9194 25.4662 5.2344 25.5964C5.2512 25.6048 5.2722 25.609 5.289 25.6132L17.259 28.5784C17.2926 29.1538 17.5236 29.6914 17.9352 30.0946C18.3762 30.5398 18.9684 30.7876 19.5984 30.7876H25.4028C25.6338 30.7876 25.8228 30.5986 25.8228 30.3676C25.8228 30.1366 25.6338 29.9476 25.4028 29.9476H19.6026C19.1994 29.9476 18.8172 29.788 18.5316 29.4982C18.246 29.2168 18.0864 28.8388 18.0864 28.4314C18.0864 28.381 18.0906 28.3264 18.0948 28.2802C18.1704 27.5032 18.8172 26.9152 19.5984 26.9152H29.796V34.6516L18.4602 35.4916ZM36.6 35.8402L30.636 35.4076V35.0506V26.5036V26.3482L36.6 25.9156V35.8402Z" fill="#CD8136"/>
<path d="M32.3999 10.8124C32.3999 10.6486 32.3033 10.5016 32.1563 10.4302L18.3131 4.0378C18.1997 3.9874 18.0737 3.9874 17.9603 4.0378L4.11714 10.4302C3.97014 10.4974 3.87354 10.6486 3.87354 10.8124C3.87354 10.9762 3.97014 11.1232 4.11714 11.1946L6.11634 12.1186L4.11714 13.0384C3.97014 13.1056 3.87354 13.2568 3.87354 13.4206C3.87354 13.5844 3.97014 13.7314 4.11714 13.8028L6.10794 14.7226L4.11714 15.6424C3.97014 15.7096 3.87354 15.8608 3.87354 16.0246C3.87354 16.1884 3.97014 16.3354 4.11714 16.4068L17.9603 22.7992C18.0149 22.8244 18.0779 22.837 18.1367 22.837C18.1955 22.837 18.2585 22.8244 18.3131 22.7992L32.1563 16.4068C32.3033 16.3396 32.3999 16.1884 32.3999 16.0246C32.3999 15.8608 32.3033 15.7138 32.1563 15.6424L30.1655 14.7226L32.1563 13.8028C32.3033 13.7356 32.3999 13.5844 32.3999 13.4206C32.3999 13.2568 32.3033 13.1056 32.1563 13.0384L30.1571 12.1186L32.1563 11.1946C32.3075 11.1232 32.3999 10.9762 32.3999 10.8124ZM30.9803 16.0204L18.1367 21.9508L5.29314 16.0204L7.10754 15.1846L17.9603 20.1952C18.0737 20.2456 18.1997 20.2456 18.3131 20.1952L29.1659 15.1804L30.9803 16.0204ZM29.1575 12.5806L30.9761 13.4206L28.9895 14.3404C28.9895 14.3404 28.9895 14.3404 28.9853 14.3404L18.1367 19.351L7.28814 14.3362C7.28814 14.3362 7.28814 14.3362 7.28394 14.3362L5.29734 13.4164L7.11594 12.5764L17.9603 17.5828C18.0695 17.6332 18.1997 17.6332 18.3131 17.5828L29.1575 12.5806ZM18.1367 16.7428L5.29314 10.8124L18.1367 4.882L30.9803 10.8124L18.1367 16.7428Z" fill="#CD8136"/>
</svg>
