<svg width="48" height="48" viewBox="0 0 48 48" fill="none" xmlns="http://www.w3.org/2000/svg">
<rect width="48" height="48" rx="4" fill="#BE9CF4"/>
<path d="M28.216 31.8184H24.7173C24.4866 31.8182 24.2655 31.7265 24.1024 31.5634C23.9393 31.4003 23.8476 31.1792 23.8474 30.9485V30.2501C23.8483 29.8197 24.0199 29.4072 24.3245 29.103C24.6291 28.7989 25.0418 28.628 25.4723 28.6277H29.2612C29.4918 28.628 29.7129 28.7197 29.876 28.8828C30.0391 29.0458 30.1308 29.2669 30.1311 29.4976V29.9033C30.1305 30.4111 29.9286 30.8979 29.5695 31.2569C29.2105 31.6159 28.7237 31.8178 28.216 31.8184ZM24.9649 30.7009H28.216C28.4275 30.7007 28.6302 30.6165 28.7797 30.467C28.9292 30.3175 29.0133 30.1148 29.0136 29.9033V29.7452H25.4723C25.3379 29.7453 25.2092 29.7988 25.1142 29.8938C25.0192 29.9888 24.9658 30.1175 24.9656 30.2519L24.9649 30.7009Z" fill="white"/>
<path d="M29.1207 29.6079H25.6489C25.4173 29.6072 25.1953 29.5148 25.0317 29.3508C24.868 29.1869 24.7761 28.9648 24.7759 28.7331V28.0588C24.7763 27.8364 24.8217 27.6164 24.9094 27.412C24.9972 27.2076 25.1254 27.0232 25.2864 26.8697C25.3948 26.7728 25.5367 26.7219 25.682 26.7279C25.8273 26.7339 25.9646 26.7963 26.0646 26.9018C26.1646 27.0074 26.2195 27.1478 26.2177 27.2932C26.2158 27.4386 26.1574 27.5776 26.0547 27.6806C26.0029 27.729 25.9617 27.7876 25.9336 27.8527C25.9055 27.9177 25.8911 27.9879 25.8913 28.0588V28.4904H29.12C29.3377 28.4907 29.5465 28.4046 29.7006 28.2509C29.8548 28.0973 29.9416 27.8888 29.9421 27.6712V27.2951C29.9348 27.1469 29.9867 27.0019 30.0863 26.892C30.186 26.782 30.3252 26.7162 30.4734 26.7089C30.6216 26.7017 30.7666 26.7535 30.8765 26.8532C30.9864 26.9528 31.0523 27.0921 31.0595 27.2402C31.0595 27.2574 31.0595 27.2752 31.0595 27.2923V27.6712C31.0587 28.1849 30.8541 28.6774 30.4906 29.0404C30.1272 29.4035 29.6345 29.6076 29.1207 29.6079Z" fill="white"/>
<path d="M27.1911 33.8912H23.6917C23.4611 33.891 23.24 33.7994 23.0769 33.6364C22.9138 33.4733 22.8221 33.2523 22.8218 33.0217V32.3233C22.8223 31.8927 22.9936 31.48 23.2981 31.1756C23.6026 30.8711 24.0154 30.6999 24.4459 30.6995H28.2363C28.4668 30.6996 28.6879 30.7913 28.851 30.9543C29.0141 31.1173 29.1059 31.3384 29.1061 31.569V31.9748C29.1059 32.4827 28.9042 32.9699 28.5451 33.3292C28.186 33.6885 27.6991 33.8907 27.1911 33.8912ZM23.9399 32.7738H27.1911C27.4026 32.7736 27.6053 32.6895 27.7549 32.5399C27.9044 32.3904 27.9885 32.1876 27.9887 31.9762V31.8183H24.4466C24.3124 31.8185 24.1837 31.8719 24.0887 31.9668C23.9937 32.0617 23.9402 32.1904 23.9399 32.3247V32.7738Z" fill="white"/>
<path d="M20.3627 36.1614C20.254 36.1614 20.1477 36.1297 20.0567 36.0702C19.9658 36.0107 19.8942 35.926 19.8507 35.8264C19.8072 35.7268 19.7937 35.6167 19.8118 35.5096C19.8299 35.4024 19.8789 35.3029 19.9527 35.2231L20.3208 34.8254C20.5153 34.6164 20.7553 34.455 21.0223 34.3537C21.2892 34.2524 21.5759 34.2139 21.8601 34.2411C24.6206 34.5125 25.2785 33.1314 25.2844 33.1174C25.3119 33.0485 25.3527 32.9857 25.4047 32.9328C25.4566 32.8798 25.5186 32.8378 25.587 32.809C25.6554 32.7803 25.7288 32.7655 25.8029 32.7654C25.8771 32.7653 25.9506 32.78 26.019 32.8086C26.0874 32.8372 26.1495 32.8792 26.2015 32.932C26.2536 32.9848 26.2946 33.0475 26.3222 33.1164C26.3497 33.1852 26.3633 33.2589 26.3622 33.333C26.361 33.4072 26.345 33.4804 26.3153 33.5483C26.2804 33.6367 25.3689 35.7092 21.7511 35.353C21.6387 35.3426 21.5254 35.358 21.4199 35.3982C21.3144 35.4383 21.2195 35.502 21.1424 35.5845L20.7726 35.9823C20.7203 36.0388 20.6569 36.0839 20.5864 36.1147C20.5158 36.1455 20.4397 36.1614 20.3627 36.1614Z" fill="white"/>
<path d="M15.4252 30.5695C15.3128 30.5695 15.203 30.5356 15.1101 30.4722C15.0173 30.4088 14.9457 30.3189 14.9048 30.2142C14.8639 30.1094 14.8555 29.9948 14.8807 29.8853C14.906 29.7757 14.9637 29.6763 15.0463 29.6001L15.545 29.1377C15.7543 28.9454 15.8973 28.6915 15.9532 28.4128C16.3545 26.4251 16.6726 26.0333 16.7774 25.9044C17.0861 25.5248 19.3982 23.1142 21.2821 21.159C21.5828 20.8461 21.9423 20.5956 22.3399 20.4218C22.7376 20.2481 23.1656 20.1544 23.5995 20.1463L27.5274 20.0611C27.7587 20.0562 27.9878 20.1067 28.1957 20.2083C28.4035 20.31 28.584 20.4599 28.7221 20.6455C28.8603 20.8311 28.952 21.047 28.9897 21.2753C29.0274 21.5035 29.01 21.7375 28.9389 21.9577C28.7521 22.5564 28.3772 23.0789 27.87 23.4477C27.2372 23.9104 26.3876 24.1577 25.3452 24.1811C25.0143 24.1884 24.6833 24.1768 24.3538 24.1462L24.3122 24.1423L23.8432 24.5746C23.7872 24.6255 23.7498 24.6936 23.7372 24.7682C23.7245 24.8428 23.7373 24.9195 23.7734 24.986C24.0503 25.4594 24.187 26.0017 24.1673 26.5498C24.1345 27.274 23.8157 27.977 23.2196 28.6394C23.1199 28.7477 22.9816 28.8123 22.8346 28.8192C22.6877 28.8261 22.5439 28.7747 22.4346 28.6763C22.3253 28.5778 22.2592 28.4402 22.2507 28.2934C22.2421 28.1465 22.2919 28.0022 22.3891 27.8918C23.1036 27.0987 23.243 26.3092 22.8043 25.5409C22.641 25.2552 22.58 24.9223 22.6315 24.5973C22.683 24.2722 22.8439 23.9745 23.0876 23.7533L23.7427 23.1495C23.8022 23.0947 23.8728 23.0534 23.9498 23.0286C24.0268 23.0037 24.1083 22.9959 24.1886 23.0056C24.2846 23.0175 24.3716 23.0266 24.4547 23.0339C24.7421 23.0611 25.0308 23.0719 25.3193 23.0661C26.7162 23.0332 27.5763 22.5454 27.8766 21.6158C27.8931 21.565 27.8972 21.5109 27.8885 21.4582C27.8798 21.4054 27.8586 21.3555 27.8267 21.3127C27.7953 21.2699 27.754 21.2354 27.7063 21.2121C27.6586 21.1889 27.6059 21.1776 27.5529 21.1793L23.6253 21.2645C23.3376 21.2702 23.0538 21.3325 22.7902 21.4479C22.5265 21.5633 22.2882 21.7295 22.0888 21.9371C19.4834 24.6396 17.8634 26.343 17.6455 26.6116C17.5533 26.7251 17.3235 27.2803 17.0497 28.637C16.9473 29.1461 16.6862 29.6097 16.3038 29.9612L15.8048 30.4214C15.7016 30.5171 15.5659 30.57 15.4252 30.5695Z" fill="white"/>
<path d="M36.6416 27.8339H25.3331C25.185 27.8339 25.0428 27.775 24.9381 27.6703C24.8333 27.5655 24.7744 27.4234 24.7744 27.2752V23.6239C24.7744 23.4757 24.8333 23.3335 24.9381 23.2288C25.0428 23.124 25.185 23.0651 25.3331 23.0651C25.4813 23.0651 25.6234 23.124 25.7282 23.2288C25.833 23.3335 25.8919 23.4757 25.8919 23.6239V26.7164H36.0828V11.0838H25.8919V20.6678C25.8919 20.816 25.833 20.9581 25.7282 21.0629C25.6234 21.1677 25.4813 21.2265 25.3331 21.2265C25.185 21.2265 25.0428 21.1677 24.9381 21.0629C24.8333 20.9581 24.7744 20.816 24.7744 20.6678V10.525C24.7744 10.3769 24.8333 10.2347 24.9381 10.13C25.0428 10.0252 25.185 9.96631 25.3331 9.96631H36.6416C36.7897 9.96631 36.9319 10.0252 37.0366 10.13C37.1414 10.2347 37.2003 10.3769 37.2003 10.525V27.2752C37.2003 27.4234 37.1414 27.5655 37.0366 27.6703C36.9319 27.775 36.7897 27.8339 36.6416 27.8339Z" fill="white"/>
<path d="M33.8701 15.4412H28.1046C27.9564 15.4412 27.8143 15.3823 27.7095 15.2775C27.6048 15.1728 27.5459 15.0306 27.5459 14.8825C27.5459 14.7343 27.6048 14.5922 27.7095 14.4874C27.8143 14.3826 27.9564 14.3237 28.1046 14.3237H33.8701C34.0182 14.3237 34.1604 14.3826 34.2651 14.4874C34.3699 14.5922 34.4288 14.7343 34.4288 14.8825C34.4288 15.0306 34.3699 15.1728 34.2651 15.2775C34.1604 15.3823 34.0182 15.4412 33.8701 15.4412Z" fill="white"/>
<path d="M33.8701 19.4589H28.1046C27.9564 19.4589 27.8143 19.4 27.7095 19.2952C27.6048 19.1905 27.5459 19.0483 27.5459 18.9002C27.5459 18.752 27.6048 18.6099 27.7095 18.5051C27.8143 18.4003 27.9564 18.3414 28.1046 18.3414H33.8701C34.0182 18.3414 34.1604 18.4003 34.2651 18.5051C34.3699 18.6099 34.4288 18.752 34.4288 18.9002C34.4288 19.0483 34.3699 19.1905 34.2651 19.2952C34.1604 19.4 34.0182 19.4589 33.8701 19.4589Z" fill="white"/>
<path d="M33.8701 23.4761H28.1046C27.9564 23.4761 27.8143 23.4172 27.7095 23.3125C27.6048 23.2077 27.5459 23.0656 27.5459 22.9174C27.5459 22.7692 27.6048 22.6271 27.7095 22.5223C27.8143 22.4175 27.9564 22.3586 28.1046 22.3586H33.8701C34.0182 22.3586 34.1604 22.4175 34.2651 22.5223C34.3699 22.6271 34.4288 22.7692 34.4288 22.9174C34.4288 23.0656 34.3699 23.2077 34.2651 23.3125C34.1604 23.4172 34.0182 23.4761 33.8701 23.4761Z" fill="white"/>
<path d="M18.6422 39.0204C18.5629 39.0205 18.4845 39.0036 18.4123 38.9711C18.3401 38.9385 18.2756 38.8909 18.2231 38.8315L11.9995 31.7814C11.9015 31.6703 11.8515 31.5248 11.8607 31.377C11.8699 31.2291 11.9374 31.0909 12.0484 30.9928L14.4342 28.8868C14.4892 28.8382 14.5532 28.8009 14.6226 28.777C14.6921 28.7532 14.7655 28.7432 14.8388 28.7478C14.912 28.7523 14.9837 28.7712 15.0496 28.8035C15.1155 28.8357 15.1745 28.8806 15.2231 28.9357L21.4466 35.9858C21.5447 36.0969 21.5945 36.2424 21.5853 36.3903C21.5761 36.5381 21.5085 36.6763 21.3974 36.7743L19.0123 38.8808C18.9101 38.9709 18.7784 39.0206 18.6422 39.0204ZM13.2067 31.4608L18.691 37.6732L20.2391 36.3064L14.7565 30.094L13.2067 31.4608Z" fill="white"/>
</svg>
