<svg width="80" height="80" viewBox="0 0 80 80" fill="none" xmlns="http://www.w3.org/2000/svg">
<path fill-rule="evenodd" clip-rule="evenodd" d="M48.7798 54.3203L38.5132 54.3184C38.1539 54.3184 37.8616 54.026 37.8616 53.6668C37.8616 53.3076 38.1539 53.0152 38.5132 53.0152L48.7798 53.0171C49.3932 53.0171 49.9703 52.7764 50.4078 52.3388C50.8454 51.9012 51.0862 51.3223 51.0862 50.7089C51.0862 49.4401 50.0486 48.4045 48.776 48.3987C42.3096 48.3758 41.2017 47.8178 39.7987 46.8299C39.1472 46.3713 38.4076 45.8516 36.386 45.3166C33.4223 44.5331 30.9117 44.5962 27.4283 45.5382C27.0806 45.6337 26.7233 45.4274 26.6296 45.0796C26.536 44.7318 26.7405 44.3745 27.0882 44.2809C30.7627 43.2853 33.5526 43.2204 36.719 44.0573C38.9661 44.6516 39.8432 45.2688 40.5482 45.7637C41.6278 46.5242 42.4094 47.0726 48.7819 47.0956C50.7711 47.1032 52.3896 48.7217 52.3896 50.707C52.3896 51.6681 52.0131 52.5739 51.3309 53.256C50.6488 53.9401 49.7431 54.3165 48.7819 54.3165L48.7798 54.3203Z" fill="#BE9CF4"/>
<path fill-rule="evenodd" clip-rule="evenodd" d="M42.7204 60.5033C39.1529 60.5033 34.8267 59.5345 27.111 57.6848C26.7613 57.6007 26.5454 57.2492 26.6295 56.8995C26.7136 56.5498 27.0651 56.3358 27.4148 56.4179C44.0505 60.4039 44.2833 60.3007 56.5052 54.8893C58.0186 54.2186 59.7345 53.46 61.6796 52.6212C62.0905 52.4434 62.4096 52.1148 62.5758 51.6944C62.742 51.2741 62.7363 50.8173 62.5586 50.4065C62.3809 49.9938 62.0503 49.6747 61.63 49.5085C61.2096 49.3423 60.7548 49.348 60.3459 49.5257L50.834 53.6569C50.5053 53.8002 50.1213 53.6492 49.978 53.3186C49.8347 52.9881 49.9856 52.6059 50.3162 52.4626L59.8281 48.3295C60.5561 48.0142 61.3663 48.0008 62.1096 48.2951C62.8548 48.5913 63.4396 49.155 63.7548 49.8868C64.0701 50.6168 64.0816 51.4288 63.7873 52.1722C63.4911 52.9155 62.9274 53.4982 62.1975 53.8136C60.26 54.6505 58.546 55.4091 57.0343 56.0779C50.2549 59.0798 47.0445 60.5014 42.7222 60.5014L42.7204 60.5033Z" fill="#BE9CF4"/>
<path fill-rule="evenodd" clip-rule="evenodd" d="M56.6924 51.0526C56.4402 51.0526 56.2013 50.9055 56.0943 50.659C55.9529 50.3284 56.1038 49.9462 56.4344 49.8029C56.6732 49.6997 56.8681 49.5106 56.9694 49.2794C57.0669 49.0577 57.0707 48.8169 56.979 48.601C56.8796 48.3717 56.6962 48.1959 56.4631 48.1023C56.228 48.0087 55.9758 48.0144 55.7465 48.1119L51.6325 49.887C51.302 50.0303 50.9198 49.8775 50.7765 49.5469C50.6332 49.2163 50.786 48.8342 51.1166 48.6908L55.2306 46.9157C55.779 46.6788 56.3867 46.6711 56.9427 46.8909C57.5007 47.1125 57.9363 47.5348 58.1733 48.0832C58.4121 48.6335 58.4064 49.245 58.1599 49.8029C57.9249 50.336 57.4949 50.7602 56.9503 50.9953C56.8662 51.0316 56.7783 51.0507 56.6924 51.0507L56.6924 51.0526Z" fill="#BE9CF4"/>
<path fill-rule="evenodd" clip-rule="evenodd" d="M27.2621 64.132H15.8698C15.5106 64.132 15.2183 63.8396 15.2183 63.4804V42.7137C15.2183 42.3545 15.5106 42.0621 15.8698 42.0621H27.2621C27.6213 42.0621 27.9137 42.3545 27.9137 42.7137V63.4804C27.9137 63.8396 27.6213 64.132 27.2621 64.132ZM16.5214 62.8307H26.6125V43.3671H16.5214V62.8307Z" fill="#BE9CF4"/>
<path fill-rule="evenodd" clip-rule="evenodd" d="M21.5659 49.4589C20.2054 49.4589 19.4927 48.408 19.4927 47.3685C19.4927 46.8334 19.6761 46.329 20.0105 45.9488C20.3908 45.515 20.943 45.2781 21.5659 45.2781C22.9264 45.2781 23.6392 46.329 23.6392 47.3685C23.6392 47.9035 23.4557 48.408 23.1213 48.7882C22.7411 49.222 22.1889 49.4589 21.5659 49.4589ZM21.5659 46.5793C21.3156 46.5793 21.1207 46.6557 20.9888 46.8086C20.8646 46.9481 20.7959 47.1526 20.7959 47.3685C20.7959 47.5003 20.8341 48.1576 21.5678 48.1576C21.8181 48.1576 22.0111 48.0812 22.1449 47.9283C22.2691 47.7889 22.3379 47.5844 22.3379 47.3685C22.3379 47.2366 22.2997 46.5793 21.5659 46.5793Z" fill="#BE9CF4"/>
<path fill-rule="evenodd" clip-rule="evenodd" d="M21.5659 60.9202C20.2054 60.9202 19.4927 59.8693 19.4927 58.8298C19.4927 58.2947 19.6761 57.7903 20.0105 57.4101C20.3908 56.9782 20.943 56.7394 21.5659 56.7394C22.9264 56.7394 23.6392 57.7903 23.6392 58.8298C23.6392 59.3648 23.4557 59.8693 23.1213 60.2495C22.7411 60.6833 22.1889 60.9202 21.5659 60.9202ZM21.5659 58.0406C20.8322 58.0406 20.7959 58.698 20.7959 58.8298C20.7959 58.9616 20.8341 59.619 21.5659 59.619C21.8162 59.619 22.0092 59.5425 22.143 59.3897C22.2672 59.2502 22.336 59.0457 22.336 58.8298C22.336 58.698 22.2978 58.0406 21.5659 58.0406Z" fill="#BE9CF4"/>
<path fill-rule="evenodd" clip-rule="evenodd" d="M55.1944 40.2988H24.029C23.6698 40.2988 23.3774 40.0064 23.3774 39.6472V15.8805C23.3774 15.5212 23.6698 15.2289 24.029 15.2289H55.1944C55.5537 15.2289 55.846 15.5212 55.846 15.8805V39.6472C55.846 40.0064 55.5537 40.2969 55.1944 40.2969V40.2988ZM24.6806 38.9975H54.5448V16.5339H24.6806V38.9975Z" fill="#BE9CF4"/>
<path fill-rule="evenodd" clip-rule="evenodd" d="M55.2213 36.9758H24.0559C23.6966 36.9758 23.4043 36.6834 23.4043 36.3242C23.4043 35.965 23.6967 35.6726 24.0559 35.6726H55.2213C55.5805 35.6726 55.8729 35.965 55.8729 36.3242C55.8729 36.6834 55.5824 36.9758 55.2213 36.9758Z" fill="#BE9CF4"/>
<path fill-rule="evenodd" clip-rule="evenodd" d="M30.2312 28.7039C30.1338 28.7039 30.0344 28.681 29.9427 28.6351C29.721 28.5262 29.5815 28.2988 29.5815 28.0523V15.8823C29.5815 15.5231 29.8739 15.2307 30.2331 15.2307C30.5923 15.2307 30.8847 15.5231 30.8847 15.8823V26.7414L33.5178 24.7388C33.749 24.5611 34.0719 24.5611 34.3051 24.7369L36.9649 26.7471V15.8822C36.9649 15.5229 37.2573 15.2306 37.6165 15.2306C37.9757 15.2306 38.2681 15.5229 38.2681 15.8822V28.0542C38.2681 28.3006 38.1286 28.5261 37.9069 28.6369C37.6853 28.7478 37.4216 28.7229 37.2248 28.5739L33.9152 26.0745L30.6306 28.5739C30.5159 28.6618 30.3764 28.7057 30.2369 28.7057L30.2312 28.7039Z" fill="#BE9CF4"/>
<path fill-rule="evenodd" clip-rule="evenodd" d="M39.4225 33.9659H28.424C28.0648 33.9659 27.7725 33.6736 27.7725 33.3144V31.0615C27.7725 30.7023 28.0648 30.4099 28.424 30.4099H39.4225C39.7817 30.4099 40.0741 30.7023 40.0741 31.0615V33.3144C40.0741 33.6736 39.7836 33.9659 39.4225 33.9659ZM29.0736 32.6646H38.7709V31.7131H29.0736V32.6646Z" fill="#BE9CF4"/>
<path fill-rule="evenodd" clip-rule="evenodd" d="M49.5035 33.1657H45.1124C44.7531 33.1657 44.4608 32.8734 44.4608 32.5141V26.7532H42.9169C42.6761 26.7532 42.4545 26.6194 42.3417 26.4054C42.229 26.1914 42.2443 25.9335 42.3799 25.7347L46.771 19.3242C47.0137 18.9688 47.6022 18.9688 47.8449 19.3242L52.1882 25.6643C52.2933 25.7809 52.3582 25.9337 52.3582 26.1038C52.3582 26.463 52.0659 26.7554 51.7067 26.7554H51.699H50.1531V32.5163C50.1531 32.8755 49.8627 33.1679 49.5035 33.1679L49.5035 33.1657ZM45.764 31.8644H48.8538V26.1035C48.8538 25.7443 49.1461 25.4519 49.5054 25.4519H50.4665L47.3098 20.843L44.1532 25.4519H45.1143C45.4735 25.4519 45.7659 25.7443 45.7659 26.1035V31.8644H45.764Z" fill="#BE9CF4"/>
</svg>
