<svg width="40" height="40" viewBox="0 0 40 40" fill="none" xmlns="http://www.w3.org/2000/svg">
<path d="M36.4578 27.4942L33.8513 26.0085V6.30744C33.8482 4.48115 32.3685 3.00152 30.5423 3H7.30744C5.48115 3.00153 4.00152 4.48119 4 6.30744V29.5423C4.00153 31.3686 5.48119 32.8482 7.30744 32.8497H23.5302L23.4767 34.8043V34.8058C23.4737 35.0562 23.6233 35.2838 23.8554 35.38C24.086 35.4762 24.3532 35.4227 24.5288 35.2441L27.7936 31.8267L30.6475 36.8932C30.733 37.0475 30.8827 37.1559 31.0537 37.191C31.2262 37.2277 31.4064 37.188 31.5469 37.0826L34.0268 35.2182H34.0252C34.2726 35.0319 34.3428 34.6913 34.1871 34.4241L31.466 29.727L36.2914 28.6199C36.5342 28.5604 36.7159 28.3603 36.7525 28.113C36.7892 27.8656 36.6732 27.621 36.4578 27.4942ZM7.30776 4.22147H30.5426C31.694 4.223 32.6285 5.15598 32.63 6.30733V9.23609H5.22218V6.30733C5.2237 5.15598 6.15641 4.223 7.30776 4.22147ZM7.30776 31.6277C6.15641 31.6277 5.22343 30.6932 5.2219 29.5419V10.4577H32.6281V25.3122L24.7549 20.8273C24.567 20.7235 24.341 20.7235 24.1547 20.8289C23.9684 20.9342 23.8493 21.1281 23.8417 21.3419L23.5638 31.6291L7.30776 31.6277ZM30.3851 28.7203L30.3866 28.7219C30.1973 28.7661 30.0415 28.8975 29.9652 29.0746C29.8873 29.2517 29.898 29.4548 29.9942 29.6228L32.8588 34.5658L31.37 35.6851L28.4534 30.5087C28.3572 30.3422 28.1877 30.2292 27.9969 30.2048C27.806 30.1804 27.6136 30.2476 27.4792 30.3865L24.7413 33.2542L25.036 22.3943L34.4925 27.7815L30.3851 28.7203Z" fill="#B9C11B"/>
<path d="M11.2289 7.5657C11.7298 7.55807 12.1314 7.15036 12.1314 6.64949C12.1314 6.14709 11.7298 5.73941 11.2289 5.73328C10.7281 5.73938 10.325 6.14709 10.325 6.64949C10.325 7.15032 10.7281 7.55804 11.2289 7.5657Z" fill="#B9C11B"/>
<path d="M8.18566 7.5657C8.68649 7.55807 9.08963 7.15036 9.08963 6.64949C9.08963 6.14709 8.68653 5.73941 8.18566 5.73328C7.68482 5.73938 7.2832 6.14709 7.2832 6.64949C7.2832 7.15032 7.68478 7.55804 8.18566 7.5657Z" fill="#B9C11B"/>
<path d="M14.2707 7.5657C14.7715 7.55807 15.1731 7.15036 15.1731 6.64949C15.1731 6.14709 14.7715 5.73941 14.2707 5.73328C13.7698 5.73938 13.3667 6.14709 13.3667 6.64949C13.3667 7.15032 13.7698 7.55804 14.2707 7.5657Z" fill="#B9C11B"/>
<path d="M8.15943 14.3577L9.83912 14.3501V14.3516C10.1323 15.1945 10.9263 15.7595 11.8196 15.761C12.7114 15.7625 13.5069 15.1991 13.8047 14.3577H22.1404C22.4733 14.3532 22.7421 14.0813 22.7421 13.7469C22.7421 13.4141 22.4733 13.1422 22.1404 13.1361H13.8504C13.6122 12.2138 12.78 11.5679 11.8256 11.5664C10.8728 11.5649 10.0391 12.2077 9.79628 13.13L8.1563 13.1362H8.15783C7.82494 13.1453 7.56079 13.4171 7.56079 13.7485C7.56079 14.0814 7.82809 14.3516 8.15943 14.3577ZM11.8227 12.788C12.3052 12.7971 12.6915 13.1911 12.6915 13.6736C12.6915 14.1546 12.3052 14.5486 11.8227 14.5577C11.3401 14.5486 10.9553 14.1546 10.9553 13.6736C10.9553 13.1911 11.3401 12.7971 11.8227 12.788Z" fill="#B9C11B"/>
<path d="M20.985 16.9491C20.0321 16.9522 19.1999 17.5965 18.9571 18.5173L8.15984 18.5188C7.82696 18.5265 7.56128 18.7983 7.56128 19.1296C7.56128 19.4625 7.82698 19.7343 8.15984 19.7404L19.0029 19.7389C19.2594 20.4825 19.9114 21.02 20.6902 21.133C21.4705 21.2445 22.2462 20.9116 22.7028 20.2688C23.1578 19.6275 23.2173 18.7845 22.8554 18.0852C22.4936 17.3873 21.7729 16.9475 20.985 16.9491ZM20.985 19.9405C20.5024 19.9313 20.1146 19.5389 20.1146 19.0563C20.1161 18.5723 20.5024 18.1798 20.985 18.1707C21.4675 18.1799 21.8554 18.5723 21.8554 19.0563C21.8554 19.5389 21.4675 19.9328 20.985 19.9405Z" fill="#B9C11B"/>
<path d="M22.2324 24.3869L17.6239 24.3762C17.4819 23.3379 16.5932 22.5637 15.5442 22.5652C14.4951 22.5682 13.6095 23.3455 13.4705 24.3838L8.24993 24.3869C7.91704 24.3945 7.65137 24.6648 7.65137 24.9977C7.65289 25.3305 7.91859 25.6024 8.25149 25.6085L13.6707 25.6054C14.0219 26.3246 14.7533 26.7797 15.5534 26.7781C16.3521 26.7766 17.082 26.317 17.4301 25.5978L22.2309 25.6085C22.5638 25.6024 22.8294 25.3306 22.8294 24.9992C22.8294 24.6663 22.5652 24.3945 22.2324 24.3869ZM15.547 25.5566C15.0645 25.5489 14.6751 25.155 14.6751 24.6709C14.6751 24.1884 15.0645 23.7944 15.547 23.7868C16.0311 23.7944 16.419 24.1884 16.419 24.6709C16.419 25.155 16.0311 25.5489 15.547 25.5566Z" fill="#B9C11B"/>
</svg>
