<svg width="81" height="80" viewBox="0 0 81 80" fill="none" xmlns="http://www.w3.org/2000/svg">
<path d="M32.3156 54.1025C32.3156 53.3944 32.2441 52.6886 32.1058 52.0043C31.1139 47.1404 26.7889 43.6117 21.8246 43.6117C16.0403 43.6117 11.3335 48.3182 11.3335 54.1028C11.3335 59.8874 16.04 64.5939 21.8246 64.5939C24.1159 64.5939 26.2927 63.8644 28.117 62.4886C29.569 61.4086 30.7158 59.9589 31.4335 58.3042C32.0176 56.9809 32.3157 55.567 32.3157 54.1031L32.3156 54.1025ZM29.6857 57.5382C29.0968 58.8925 28.1622 60.0751 26.9724 60.9621C25.4775 62.0899 23.6964 62.6859 21.8248 62.6859C17.092 62.6859 13.2417 58.8353 13.2417 54.1028C13.2417 49.3703 17.0923 45.5197 21.8248 45.5197C25.8875 45.5197 29.4258 48.4071 30.2363 52.3864C30.3508 52.9444 30.408 53.5214 30.408 54.1031C30.408 55.3 30.1648 56.454 29.6856 57.5389L29.6857 57.5382Z" fill="#EC923B"/>
<path d="M57.8918 37.9532C56.0202 38.3013 54.6611 39.9345 54.6611 41.8372C54.6611 43.375 55.5648 44.7842 56.9477 45.4255C57.2338 45.5614 57.5485 45.6663 57.9133 45.7355C58.135 45.7713 58.3639 45.7951 58.6095 45.7951C60.7863 45.7951 62.5579 44.0188 62.5579 41.8372C62.5579 39.6603 60.7864 37.8888 58.6095 37.8888C58.3639 37.8888 58.1303 37.9127 57.8918 37.9532ZM60.6504 41.8372C60.6504 42.9674 59.7349 43.8877 58.6095 43.8877C58.4736 43.8877 58.3424 43.8734 58.2471 43.8591C58.073 43.8257 57.9109 43.7733 57.7607 43.7017C57.0358 43.3655 56.5685 42.636 56.5685 41.8396C56.5685 40.8549 57.2719 40.0085 58.2232 39.8344C58.3472 39.8106 58.4736 39.7962 58.6095 39.7962C59.7349 39.7962 60.6504 40.7118 60.6504 41.8372Z" fill="#EC923B"/>
<path d="M67.0736 49.5625L62.7342 47.7027C62.5005 47.6026 62.2382 47.6002 62.0022 47.6932L58.6118 49.057L55.2189 47.6932C54.9829 47.6002 54.7206 47.6026 54.487 47.7027L50.1571 49.5625C49.2511 49.9535 48.6646 50.8405 48.6646 51.8204V58.3246C48.6622 59.6788 49.7637 60.778 51.1132 60.778H66.1052C67.4571 60.778 68.5562 59.6788 68.5562 58.3269V51.8228C68.5562 50.8381 67.9748 49.9511 67.0736 49.5625ZM66.6492 58.3269C66.6492 58.6321 66.4108 58.8705 66.1056 58.8705H51.1135C50.8131 58.8705 50.5699 58.6273 50.5699 58.3269V51.8227C50.5699 51.6034 50.7035 51.4055 50.9085 51.3173L54.8736 49.6149L58.2521 50.9739C58.481 51.0669 58.7361 51.0669 58.965 50.9739L62.3459 49.6149L66.3205 51.3173C66.5208 51.4031 66.6495 51.601 66.6495 51.8227L66.6492 58.3269Z" fill="#EC923B"/>
<path d="M46.7551 52.1944C46.7551 51.6675 46.3283 51.2407 45.8014 51.2407H35.0338C34.5069 51.2407 34.0801 51.6675 34.0801 52.1944C34.0801 52.7214 34.5069 53.1481 35.0338 53.1481H44.7137V56.963H34.6139C34.0869 56.963 33.6602 57.3898 33.6602 57.9167C33.6602 58.4436 34.0869 58.8704 34.6139 58.8704H45.8008C46.3277 58.8704 46.7545 58.4436 46.7545 57.9167C46.7545 57.7474 46.6973 57.5948 46.621 57.4565V52.6522C46.6997 52.5163 46.7551 52.3637 46.7551 52.1944Z" fill="#EC923B"/>
<path d="M21.825 41.7039C22.352 41.7039 22.7788 41.2771 22.7788 40.7502V23.5834C22.7788 23.0565 23.2055 22.6297 23.7325 22.6297H56.1586C56.6855 22.6297 57.1123 23.0565 57.1123 23.5834V35.0566C57.1123 35.5835 57.5391 36.0103 58.066 36.0103C58.593 36.0103 59.0197 35.5835 59.0197 35.0566V23.5834C59.0197 22.005 57.737 20.7223 56.1586 20.7223H49.118L47.046 16.588C46.5573 15.608 45.5773 15 44.4853 15H35.406C34.3164 15 33.3341 15.608 32.8477 16.5856L30.7734 20.7223H23.7327C22.1543 20.7223 20.8716 22.005 20.8716 23.5834V40.7502C20.8716 41.2771 21.2981 41.7039 21.825 41.7039ZM34.5526 17.4391C34.7171 17.1124 35.0437 16.9074 35.4061 16.9074H44.4855C44.8479 16.9074 45.1745 17.1124 45.339 17.4391L46.9841 20.7222H32.9077L34.5526 17.4391Z" fill="#EC923B"/>
<path d="M53.3262 44.5648C53.3262 44.0379 52.8994 43.6111 52.3725 43.6111H47.5396C47.1843 39.8725 44.0299 36.9348 40.201 36.9348H39.6932C35.8617 36.9348 32.7074 39.8722 32.3522 43.6111H31.1529C30.626 43.6111 30.1992 44.0379 30.1992 44.5648C30.1992 45.0917 30.626 45.5185 31.1529 45.5185H52.3732C52.9001 45.5185 53.3269 45.0917 53.3269 44.5648H53.3262ZM34.2685 43.6111C34.6142 40.924 36.915 38.8425 39.6927 38.8425H40.2005C42.9782 38.8425 45.279 40.924 45.6248 43.6111H34.2685Z" fill="#EC923B"/>
<path d="M40.8992 17.8608H38.9918C38.4649 17.8608 38.0381 18.2876 38.0381 18.8146C38.0381 19.3415 38.4649 19.7683 38.9918 19.7683H40.8992C41.4261 19.7683 41.8529 19.3415 41.8529 18.8146C41.8529 18.2876 41.4261 17.8608 40.8992 17.8608Z" fill="#EC923B"/>
<path d="M51.3901 62.6855H31.1715C30.6446 62.6855 30.2178 63.1123 30.2178 63.6393C30.2178 64.1662 30.6446 64.593 31.1715 64.593H51.3901C51.9171 64.593 52.3439 64.1662 52.3439 63.6393C52.3439 63.1123 51.9171 62.6855 51.3901 62.6855Z" fill="#EC923B"/>
<path d="M43.7605 31.2134C43.7605 29.1105 42.0486 27.3986 39.9457 27.3986C37.8428 27.3986 36.1309 29.1105 36.1309 31.2134C36.1309 33.3163 37.8428 35.0282 39.9457 35.0282C42.0486 35.0282 43.7605 33.3163 43.7605 31.2134ZM38.0383 31.2134C38.0383 30.1619 38.8942 29.306 39.9457 29.306C40.9972 29.306 41.8531 30.1619 41.8531 31.2134C41.8531 32.2649 40.9972 33.1208 39.9457 33.1208C38.8942 33.1208 38.0383 32.2649 38.0383 31.2134Z" fill="#EC923B"/>
<path d="M25.6399 54.0952V51.2412C25.6399 50.7143 25.2131 50.2875 24.6862 50.2875C24.1592 50.2875 23.7325 50.7143 23.7325 51.2412V51.6179L21.5914 50.3328C20.8523 49.8893 19.9629 49.8774 19.2095 50.3042C18.4585 50.7309 18.0103 51.4987 18.0103 52.3618V55.8428C18.0103 56.706 18.4585 57.4737 19.2095 57.9005C19.5767 58.1079 19.9749 58.2104 20.3755 58.2104C20.7927 58.2104 21.2123 58.096 21.5914 57.8695L23.7325 56.5867V56.9634C23.7325 57.4903 24.1593 57.9171 24.6862 57.9171C25.2132 57.9171 25.6399 57.4903 25.6399 56.9634V54.1094V54.1023L25.6399 54.0952ZM23.5107 54.4934L20.609 56.2339C20.4016 56.3555 20.218 56.2768 20.1489 56.2387C20.0797 56.2005 19.9176 56.0837 19.9176 55.8429V52.3619C19.9176 52.121 20.0797 52.0042 20.1489 51.9637C20.1918 51.9398 20.2729 51.9041 20.3778 51.9041C20.4469 51.9041 20.5256 51.9208 20.609 51.9708L23.5107 53.7114C23.6991 53.8211 23.7301 53.9927 23.7324 54.0905V54.1119C23.7301 54.2097 23.6991 54.3813 23.5107 54.4934Z" fill="#EC923B"/>
</svg>
