<svg width="40" height="40" viewBox="0 0 40 40" fill="none" xmlns="http://www.w3.org/2000/svg">
<path d="M32.2935 20.6935L14.6285 32.4702C14.503 32.5537 14.3572 32.6016 14.2066 32.6088C14.0561 32.616 13.9064 32.5822 13.7735 32.5111C13.6406 32.4399 13.5295 32.3341 13.452 32.2048C13.3745 32.0755 13.3336 31.9276 13.3335 31.7769V8.22353C13.3336 8.07279 13.3745 7.9249 13.452 7.7956C13.5295 7.6663 13.6406 7.56044 13.7735 7.48929C13.9064 7.41815 14.0561 7.38437 14.2066 7.39158C14.3572 7.39878 14.503 7.44669 14.6285 7.5302L32.2935 19.3069C32.4076 19.383 32.5012 19.4861 32.5659 19.607C32.6307 19.728 32.6645 19.863 32.6645 20.0002C32.6645 20.1374 32.6307 20.2724 32.5659 20.3934C32.5012 20.5143 32.4076 20.6174 32.2935 20.6935Z" fill="white"/>
</svg>
