<svg width="169" height="27" viewBox="0 0 169 27" fill="none" xmlns="http://www.w3.org/2000/svg">
<path d="M4.55284 26.075L0.123535 7.98535H5.2522L7.77768 22.0898H8.36048L11.3522 7.98535H17.2191L20.2885 22.0898H20.9102L23.3968 7.98535H28.4089L23.9796 26.036H17.1802L14.4605 12.0878H13.9165L11.2357 26.036H4.55284V26.075Z" fill="black"/>
<path d="M32.3333 5.3677C31.3619 5.3677 30.6237 5.17235 30.1186 4.74258C29.6135 4.3128 29.3416 3.72674 29.3416 2.9844C29.3416 2.16392 29.6135 1.57786 30.1186 1.14808C30.6237 0.718302 31.3619 0.522949 32.3333 0.522949C33.3046 0.522949 34.0428 0.718302 34.5868 1.14808C35.0919 1.57786 35.3639 2.16392 35.3639 2.9844C35.3639 3.72674 35.0919 4.3128 34.5868 4.74258C34.0817 5.17235 33.3046 5.3677 32.3333 5.3677ZM29.8855 26.0751V7.98544H34.8199V26.0361H29.8855V26.0751Z" fill="black"/>
<path d="M44.5719 26.5443C43.0955 26.5443 41.7745 26.1535 40.6866 25.4112C39.5598 24.6298 38.705 23.5358 38.0834 22.0902C37.4617 20.6446 37.1509 18.9646 37.1509 16.972C37.1509 15.1356 37.4229 13.4947 37.9668 12.0881C38.5108 10.6816 39.3267 9.54854 40.4146 8.76713C41.5025 7.94664 42.8235 7.55594 44.3776 7.55594C45.5432 7.55594 46.5146 7.79036 47.2917 8.22014C48.0687 8.64991 48.7292 9.31411 49.2343 10.1737C49.7394 11.0332 50.1668 12.0491 50.4388 13.2212H51.177C51.0216 12.4788 50.905 11.7756 50.7885 11.0723C50.6719 10.369 50.5554 9.66575 50.4777 9.04062C50.3999 8.41549 50.3611 7.82943 50.3611 7.36058V1.53906H55.3343V17.4017V26.0754H51.177V20.8009H50.5165C50.2834 22.0902 49.8948 23.1451 49.3509 24.0047C48.8069 24.8642 48.1464 25.4893 47.3694 25.9191C46.5923 26.3098 45.6598 26.5443 44.5719 26.5443ZM46.2426 22.4809C46.942 22.4809 47.5636 22.3246 48.1076 22.0121C48.6127 21.6995 49.0789 21.2697 49.3897 20.7618C49.7394 20.2539 49.9725 19.7069 50.128 19.0818C50.2834 18.4957 50.3611 17.9096 50.3611 17.3627V16.7375C50.3611 16.2687 50.3222 15.7998 50.2057 15.331C50.0891 14.8621 49.9337 14.3933 49.7006 13.9244C49.4675 13.4947 49.1955 13.0649 48.8458 12.7133C48.4961 12.3616 48.1076 12.0881 47.6413 11.8537C47.1751 11.6584 46.7089 11.5411 46.1649 11.5411C45.349 11.5411 44.6496 11.7756 44.0668 12.2444C43.484 12.7133 43.0566 13.3384 42.7458 14.1589C42.435 14.9794 42.2796 15.917 42.2796 17.0501C42.2796 18.1441 42.435 19.0818 42.7458 19.9023C43.0566 20.7227 43.5229 21.3479 44.1057 21.8167C44.7273 22.2465 45.4267 22.4809 46.2426 22.4809Z" fill="black"/>
<path d="M66.913 26.544C65.4366 26.544 64.1155 26.3486 62.9499 25.9189C61.7843 25.4891 60.813 24.903 60.0359 24.1216C59.22 23.3402 58.6372 22.3634 58.2098 21.2304C57.7824 20.0973 57.5881 18.808 57.5881 17.3624C57.5881 15.9558 57.7824 14.6274 58.1709 13.4163C58.5595 12.2051 59.1423 11.1892 59.9193 10.2906C60.6964 9.39198 61.6289 8.72778 62.7557 8.25894C63.8824 7.79009 65.1257 7.55566 66.5633 7.55566C67.962 7.55566 69.1665 7.79009 70.2544 8.25894C71.3034 8.72778 72.1971 9.39198 72.8964 10.2906C73.5958 11.1892 74.1397 12.2832 74.4506 13.5725C74.8003 14.8619 74.878 16.3466 74.7614 18.0266L60.7741 18.1438V15.4089L71.8474 15.2916L70.2155 16.6982C70.371 15.487 70.2932 14.4712 69.9824 13.6897C69.6716 12.9083 69.2053 12.3223 68.6225 11.9706C68.0009 11.619 67.3404 11.4237 66.6022 11.4237C65.7474 11.4237 64.9703 11.6581 64.3098 12.1269C63.6493 12.5958 63.1442 13.26 62.7945 14.1586C62.4448 15.0572 62.2506 16.1121 62.2506 17.3233C62.2506 19.2768 62.6779 20.6834 63.5327 21.6211C64.3875 22.5197 65.4754 22.9886 66.8741 22.9886C67.4958 22.9886 68.0397 22.9104 68.506 22.7151C68.9334 22.5588 69.3219 22.3244 69.5939 22.0509C69.8659 21.7774 70.099 21.4648 70.2544 21.1132C70.4098 20.7615 70.5264 20.4099 70.6429 20.0583L74.9557 20.9569C74.8003 21.8164 74.5283 22.5588 74.1009 23.262C73.7124 23.9653 73.1684 24.5514 72.5468 25.0593C71.8862 25.5672 71.1092 25.9579 70.1767 26.2314C69.283 26.3877 68.1952 26.544 66.913 26.544Z" fill="black"/>
<path d="M85.446 26.544C83.6588 26.544 82.0658 26.1924 80.7059 25.45C79.346 24.7467 78.2581 23.6528 77.481 22.2462C76.704 20.8397 76.3154 19.0815 76.3154 16.9717C76.3154 14.8619 76.704 13.1037 77.481 11.6972C78.2581 10.2906 79.346 9.23572 80.7059 8.53245C82.0658 7.82917 83.6199 7.47754 85.4072 7.47754C87.1944 7.47754 88.7874 7.82917 90.1473 8.53245C91.5072 9.23572 92.5951 10.2906 93.3721 11.6972C94.1492 13.1037 94.5377 14.8619 94.5377 16.9717C94.5377 19.1206 94.1492 20.9178 93.3333 22.2853C92.5174 23.6918 91.4295 24.7077 90.0307 25.4109C88.6709 26.1924 87.1556 26.544 85.446 26.544ZM85.5626 22.8714C86.1065 22.8714 86.6116 22.7932 87.1167 22.5979C87.583 22.4025 88.0103 22.129 88.3989 21.6992C88.7874 21.2695 89.0594 20.6834 89.2925 19.9801C89.5256 19.2769 89.6033 18.3782 89.6033 17.3624C89.6033 16.2684 89.4868 15.3307 89.2537 14.5884C89.0205 13.846 88.7097 13.2209 88.2823 12.7521C87.8938 12.2832 87.4275 11.9316 86.8836 11.7362C86.3396 11.5409 85.7957 11.4237 85.2517 11.4237C84.7078 11.4237 84.2027 11.5018 83.7364 11.6972C83.2314 11.8925 82.804 12.166 82.4543 12.5958C82.1046 13.0256 81.7938 13.5726 81.5607 14.3149C81.3275 15.0182 81.211 15.9168 81.211 16.9717C81.211 18.0657 81.3275 19.0034 81.5607 19.7457C81.7938 20.4881 82.1046 21.1132 82.532 21.582C82.9594 22.0509 83.4256 22.4025 83.9307 22.5979C84.4358 22.7541 84.9798 22.8714 85.5626 22.8714Z" fill="black"/>
<path d="M99.7827 26.075L94.9648 8.37598H97.568L101.376 23.8089H101.842L105.844 8.37598H109.224L113.187 23.8089H113.615L117.461 8.37598H120.025L115.169 26.0359H111.594L107.631 10.6421H107.32L103.318 26.0359H99.7827V26.075Z" fill="black"/>
<path d="M129.661 26.4657C128.03 26.4657 126.553 26.1141 125.31 25.3718C124.028 24.6294 123.056 23.5745 122.357 22.168C121.658 20.7614 121.308 19.0814 121.308 17.1279C121.308 15.0962 121.696 13.3771 122.435 12.0487C123.173 10.6812 124.183 9.66539 125.426 9.00119C126.67 8.29792 128.068 7.98535 129.584 7.98535C131.138 7.98535 132.575 8.33699 133.858 9.07933C135.14 9.7826 136.111 10.8375 136.849 12.244C137.587 13.6506 137.976 15.3306 137.976 17.3623C137.976 19.394 137.626 21.074 136.888 22.4415C136.15 23.8089 135.179 24.8248 133.935 25.5281C132.653 26.1141 131.216 26.4657 129.661 26.4657ZM129.739 24.2778C130.361 24.2778 130.982 24.1606 131.643 23.9262C132.303 23.6917 132.925 23.301 133.469 22.7931C134.013 22.2461 134.479 21.5429 134.829 20.6442C135.179 19.7456 135.373 18.6516 135.373 17.3232C135.373 15.9558 135.179 14.8227 134.829 13.9241C134.479 13.0255 134.013 12.2831 133.43 11.7361C132.847 11.1891 132.187 10.7984 131.487 10.564C130.788 10.3296 130.089 10.2124 129.428 10.2124C128.807 10.2124 128.185 10.3296 127.524 10.5249C126.864 10.7594 126.242 11.111 125.659 11.6189C125.077 12.1268 124.61 12.8301 124.261 13.7287C123.911 14.6274 123.717 15.7213 123.717 17.0497C123.717 18.4172 123.911 19.5503 124.261 20.4489C124.61 21.3475 125.077 22.0898 125.659 22.6759C126.242 23.2229 126.864 23.6527 127.563 23.8871C128.34 24.1606 129.04 24.2778 129.739 24.2778Z" fill="black"/>
<path d="M141.317 26.0751V16.3074V8.37607H143.726L143.299 14.7836H143.843C144.076 13.4162 144.387 12.2441 144.814 11.2282C145.242 10.2124 145.786 9.3919 146.524 8.80584C147.223 8.21978 148.078 7.94629 149.088 7.94629C149.321 7.94629 149.632 7.98536 149.943 8.02443C150.254 8.0635 150.603 8.18071 150.992 8.29792L150.837 10.9157C150.526 10.7984 150.176 10.7203 149.865 10.6422C149.515 10.564 149.205 10.5249 148.933 10.5249C148.039 10.5249 147.223 10.8375 146.601 11.5017C145.941 12.1659 145.397 13.0255 144.97 14.0804C144.542 15.1744 144.154 16.3465 143.882 17.6749V26.0751H141.317Z" fill="black"/>
<path d="M153.401 26.0748V2.20264H155.926V15.8773C156.898 15.4085 157.83 14.8615 158.724 14.2364C159.617 13.6113 160.433 12.908 161.21 12.2047C161.949 11.5014 162.609 10.7982 163.153 10.134C163.697 9.46977 164.086 8.88371 164.358 8.37579H167.349C166.883 9.23535 166.339 10.0558 165.64 10.9154C164.94 11.7749 164.202 12.5563 163.347 13.2987C162.531 14.041 161.638 14.7052 160.783 15.2131C159.889 15.7601 159.035 16.1508 158.18 16.3853V16.7369C159.229 16.6978 160.161 16.8541 161.016 17.2448C161.832 17.6355 162.609 18.1434 163.27 18.8076C163.93 19.4718 164.591 20.2533 165.174 21.1128C165.756 21.9724 166.339 22.9101 166.922 23.8868L168.049 26.0357H165.174L164.319 24.3947C163.658 23.2226 162.959 22.1286 162.26 21.1519C161.56 20.1751 160.744 19.4328 159.889 18.8467C158.996 18.2997 157.986 17.9872 156.742 17.9872H155.965V25.9966H153.401V26.0748Z" fill="black"/>
</svg>
