<svg width="135" height="22" viewBox="0 0 135 22" fill="none" xmlns="http://www.w3.org/2000/svg">
<path d="M3.64257 21.2602L0.0991211 6.78845H4.20206L6.22244 18.0721H6.68869L9.08207 6.78845H13.7756L16.2311 18.0721H16.7285L18.7178 6.78845H22.7275L19.184 21.229H13.7445L11.5687 10.0704H11.1335L8.98883 21.229H3.64257V21.2602Z" fill="black"/>
<path d="M25.8668 4.69423C25.0897 4.69423 24.4991 4.53795 24.095 4.19413C23.691 3.8503 23.4734 3.38146 23.4734 2.78758C23.4734 2.13119 23.691 1.66235 24.095 1.31853C24.4991 0.974703 25.0897 0.81842 25.8668 0.81842C26.6438 0.81842 27.2344 0.974703 27.6696 1.31853C28.0737 1.66235 28.2912 2.13119 28.2912 2.78758C28.2912 3.38146 28.0737 3.8503 27.6696 4.19413C27.2655 4.53795 26.6438 4.69423 25.8668 4.69423ZM23.9086 21.2602V6.78842H27.8561V21.2289H23.9086V21.2602Z" fill="black"/>
<path d="M35.6578 21.6354C34.4766 21.6354 33.4198 21.3228 32.5495 20.729C31.6481 20.1038 30.9643 19.2287 30.4669 18.0722C29.9696 16.9157 29.7209 15.5716 29.7209 13.9776C29.7209 12.5085 29.9385 11.1957 30.3737 10.0705C30.8089 8.94525 31.4616 8.03881 32.3319 7.41368C33.2022 6.7573 34.2591 6.44473 35.5024 6.44473C36.4349 6.44473 37.2119 6.63227 37.8336 6.97609C38.4552 7.31991 38.9836 7.85127 39.3877 8.53892C39.7918 9.22656 40.1337 10.0392 40.3513 10.9769H40.9419C40.8175 10.3831 40.7243 9.82044 40.631 9.25782C40.5378 8.6952 40.4445 8.13258 40.3824 7.63248C40.3202 7.13238 40.2891 6.66353 40.2891 6.28845V1.63123H44.2677V14.3214V21.2603H40.9419V17.0407H40.4135C40.227 18.0722 39.9161 18.9161 39.481 19.6037C39.0458 20.2914 38.5174 20.7915 37.8958 21.1353C37.2741 21.4479 36.5281 21.6354 35.6578 21.6354ZM36.9943 18.3847C37.5538 18.3847 38.0512 18.2597 38.4863 18.0096C38.8904 17.7596 39.2634 17.4158 39.5121 17.0094C39.7918 16.6031 39.9783 16.1655 40.1026 15.6654C40.227 15.1966 40.2891 14.7277 40.2891 14.2901V13.79C40.2891 13.4149 40.258 13.0399 40.1648 12.6648C40.0715 12.2897 39.9472 11.9146 39.7607 11.5395C39.5742 11.1957 39.3566 10.8519 39.0769 10.5706C38.7972 10.2893 38.4863 10.0705 38.1133 9.88295C37.7403 9.72667 37.3673 9.6329 36.9322 9.6329C36.2794 9.6329 35.7199 9.82044 35.2537 10.1955C34.7875 10.5706 34.4455 11.0707 34.1969 11.7271C33.9482 12.3835 33.8239 13.1336 33.8239 14.0401C33.8239 14.9153 33.9482 15.6654 34.1969 16.3218C34.4455 16.9782 34.8185 17.4783 35.2848 17.8534C35.7821 18.1972 36.3416 18.3847 36.9943 18.3847Z" fill="black"/>
<path d="M53.5307 21.6353C52.3495 21.6353 51.2927 21.479 50.3602 21.1352C49.4277 20.7913 48.6507 20.3225 48.029 19.6974C47.3763 19.0722 46.91 18.2908 46.5681 17.3844C46.2262 16.4779 46.0708 15.4465 46.0708 14.29C46.0708 13.1647 46.2262 12.102 46.537 11.1331C46.8479 10.1641 47.3141 9.35144 47.9358 8.63254C48.5574 7.91364 49.3034 7.38228 50.2048 7.0072C51.1062 6.63212 52.1009 6.44458 53.2509 6.44458C54.3699 6.44458 55.3335 6.63212 56.2038 7.0072C57.0431 7.38228 57.758 7.91364 58.3175 8.63254C58.8769 9.35144 59.3121 10.2266 59.5608 11.2581C59.8405 12.2896 59.9027 13.4773 59.8094 14.8213L48.6196 14.9151V12.7271L57.4782 12.6334L56.1727 13.7586C56.2971 12.7897 56.2349 11.977 55.9862 11.3519C55.7376 10.7267 55.3646 10.2579 54.8983 9.97657C54.401 9.69526 53.8726 9.53898 53.282 9.53898C52.5982 9.53898 51.9765 9.72652 51.4481 10.1016C50.9197 10.4767 50.5157 11.008 50.2359 11.7269C49.9562 12.4458 49.8007 13.2898 49.8007 14.2587C49.8007 15.8215 50.1427 16.9468 50.8265 17.6969C51.5103 18.4158 52.3806 18.7909 53.4996 18.7909C53.9969 18.7909 54.4321 18.7284 54.8051 18.5721C55.147 18.4471 55.4578 18.2595 55.6754 18.0408C55.893 17.822 56.0795 17.5719 56.2038 17.2906C56.3282 17.0093 56.4214 16.728 56.5146 16.4467L59.9649 17.1656C59.8405 17.8532 59.6229 18.4471 59.281 19.0097C58.9702 19.5723 58.535 20.0412 58.0377 20.4475C57.5093 20.8538 56.8876 21.1664 56.1417 21.3852C55.4267 21.5102 54.5564 21.6353 53.5307 21.6353Z" fill="black"/>
<path d="M68.357 21.6351C66.9272 21.6351 65.6528 21.3538 64.5649 20.76C63.477 20.1973 62.6066 19.3222 61.985 18.1969C61.3633 17.0717 61.0525 15.6651 61.0525 13.9773C61.0525 12.2894 61.3633 10.8829 61.985 9.75766C62.6066 8.63243 63.477 7.7885 64.5649 7.22588C65.6528 6.66327 66.8961 6.38196 68.3259 6.38196C69.7557 6.38196 71.0301 6.66327 72.118 7.22588C73.2059 7.7885 74.0762 8.63243 74.6979 9.75766C75.3195 10.8829 75.6304 12.2894 75.6304 13.9773C75.6304 15.6964 75.3195 17.1342 74.6668 18.2282C74.014 19.3534 73.1437 20.1661 72.0247 20.7287C70.9368 21.3538 69.7246 21.6351 68.357 21.6351ZM68.4502 18.697C68.8854 18.697 69.2895 18.6345 69.6935 18.4782C70.0665 18.322 70.4084 18.1032 70.7193 17.7593C71.0301 17.4155 71.2477 16.9467 71.4342 16.384C71.6207 15.8214 71.6828 15.1025 71.6828 14.2899C71.6828 13.4147 71.5896 12.6645 71.4031 12.0706C71.2166 11.4768 70.9679 10.9767 70.626 10.6016C70.3152 10.2265 69.9422 9.9452 69.507 9.78892C69.0719 9.63264 68.6367 9.53887 68.2016 9.53887C67.7664 9.53887 67.3623 9.60138 66.9893 9.75766C66.5852 9.91395 66.2433 10.1327 65.9636 10.4766C65.6838 10.8204 65.4352 11.258 65.2487 11.8519C65.0622 12.4145 64.9689 13.1334 64.9689 13.9773C64.9689 14.8525 65.0622 15.6026 65.2487 16.1965C65.4352 16.7904 65.6838 17.2905 66.0258 17.6656C66.3677 18.0406 66.7407 18.322 67.1447 18.4782C67.5488 18.6033 67.984 18.697 68.4502 18.697Z" fill="black"/>
<path d="M79.8264 21.2602L75.9722 7.10095H78.0547L81.1008 19.4473H81.4738L84.6754 7.10095H87.3796L90.55 19.4473H90.892L93.9691 7.10095H96.0206L92.1353 21.2289H89.2756L86.1052 8.91383H85.8565L82.655 21.2289H79.8264V21.2602Z" fill="black"/>
<path d="M103.729 21.5729C102.424 21.5729 101.243 21.2915 100.248 20.6977C99.2224 20.1038 98.4454 19.2599 97.8859 18.1346C97.3264 17.0094 97.0466 15.6654 97.0466 14.1025C97.0466 12.4772 97.3575 11.1019 97.948 10.0392C98.5386 8.94521 99.3468 8.13254 100.341 7.60118C101.336 7.03857 102.455 6.78851 103.667 6.78851C104.911 6.78851 106.061 7.06982 107.086 7.6637C108.112 8.22631 108.889 9.07024 109.48 10.1955C110.07 11.3207 110.381 12.6647 110.381 14.2901C110.381 15.9154 110.101 17.2594 109.511 18.3534C108.92 19.4474 108.143 20.2601 107.149 20.8227C106.123 21.2915 104.973 21.5729 103.729 21.5729ZM103.792 19.8225C104.289 19.8225 104.786 19.7287 105.315 19.5412C105.843 19.3536 106.34 19.0411 106.776 18.6347C107.211 18.1971 107.584 17.6345 107.863 16.9156C108.143 16.1967 108.299 15.3215 108.299 14.2588C108.299 13.1648 108.143 12.2584 107.863 11.5395C107.584 10.8206 107.211 10.2267 106.744 9.78914C106.278 9.35155 105.75 9.03898 105.19 8.85144C104.631 8.6639 104.071 8.57014 103.543 8.57014C103.046 8.57014 102.548 8.6639 102.02 8.82019C101.491 9.00773 100.994 9.28904 100.528 9.69537C100.062 10.1017 99.6887 10.6643 99.4089 11.3832C99.1292 12.1021 98.9738 12.9773 98.9738 14.04C98.9738 15.134 99.1292 16.0404 99.4089 16.7593C99.6887 17.4782 100.062 18.0721 100.528 18.541C100.994 18.9786 101.491 19.3224 102.051 19.5099C102.673 19.7287 103.232 19.8225 103.792 19.8225Z" fill="black"/>
<path d="M113.054 21.2603V13.4462V7.10109H114.981L114.639 12.2272H115.075C115.261 11.1332 115.51 10.1955 115.852 9.38281C116.194 8.57014 116.629 7.91376 117.219 7.44491C117.779 6.97606 118.463 6.75726 119.271 6.75726C119.457 6.75726 119.706 6.78852 119.955 6.81978C120.203 6.85103 120.483 6.9448 120.794 7.03857L120.67 9.13276C120.421 9.03899 120.141 8.97648 119.892 8.91396C119.613 8.85145 119.364 8.82019 119.146 8.82019C118.432 8.82019 117.779 9.07025 117.281 9.60161C116.753 10.133 116.318 10.8206 115.976 11.6645C115.634 12.5397 115.323 13.4774 115.106 14.5401V21.2603H113.054Z" fill="black"/>
<path d="M122.721 21.2601V2.16235H124.741V13.1021C125.518 12.7271 126.264 12.2895 126.979 11.7894C127.694 11.2893 128.347 10.7266 128.969 10.164C129.559 9.60141 130.088 9.03879 130.523 8.50743C130.958 7.97607 131.269 7.50722 131.486 7.10088H133.88C133.507 7.78853 133.072 8.44492 132.512 9.13256C131.953 9.8202 131.362 10.4453 130.678 11.0392C130.025 11.6331 129.311 12.1644 128.627 12.5708C127.912 13.0084 127.228 13.3209 126.544 13.5085V13.7898C127.383 13.7585 128.129 13.8836 128.813 14.1961C129.466 14.5087 130.088 14.915 130.616 15.4464C131.144 15.9777 131.673 16.6029 132.139 17.2905C132.605 17.9782 133.072 18.7283 133.538 19.5097L134.439 21.2288H132.139L131.455 19.9161C130.927 18.9784 130.367 18.1032 129.808 17.3218C129.248 16.5404 128.596 15.9465 127.912 15.4776C127.197 15.04 126.389 14.79 125.394 14.79H124.772V21.1976H122.721V21.2601Z" fill="black"/>
</svg>
