<svg width="26" height="40" viewBox="0 0 26 40" fill="none" xmlns="http://www.w3.org/2000/svg">
<path fill-rule="evenodd" clip-rule="evenodd" d="M5.90608 9.77449C7.92646 11.3373 19.0774 20.011 19.0774 20.011C20.0486 19.2493 21.01 18.4973 21.9715 17.7453L21.972 17.7449C22.9337 16.9928 23.8953 16.2407 24.8666 15.4788C25.294 15.1662 25.294 14.5411 24.8666 14.1895C19.9866 10.3657 15.1067 6.56782 10.2056 2.75359L10.2051 2.7532L10.1992 2.74862C9.09312 1.88779 7.98593 1.02611 6.87742 0.16312C6.33347 -0.227586 5.59525 0.124049 5.59525 0.78825V9.11029C5.59525 9.38378 5.71181 9.61821 5.90608 9.77449ZM24.8668 24.5431C23.8955 23.7813 22.9339 23.0292 21.9723 22.2771C21.0106 21.525 20.049 20.7729 19.0776 20.011C19.0776 20.011 7.88777 28.6846 5.90624 30.2475C5.71197 30.4037 5.59541 30.6382 5.59541 30.8726V39.1946C5.59541 39.8588 6.37248 40.2495 6.87758 39.8198C9.88847 37.4757 12.8799 35.1414 15.8714 32.8072L15.8739 32.8052C18.865 30.4712 21.8562 28.1372 24.8668 25.7934C25.2942 25.4808 25.2942 24.8557 24.8668 24.5431ZM1.28217 29.5051L12.6274 20.6752C13.0548 20.3236 13.0548 19.6984 12.6274 19.3859C8.81976 16.4165 5.05096 13.4862 1.28217 10.5559C0.777072 10.1261 0 10.5168 0 11.181V28.88C0 29.5442 0.777072 29.8959 1.28217 29.5051Z" fill="#36BFCD"/>
</svg>
