<svg width="21" height="32" viewBox="0 0 21 32" fill="none" xmlns="http://www.w3.org/2000/svg">
<path fill-rule="evenodd" clip-rule="evenodd" d="M4.72483 7.8196C6.34114 9.06986 15.2619 16.0088 15.2619 16.0088C16.0384 15.3998 16.8071 14.7986 17.5757 14.1974L17.5777 14.1958C18.347 13.5942 19.1162 12.9925 19.8933 12.3831C20.2352 12.133 20.2352 11.6329 19.8933 11.3516C15.9892 8.29247 12.0852 5.25414 8.16423 2.20269L8.15504 2.19554C7.27158 1.50799 6.38727 0.819769 5.5019 0.130496C5.06674 -0.182069 4.47617 0.0992397 4.47617 0.630601V7.28824C4.47617 7.50704 4.56942 7.69458 4.72483 7.8196ZM19.8934 19.6345C19.1164 19.0251 18.3472 18.4235 17.578 17.8219C16.8086 17.2201 16.0392 16.6184 15.262 16.0088C15.262 16.0088 6.31016 22.9477 4.72493 24.198C4.56951 24.323 4.47627 24.5106 4.47627 24.6981V31.3557C4.47627 31.8871 5.09792 32.1997 5.502 31.8559C7.9111 29.9803 10.3046 28.1126 12.6982 26.2449C15.0914 24.3775 17.4846 22.51 19.8934 20.6348C20.2353 20.3847 20.2353 19.8846 19.8934 19.6345ZM1.02574 23.6041L10.1019 16.5402C10.4438 16.2589 10.4438 15.7588 10.1019 15.5087C7.05581 13.1332 4.04078 10.789 1.02574 8.44473C0.621659 8.10091 0 8.41347 0 8.94483V23.104C0 23.6354 0.621659 23.9167 1.02574 23.6041Z" fill="#36BFCD"/>
</svg>
