<?xml version="1.0" encoding="utf-8"?>
<!-- Generator: Adobe Illustrator 27.3.1, SVG Export Plug-In . SVG Version: 6.00 Build 0)  -->
<svg version="1.1" id="Layer_1" xmlns="http://www.w3.org/2000/svg" xmlns:xlink="http://www.w3.org/1999/xlink" x="0px" y="0px"
	 viewBox="0 0 1692 410" style="enable-background:new 0 0 1692 410;" xml:space="preserve">
<style type="text/css">
	.st0{fill:#FFFFFF;}
	.st1{fill:#FF2F0D;}
</style>
<g>
	<path class="st0" d="M248.8,7.5c0.1-0.2,0-0.4-0.2-0.4H4c-3.1,0-5,3.3-3.4,5.9l226.2,388.5c1,1.8,3.6,1.8,4.7,0L353,198.2
		c0.1-0.2,0-0.4-0.2-0.4c-6.1,0-71.3-0.6-80.3-0.6c-0.6,0-1.2,0.3-1.6,0.9l-41.9,69.6v0L117.6,76.1c0,0,66.2,0,85.4,0
		c3.2,0,6.2-1.7,7.9-4.5C219.4,57.2,246,12.3,248.8,7.5z"/>
	<path class="st1" d="M238.7,76.4h102.6c1,0,1.6,1.1,1.1,1.9l-55.7,92.9c-0.5,0.9,0.1,1.9,1.1,1.9h78.5c0.4,0,0.9-0.2,1.1-0.6
		l96.2-161.1c1-1.8-0.3-4-2.3-4c0,0-170.3-0.3-182.9-0.3c-0.5,0-0.9,0.2-1.1,0.6l-39.7,66.7C237.1,75.3,237.7,76.4,238.7,76.4z"/>
</g>
<path class="st0" d="M644.9,34.3l-10.4,24.1c-4.8-1.6-9.2-2.8-13-3.6c-3.8-1-7.5-1.9-11.2-2.6c-3.6-0.7-8-1-13.2-1
	c-9.2,0-17.5,2.6-24.9,7.8c-7.4,5.2-13.3,12.5-17.6,22.1c-4.3,9.3-6.5,20.8-6.5,34.3c0,8.5,1,16.5,3.1,24.1
	c2.2,7.6,5.3,14.4,9.1,20.2c4,5.9,8.9,10.5,14.8,13.8c5.9,3.3,12.6,4.9,20.2,4.9c7.4,0,14.4-0.8,20.8-2.3c6.4-1.6,12.3-3.5,17.6-5.7
	l12.7,24.9c-4.5,2.2-9.7,4.2-15.6,6s-11.9,3-17.9,3.9c-5.9,1-11.2,1.6-16.1,1.6c-13.7,0-25.8-2.3-36.3-7
	c-10.4-4.7-19.1-11.2-26.2-19.5c-7.1-8.3-12.5-18-16.1-29.1c-3.5-11.1-5.2-22.9-5.2-35.6c0-13.5,2-25.9,6-37.1
	c4-11.4,9.7-21.3,17.1-29.6c7.6-8.3,16.6-14.7,27-19.2s22.1-6.7,35-6.7c3.5,0,7.9,0.4,13.2,1.3c5.4,0.7,11,1.9,16.9,3.6
	C634.2,29.4,639.8,31.5,644.9,34.3z M724.2,206.1c-13.7,0-25.5-2.7-35.6-8c-10-5.4-17.8-13-23.4-22.8c-5.5-10-8.3-21.7-8.3-35
	c0.2-13.5,2.9-25.2,8.3-35c5.5-10,13.3-17.7,23.4-23.1c10.2-5.5,22.1-8.3,35.6-8.3c13.8,0,25.7,2.7,35.6,8c10,5.4,17.8,13,23.4,22.8
	c5.5,9.9,8.3,21.5,8.3,35c0,13.3-2.8,25-8.3,35s-13.3,17.8-23.4,23.4C749.8,203.4,737.9,206.1,724.2,206.1z M724.5,177.3
	c6.4,0,11.9-1.6,16.6-4.9c4.8-3.3,8.7-7.8,11.4-13.5c2.8-5.7,4.2-12.1,4.2-19.2c0-7.3-1.4-13.7-4.2-19.2c-2.8-5.5-6.6-9.9-11.4-13
	c-4.8-3.3-10.5-4.9-16.9-4.9c-6.2,0-11.9,1.6-16.9,4.9c-4.8,3.3-8.7,7.8-11.4,13.5c-2.8,5.5-4.2,11.9-4.2,19.2
	c0,7.3,1.4,13.7,4.2,19.2c2.8,5.5,6.7,9.9,11.7,13.2C712.6,175.7,718.3,177.3,724.5,177.3z M845.8,203h-33.7V77.1h22.1l5.7,13.2
	c5.4-3.6,10.8-6.7,16.4-9.3c5.5-2.8,10.9-4.8,16.1-6c5.2-1.4,9.7-2.1,13.5-2.1c10,0,18,1.8,23.9,5.5c5.9,3.6,10.1,8.9,12.7,15.8
	c2.6,6.7,3.9,15,3.9,24.7V203h-33.7v-77.3c0-5.5-0.5-10-1.6-13.5c-1-3.6-2.7-6.4-4.9-8.3c-2.2-1.9-5.3-2.9-9.1-2.9
	c-4,0-7.8,0.8-11.4,2.3c-3.6,1.6-7.1,3.5-10.4,6c-3.3,2.4-6.4,4.7-9.3,6.7V203z M926,116.1l-6-25.7c5.4-3.6,10.8-6.7,16.4-9.3
	c5.5-2.8,10.8-4.8,15.8-6c5.2-1.4,9.8-2.1,13.8-2.1c10,0,18,1.8,23.9,5.5c5.9,3.6,10.1,8.9,12.7,15.8c2.6,6.7,3.9,15,3.9,24.7V203
	h-33.7v-77.3c0-5.5-0.6-10-1.8-13.5c-1-3.6-2.7-6.4-4.9-8.3c-2.1-1.9-5-2.9-8.8-2.9c-4,0-7.8,0.8-11.4,2.3c-3.6,1.6-7.1,3.5-10.4,6
	C932.1,111.7,928.9,114,926,116.1z M1069.1,257.2l-33.5,2.6V77.1h17.1l16.3,20.5V257.2z M1057.7,119.2l-9.6-22.1
	c4-4.8,8.2-9,12.7-12.5c4.7-3.5,9.7-6.1,15.1-8c5.4-1.9,11-2.9,16.9-2.9c13.2,0,24.4,2.7,33.7,8c9.5,5.4,16.8,13,21.8,22.8
	c5.2,9.9,7.8,21.5,7.8,34.8c0,13.3-2.6,25-7.8,35c-5,9.9-12.3,17.6-21.8,23.4c-9.5,5.5-21.2,8.3-35,8.3c-5,0-10.5-1.1-16.3-3.4
	c-5.7-2.2-11-5.2-15.8-8.8c-4.8-3.6-8.6-7.4-11.2-11.4l9.6-22.8c5.9,6.7,11.5,11.4,16.9,14c5.4,2.4,11,3.6,16.9,3.6
	c6.4,0,11.9-1.6,16.4-4.9c4.5-3.3,7.8-7.8,9.9-13.5c2.2-5.9,3.4-12.4,3.4-19.5c0-7.3-1.1-13.6-3.4-18.9c-2.2-5.5-5.5-9.9-9.9-13
	c-4.3-3.3-9.8-4.9-16.4-4.9c-6.1,0-11.7,1.4-16.9,4.2C1069.4,109.5,1063.8,113.6,1057.7,119.2z M1238.3,77.6l10.4,25.4h-33.2v53.7
	c0,6.6,1.6,11.9,4.7,16.1c3.1,4.2,7.7,6.2,13.8,6.2c2.2,0,4.5-0.3,6.8-0.8c2.2-0.5,4.6-1.3,7-2.3l9.9,24.4c-1.7,1.4-4.1,2.6-7,3.6
	c-2.9,1.2-6.1,2.2-9.3,2.9c-3.3,0.9-6.3,1.3-9.1,1.3c-10.4,0-19.3-1.7-26.7-5.2c-7.3-3.6-13-8.8-17.1-15.6c-4.2-6.7-6.2-15-6.2-24.7
	v-59.7h-17.1l0.3-25.4h16.9V47.5l33.5-6v36.1H1238.3z M1388.6,150.1h-84.9c1,5.5,2.9,10.4,5.7,14.5c2.8,4,6.7,7.1,11.9,9.3
	c5.2,2.2,11.9,3.4,20.2,3.4c7.4,0,14-1,19.7-3.1c5.7-2.1,11.3-4.8,16.9-8l9.9,24.4c-3.8,3.1-8.1,5.9-12.7,8.3
	c-4.5,2.2-9.6,4-15.3,5.2c-5.5,1.4-11.9,2.1-19.2,2.1c-16.3,0-29.9-2.7-40.8-8c-10.7-5.4-18.8-13-24.1-22.8c-5.4-10-8-21.7-8-35
	c0-13.5,2.5-25.2,7.5-35c5.2-10,12.5-17.7,22.1-23.1c9.5-5.5,20.8-8.3,33.7-8.3c13.2,0,24,3,32.4,9.1c8.5,5.9,14.7,13.8,18.7,23.9
	c4.2,10,6.2,21,6.2,33V150.1z M1303.9,127.5h52.7c-1-5.7-2.8-10.4-5.2-14c-2.4-3.6-5.4-6.3-9.1-8c-3.5-1.9-7.4-2.9-11.9-2.9
	s-8.6,1-12.2,2.9s-6.7,4.7-9.1,8.3C1306.7,117.3,1305,121.9,1303.9,127.5z M1502.4,168.7l9.6,24.4c-3.8,2.9-8.6,5.5-14.3,7.5
	c-5.5,1.9-10.9,3.3-16.1,4.2c-5.2,0.9-9.6,1.3-13.2,1.3c-13.5,0-25.3-2.7-35.3-8c-10-5.4-17.8-13-23.4-22.8c-5.5-10-8.3-21.7-8.3-35
	c0.2-13.5,2.9-25.2,8.3-35c5.5-10,13.3-17.7,23.4-23.1c10-5.5,21.8-8.3,35.3-8.3c3.6,0,8,0.5,13.2,1.6c5.2,1,10.5,2.5,15.8,4.4
	c5.5,1.9,10.4,4.3,14.5,7.3l-9.6,24.1c-6.1-2.8-11.8-4.8-17.1-6.2c-5.2-1.6-10.7-2.3-16.6-2.3c-6.2,0-11.9,1.6-16.9,4.9
	c-4.9,3.3-8.7,7.8-11.4,13.5c-2.8,5.5-4.2,11.9-4.2,19.2c0,7.3,1.4,13.7,4.2,19.2s6.7,9.9,11.7,13.2c5,3.1,10.6,4.7,16.9,4.7
	c5.5,0,11-0.7,16.3-2.1C1490.7,173.7,1496.4,171.5,1502.4,168.7z M1568,116.1l-6-25.7c5.4-3.6,10.9-6.7,16.6-9.3
	c5.9-2.8,11.5-4.8,16.9-6c5.5-1.4,10.6-2.1,15.1-2.1c11.4,0,20.2,2.2,26.2,6.7c6.2,4.5,10.6,10.6,13,18.4c2.6,7.6,3.9,16.3,3.9,26
	V203h-33.7v-77.3c0-8.1-1.6-14.3-4.9-18.4c-3.3-4.2-7.7-6.2-13.2-6.2c-4.2,0-8.4,0.8-12.7,2.3c-4.2,1.6-8,3.5-11.4,6
	C1574.1,111.7,1570.9,114,1568,116.1z M1568,203h-33.5V22.6l33.5-2.9V203z"/>
<path class="st0" d="M505.3,378.2l3.1-10.6c1.6,0.7,3.4,1.5,5.6,2.3c2.2,0.8,4.5,1.5,6.9,2.1c2.5,0.5,4.9,0.8,7.3,0.8
	c3.5,0,6.5-0.4,8.8-1.2c2.4-0.8,4.1-1.9,5.3-3.4c1.3-1.6,1.9-3.4,1.9-5.5c0-2.3-0.8-4.2-2.4-5.9c-1.6-1.6-3.7-3.2-6.5-4.7
	c-2.7-1.6-5.7-3.2-9.2-4.8c-3.1-1.6-6.1-3.3-8.8-4.9c-2.7-1.7-5-3.6-7.1-5.5c-2-2-3.5-4.1-4.7-6.5c-1.1-2.4-1.6-5.2-1.6-8.2
	c0-4,1.1-7.6,3.2-10.7c2.1-3.1,5.2-5.6,9.2-7.5c4-1.9,8.8-2.8,14.5-2.8c4,0,7.9,0.6,11.8,1.8c3.8,1.2,7.2,2.5,10,3.9l-4.4,10.6
	c-1.5-0.8-3.1-1.5-4.8-2.2c-1.6-0.7-3.5-1.3-5.5-1.6c-2-0.5-4.2-0.7-6.6-0.7c-3.9,0-7.2,0.8-9.9,2.4c-2.7,1.5-4,3.8-4,6.9
	c0,2.4,0.7,4.4,2.1,6.1c1.5,1.6,3.6,3.2,6.4,4.7c2.7,1.5,5.9,3.2,9.5,5.1c3.1,1.6,5.9,3.2,8.6,4.8c2.7,1.6,5.1,3.3,7.2,5.2
	c2,1.9,3.6,4,4.8,6.5c1.2,2.4,1.8,5.1,1.8,8.3c0,4.2-1.2,8-3.5,11.2c-2.3,3.2-5.6,5.8-9.9,7.8c-4.3,1.9-9.6,2.8-16,2.8
	c-1.6,0-3.6-0.2-5.8-0.6c-2.2-0.4-4.4-0.9-6.7-1.4c-2.2-0.6-4.2-1.3-6.1-2C507.9,379.7,506.4,378.9,505.3,378.2z"/>
<path class="st0" d="M582,343.1l-2-10.3c2.2-1.8,4.5-3.3,6.9-4.6c2.5-1.3,5.1-2.3,7.6-3.1c2.6-0.7,5.1-1.1,7.4-1.1
	c4.7,0,8.4,1,11.1,2.9c2.7,2,4.7,4.6,5.9,8c1.3,3.3,1.9,7.1,1.9,11.3V383h-13.2v-35.8c0-3.8-0.7-6.7-2.1-8.8
	c-1.4-2.1-3.7-3.2-6.8-3.2c-1.9,0-3.8,0.4-5.9,1.2c-2,0.8-3.8,1.8-5.6,3.1C585.4,340.6,583.7,341.9,582,343.1z M582,383H569v-81.7
	L582,300V383z"/>
<path class="st0" d="M644.1,366.2c0,1.3,0.3,2.6,0.9,3.8c0.7,1.2,1.7,2.2,2.9,2.9c1.3,0.7,2.7,1.1,4.5,1.1c2.5,0,4.9-0.6,7.3-1.8
	c2.4-1.2,4.5-2.8,6.6-4.8v-10.2h-12.8c-3,0-5.3,0.9-6.9,2.8C644.9,361.8,644.1,363.9,644.1,366.2z M639.3,340.3l-3.5-10.8
	c1.5-1,3.5-1.9,6-2.6c2.5-0.8,5.1-1.4,7.6-1.8c2.6-0.5,4.7-0.7,6.2-0.7c4.5,0,8.5,0.9,12.1,2.7c3.6,1.7,6.5,4.2,8.6,7.3
	c2.2,3.1,3.3,6.6,3.3,10.5V383h-8.9l-2-5.8c-2,2-4.5,3.6-7.3,5.1c-2.8,1.4-5.7,2.1-8.7,2.1c-6.8,0-11.9-1.7-15.2-5.1
	c-3.3-3.4-4.9-7.8-4.9-13.2c0-5.7,2-10.1,5.9-13.2c3.9-3.1,9-4.6,15.3-4.7h12.5v-0.4c-0.1-3.4-0.9-6.1-2.5-8.2
	c-1.6-2.2-4.2-3.3-7.9-3.3c-3,0-6,0.4-8.9,1.3C644,338.5,641.5,339.4,639.3,340.3z"/>
<path class="st0" d="M706.4,407.4l-13.1,1.3V326h6.9l6.1,8.1V407.4z M701.7,343.8l-3.8-9c1.7-2.3,3.7-4.2,6-5.6
	c2.3-1.6,4.6-2.7,6.9-3.5c2.4-0.8,4.7-1.2,6.8-1.2c5.9,0,10.9,1.3,15.2,3.8c4.3,2.4,7.6,5.9,9.9,10.5c2.4,4.5,3.5,9.8,3.5,15.9
	c0,6-1.2,11.2-3.5,15.7c-2.4,4.5-5.7,8-10,10.5c-4.2,2.5-9.4,3.8-15.4,3.8c-1.9,0-4.1-0.4-6.7-1.3c-2.5-0.9-4.9-2.1-7.3-3.6
	c-2.3-1.6-4.2-3.4-5.6-5.5l3.9-9.2c2.6,3.1,5.1,5.2,7.5,6.5c2.5,1.2,5.3,1.8,8.2,1.8c3.3,0,6.1-0.8,8.4-2.4c2.3-1.6,4-3.9,5.2-6.7
	c1.2-2.8,1.8-6,1.8-9.4c0-3.8-0.6-7.1-1.8-9.9c-1.1-2.8-2.8-5-5.1-6.6c-2.3-1.6-5.1-2.5-8.4-2.5c-3.1,0-5.9,0.7-8.4,2
	C706.8,339.1,704.3,341.1,701.7,343.8z"/>
<path class="st0" d="M769.6,383h-13.3v-57h13.3V383z M762.8,316.8c-2.2,0-4-0.7-5.5-2.2c-1.4-1.5-2.1-3.4-2.1-5.6
	c0-2.2,0.7-4,2.1-5.5c1.5-1.5,3.3-2.2,5.5-2.2c2.1,0,4,0.7,5.5,2.2c1.6,1.5,2.4,3.3,2.4,5.5c0,2.2-0.8,4.1-2.4,5.6
	C766.8,316.1,765,316.8,762.8,316.8z"/>
<path class="st0" d="M796.2,383h-13.2v-57h8.8l2.4,6.8c2.2-1.8,4.5-3.3,6.9-4.6c2.5-1.3,5.1-2.3,7.6-3.1c2.6-0.7,5-1.1,7.3-1.1
	c4.7,0,8.4,1,11.2,2.9c2.7,2,4.7,4.6,5.9,8c1.3,3.3,1.9,7.1,1.9,11.3V383h-13.3v-35.8c0-3.8-0.7-6.7-2.1-8.8
	c-1.3-2.1-3.6-3.2-6.7-3.2c-1.9,0-3.8,0.4-5.9,1.2c-2,0.8-3.8,1.8-5.6,3.1c-1.8,1.3-3.5,2.5-5.2,3.8V383z"/>
<path class="st0" d="M899,326v60.9c0,4.8-1.2,8.9-3.5,12.3c-2.3,3.4-5.6,6.1-9.9,8c-4.2,1.9-9.3,2.8-15.3,2.8
	c-1.2,0-2.7-0.1-4.7-0.4c-1.9-0.2-3.9-0.6-6-1.2c-2-0.5-4-1.1-6-1.9c-2-0.8-3.6-1.7-5.1-2.7l4-9.4c3.1,1.6,5.9,2.7,8.6,3.5
	c2.7,0.9,5.6,1.3,8.8,1.4c4.6-0.1,8.4-1.2,11.3-3.4c3-2.2,4.5-5.3,4.5-9.3v-50.9l6.1-9.9H899z M889,365.1l4,8.9
	c-1.7,2.2-3.7,4.1-6,5.6c-2.3,1.6-4.6,2.7-7.1,3.5c-2.4,0.9-4.6,1.3-6.8,1.3c-5.9,0-11-1.3-15.3-3.8c-4.2-2.5-7.5-6-9.8-10.5
	c-2.3-4.5-3.4-9.9-3.4-16c0-6,1.1-11.2,3.4-15.6c2.4-4.5,5.7-8,10-10.5c4.3-2.5,9.4-3.8,15.3-3.8c2,0,4.3,0.4,6.8,1.3
	c2.5,0.8,4.9,2,7.2,3.5c2.4,1.6,4.3,3.4,5.8,5.6l-3.9,9c-2.6-3-5.1-5.1-7.6-6.3c-2.4-1.3-5.1-1.9-8.1-1.9c-3.2,0-6,0.8-8.4,2.5
	c-2.3,1.6-4,3.9-5.2,6.7c-1.2,2.7-1.8,5.9-1.8,9.4c0,3.7,0.6,6.9,1.8,9.8c1.2,2.8,2.9,5.1,5.2,6.7c2.4,1.6,5.1,2.4,8.2,2.4
	c3.1,0,5.8-0.7,8.1-2C883.9,369.8,886.4,367.8,889,365.1z"/>
<path class="st0" d="M949.9,366.2c0,1.3,0.3,2.6,0.9,3.8c0.7,1.2,1.7,2.2,2.9,2.9c1.3,0.7,2.7,1.1,4.5,1.1c2.5,0,4.9-0.6,7.3-1.8
	c2.4-1.2,4.5-2.8,6.6-4.8v-10.2h-12.8c-3,0-5.3,0.9-6.9,2.8C950.8,361.8,949.9,363.9,949.9,366.2z M945.1,340.3l-3.5-10.8
	c1.5-1,3.5-1.9,6-2.6c2.5-0.8,5.1-1.4,7.6-1.8c2.6-0.5,4.7-0.7,6.2-0.7c4.5,0,8.5,0.9,12.1,2.7c3.6,1.7,6.5,4.2,8.6,7.3
	c2.2,3.1,3.3,6.6,3.3,10.5V383h-8.9l-2-5.8c-2,2-4.5,3.6-7.3,5.1c-2.8,1.4-5.7,2.1-8.7,2.1c-6.8,0-11.9-1.7-15.2-5.1
	c-3.3-3.4-4.9-7.8-4.9-13.2c0-5.7,2-10.1,5.9-13.2c3.9-3.1,9-4.6,15.3-4.7h12.5v-0.4c-0.1-3.4-0.9-6.1-2.5-8.2
	c-1.6-2.2-4.2-3.3-7.9-3.3c-3,0-6,0.4-8.9,1.3C949.9,338.5,947.3,339.4,945.1,340.3z"/>
<path class="st0" d="M1033.4,383h-6.9v-81.7l13.1-1.3v74.4L1033.4,383z M1034.8,343.8l-3.8-9c1.7-2.3,3.7-4.2,6-5.6
	c2.3-1.6,4.6-2.7,6.9-3.5c2.4-0.8,4.7-1.2,6.8-1.2c5.9,0,10.9,1.3,15.2,3.8c4.3,2.4,7.6,5.9,9.9,10.5c2.3,4.5,3.5,9.8,3.5,15.9
	c0,6-1.2,11.2-3.5,15.7c-2.3,4.5-5.7,8-10,10.5c-4.2,2.5-9.4,3.8-15.4,3.8c-1.9,0-4.1-0.4-6.7-1.3c-2.5-0.9-4.9-2.1-7.3-3.6
	c-2.3-1.6-4.2-3.4-5.6-5.5l3.9-9.2c2.6,3.1,5.1,5.2,7.5,6.5c2.5,1.2,5.3,1.8,8.2,1.8c3.3,0,6.1-0.8,8.4-2.4c2.3-1.6,4-3.9,5.2-6.7
	c1.2-2.8,1.8-6,1.8-9.4c0-3.8-0.6-7.1-1.8-9.9c-1.1-2.8-2.8-5-5.1-6.6c-2.3-1.6-5.1-2.5-8.4-2.5c-3.1,0-5.9,0.7-8.3,2
	C1039.9,339.1,1037.4,341.1,1034.8,343.8z"/>
<path class="st0" d="M1139.2,357.9h-39.5c0.4,3.1,1.2,5.7,2.5,8c1.3,2.3,3.2,4.1,5.8,5.4c2.6,1.3,5.9,1.9,10,1.9
	c3.3,0,6.2-0.5,8.7-1.4c2.6-0.9,5.3-2.2,8.1-3.6l4,9.6c-1.8,1.2-3.8,2.3-5.9,3.4c-2.1,1-4.4,1.8-6.9,2.4c-2.5,0.5-5.2,0.8-8.2,0.8
	c-7,0-12.9-1.2-17.6-3.6c-4.8-2.5-8.3-6-10.7-10.5c-2.4-4.5-3.5-9.8-3.5-15.7c0-6,1.1-11.3,3.3-15.7c2.3-4.5,5.5-8.1,9.7-10.6
	c4.2-2.5,9.2-3.8,15-3.8c5.9,0,10.7,1.4,14.5,4.2c3.8,2.8,6.5,6.5,8.2,11.2c1.8,4.6,2.7,9.7,2.7,15.3V357.9z M1100,349h26.6
	c-0.5-2.8-1.3-5.2-2.5-7.2c-1.1-2-2.5-3.4-4.3-4.5c-1.7-1.1-3.8-1.6-6.3-1.6c-2.4,0-4.6,0.5-6.6,1.6c-1.9,1-3.4,2.5-4.6,4.5
	C1101.1,343.8,1100.3,346.2,1100,349z"/>
<path class="st0" d="M1175.3,326.4l4,10H1165v27.4c0,2.9,0.7,5.3,2,7.2c1.3,1.8,3.4,2.7,6.1,2.7c1,0,2-0.1,3.1-0.4
	c1-0.2,2-0.5,2.9-0.9l3.7,9.8c-0.7,0.5-1.7,0.9-2.9,1.4c-1.2,0.5-2.5,0.9-3.9,1.2c-1.3,0.3-2.6,0.5-3.8,0.5c-4.2,0-7.8-0.7-10.8-2.2
	c-3-1.5-5.3-3.6-7.1-6.5c-1.6-2.9-2.5-6.4-2.5-10.6v-29.5h-7.9l-0.1-10h8v-14l13.2-2.6v16.6H1175.3z"/>
<path class="st0" d="M1217.8,326.4l4,10h-14.3v27.4c0,2.9,0.7,5.3,2,7.2c1.3,1.8,3.4,2.7,6.1,2.7c1,0,2-0.1,3.1-0.4
	c1-0.2,2-0.5,2.9-0.9l3.6,9.8c-0.7,0.5-1.7,0.9-2.9,1.4c-1.2,0.5-2.5,0.9-3.9,1.2c-1.3,0.3-2.6,0.5-3.8,0.5c-4.2,0-7.8-0.7-10.8-2.2
	c-3-1.5-5.3-3.6-7.1-6.5c-1.7-2.9-2.5-6.4-2.5-10.6v-29.5h-7.9l-0.1-10h8v-14l13.2-2.6v16.6H1217.8z"/>
<path class="st0" d="M1284.1,357.9h-39.5c0.4,3.1,1.2,5.7,2.5,8c1.3,2.3,3.3,4.1,5.8,5.4c2.6,1.3,5.9,1.9,10,1.9
	c3.3,0,6.2-0.5,8.7-1.4c2.6-0.9,5.3-2.2,8.1-3.6l4,9.6c-1.8,1.2-3.8,2.3-5.9,3.4c-2.1,1-4.4,1.8-6.9,2.4c-2.5,0.5-5.2,0.8-8.2,0.8
	c-7,0-12.9-1.2-17.7-3.6c-4.8-2.5-8.3-6-10.7-10.5c-2.3-4.5-3.5-9.8-3.5-15.7c0-6,1.1-11.3,3.3-15.7c2.3-4.5,5.5-8.1,9.6-10.6
	c4.2-2.5,9.2-3.8,15.1-3.8c5.9,0,10.7,1.4,14.5,4.2c3.8,2.8,6.5,6.5,8.2,11.2c1.8,4.6,2.7,9.7,2.7,15.3V357.9z M1244.8,349h26.6
	c-0.5-2.8-1.3-5.2-2.5-7.2c-1.1-2-2.6-3.4-4.3-4.5c-1.7-1.1-3.9-1.6-6.4-1.6c-2.4,0-4.6,0.5-6.6,1.6c-1.9,1-3.4,2.5-4.6,4.5
	C1245.9,343.8,1245.2,346.2,1244.8,349z"/>
<path class="st0" d="M1307.2,383h-13.2v-57h7.1l4.3,9.4c1.6-1.3,3.5-2.7,5.7-4.1c2.2-1.5,4.5-2.7,6.8-3.8c2.4-1,4.7-1.5,6.7-1.5
	l2.8,10.6c-1.9,0-4,0.5-6.5,1.4c-2.4,0.9-4.8,2.2-7.2,3.6c-2.4,1.5-4.6,3.2-6.6,5.1V383z"/>
<path class="st0" d="M1356.9,336.4v-10h8.8v-6c0-4.1,0.8-7.6,2.4-10.6c1.6-3,4-5.3,6.9-6.9c3-1.6,6.6-2.5,10.8-2.5
	c1.3,0,2.5,0.2,3.8,0.5c1.3,0.2,2.6,0.6,3.8,1.1c1.2,0.5,2.2,1,2.9,1.5l-3.7,10c-0.9-0.5-2-0.8-3.1-1.1c-1-0.2-2-0.4-2.8-0.4
	c-2.7,0-4.7,0.9-6,2.8c-1.2,1.8-1.8,4.2-1.8,7.2v4.3h10.6l4.2,10H1379V383h-13.3v-46.5H1356.9z"/>
<path class="st0" d="M1441.3,326h13.3v57h-9.1l-2.2-6.8c-2.1,1.7-4.4,3.3-6.9,4.6c-2.5,1.3-5.1,2.2-7.7,2.9
	c-2.5,0.8-4.9,1.2-7.2,1.2c-4.8,0-8.6-0.9-11.3-2.8c-2.8-2-4.7-4.6-5.9-8c-1.2-3.4-1.8-7.2-1.8-11.4V326h13.2v35.7
	c0,3.8,0.7,6.7,2.1,8.8c1.4,2.1,3.7,3.2,6.7,3.2c2,0,3.9-0.4,5.9-1.2c2-0.8,3.9-1.8,5.7-2.9c1.9-1.3,3.6-2.5,5.2-3.8V326z"/>
<path class="st0" d="M1494.3,326.4l4,10h-14.3v27.4c0,2.9,0.7,5.3,2,7.2c1.3,1.8,3.4,2.7,6.1,2.7c1,0,2-0.1,3.1-0.4
	c1-0.2,2-0.5,2.9-0.9l3.6,9.8c-0.7,0.5-1.7,0.9-2.9,1.4c-1.2,0.5-2.5,0.9-3.9,1.2c-1.3,0.3-2.6,0.5-3.8,0.5c-4.2,0-7.8-0.7-10.8-2.2
	s-5.3-3.6-7.1-6.5c-1.6-2.9-2.5-6.4-2.5-10.6v-29.5h-7.9l-0.1-10h8v-14l13.2-2.6v16.6H1494.3z"/>
<path class="st0" d="M1548.9,326h13.3v57h-9.1l-2.2-6.8c-2.1,1.7-4.4,3.3-6.9,4.6c-2.5,1.3-5.1,2.2-7.6,2.9
	c-2.5,0.8-4.9,1.2-7.2,1.2c-4.8,0-8.6-0.9-11.3-2.8c-2.8-2-4.7-4.6-5.9-8c-1.2-3.4-1.8-7.2-1.8-11.4V326h13.2v35.7
	c0,3.8,0.7,6.7,2.1,8.8c1.4,2.1,3.7,3.2,6.7,3.2c2,0,3.9-0.4,5.9-1.2c2-0.8,3.8-1.8,5.6-2.9c1.9-1.3,3.6-2.5,5.2-3.8V326z"/>
<path class="st0" d="M1589,383h-13.2v-57h7l4.3,9.4c1.6-1.3,3.5-2.7,5.7-4.1c2.2-1.5,4.5-2.7,6.8-3.8c2.4-1,4.7-1.5,6.7-1.5
	l2.8,10.6c-1.9,0-4,0.5-6.5,1.4c-2.3,0.9-4.8,2.2-7.2,3.6c-2.4,1.5-4.5,3.2-6.6,5.1V383z"/>
<path class="st0" d="M1667,357.9h-39.5c0.4,3.1,1.2,5.7,2.5,8c1.3,2.3,3.3,4.1,5.8,5.4c2.6,1.3,5.9,1.9,10,1.9
	c3.3,0,6.2-0.5,8.7-1.4c2.6-0.9,5.3-2.2,8.1-3.6l4,9.6c-1.8,1.2-3.8,2.3-5.9,3.4c-2.1,1-4.4,1.8-6.9,2.4c-2.5,0.5-5.2,0.8-8.2,0.8
	c-7,0-12.9-1.2-17.6-3.6c-4.8-2.5-8.3-6-10.7-10.5c-2.3-4.5-3.5-9.8-3.5-15.7c0-6,1.1-11.3,3.3-15.7c2.3-4.5,5.5-8.1,9.6-10.6
	c4.2-2.5,9.3-3.8,15.1-3.8c5.9,0,10.7,1.4,14.5,4.2c3.8,2.8,6.5,6.5,8.2,11.2c1.8,4.6,2.7,9.7,2.7,15.3V357.9z M1627.7,349h26.6
	c-0.5-2.8-1.3-5.2-2.5-7.2c-1.1-2-2.5-3.4-4.3-4.5c-1.7-1.1-3.8-1.6-6.3-1.6c-2.4,0-4.6,0.5-6.6,1.6c-1.9,1-3.4,2.5-4.6,4.5
	C1628.9,343.8,1628.1,346.2,1627.7,349z"/>
</svg>
